<svg width="398" height="238" viewBox="0 0 398 238" fill="none" xmlns="http://www.w3.org/2000/svg">
<g filter="url(#filter0_d_43_902)">
<g clip-path="url(#clip0_43_902)">
<path d="M4 0H394V250H4V0Z" fill="white"/>
<path d="M25.5625 108V96.5781H34.0703V108H32.7578V97.75H26.8906V108H25.5625ZM44.4062 103.703C44.4062 104.406 44.3151 105.034 44.1328 105.586C43.9505 106.138 43.6875 106.604 43.3438 106.984C43 107.365 42.5833 107.656 42.0938 107.859C41.6094 108.057 41.0599 108.156 40.4453 108.156C39.8724 108.156 39.3464 108.057 38.8672 107.859C38.3932 107.656 37.9818 107.365 37.6328 106.984C37.2891 106.604 37.0208 106.138 36.8281 105.586C36.6406 105.034 36.5469 104.406 36.5469 103.703C36.5469 102.766 36.7057 101.969 37.0234 101.312C37.3411 100.651 37.7943 100.148 38.3828 99.8047C38.9766 99.4557 39.6823 99.2812 40.5 99.2812C41.2812 99.2812 41.9635 99.4557 42.5469 99.8047C43.1354 100.154 43.5911 100.659 43.9141 101.32C44.2422 101.977 44.4062 102.771 44.4062 103.703ZM37.8906 103.703C37.8906 104.391 37.9818 104.987 38.1641 105.492C38.3464 105.997 38.6276 106.388 39.0078 106.664C39.388 106.94 39.8776 107.078 40.4766 107.078C41.0703 107.078 41.5573 106.94 41.9375 106.664C42.3229 106.388 42.6068 105.997 42.7891 105.492C42.9714 104.987 43.0625 104.391 43.0625 103.703C43.0625 103.021 42.9714 102.432 42.7891 101.938C42.6068 101.438 42.3255 101.052 41.9453 100.781C41.5651 100.51 41.0729 100.375 40.4688 100.375C39.5781 100.375 38.9245 100.669 38.5078 101.258C38.0964 101.846 37.8906 102.661 37.8906 103.703ZM53.0703 108H51.75V100.523H49.1484C49.0443 101.872 48.9115 103.029 48.75 103.992C48.5938 104.951 48.3958 105.734 48.1562 106.344C47.9219 106.948 47.6354 107.393 47.2969 107.68C46.9635 107.961 46.5651 108.102 46.1016 108.102C45.9609 108.102 45.8281 108.094 45.7031 108.078C45.5781 108.062 45.4714 108.036 45.3828 108V107.016C45.4505 107.036 45.5208 107.052 45.5938 107.062C45.6719 107.073 45.7526 107.078 45.8359 107.078C46.0703 107.078 46.2839 106.982 46.4766 106.789C46.6745 106.591 46.8516 106.294 47.0078 105.898C47.1693 105.503 47.3125 105.003 47.4375 104.398C47.5625 103.789 47.6719 103.073 47.7656 102.25C47.8646 101.422 47.9505 100.484 48.0234 99.4375H53.0703V108ZM54.4531 99.4375H55.8438L57.7344 104.406C57.8438 104.698 57.9453 104.979 58.0391 105.25C58.1328 105.516 58.2161 105.771 58.2891 106.016C58.362 106.26 58.4193 106.497 58.4609 106.727H58.5156C58.5885 106.466 58.6927 106.125 58.8281 105.703C58.9635 105.276 59.1094 104.841 59.2656 104.398L61.0547 99.4375H62.4531L58.7266 109.258C58.5286 109.784 58.2969 110.242 58.0312 110.633C57.7708 111.023 57.4531 111.323 57.0781 111.531C56.7031 111.745 56.25 111.852 55.7188 111.852C55.474 111.852 55.2578 111.836 55.0703 111.805C54.8828 111.779 54.7214 111.747 54.5859 111.711V110.672C54.7005 110.698 54.8385 110.721 55 110.742C55.1667 110.763 55.3385 110.773 55.5156 110.773C55.8385 110.773 56.1172 110.711 56.3516 110.586C56.5911 110.466 56.7969 110.289 56.9688 110.055C57.1406 109.82 57.2891 109.542 57.4141 109.219L57.8828 108.016L54.4531 99.4375ZM64.9531 99.4375V102.516C64.9531 103.052 65.099 103.448 65.3906 103.703C65.6875 103.958 66.1172 104.086 66.6797 104.086C67.2214 104.086 67.7135 104.003 68.1562 103.836C68.599 103.669 69.0469 103.443 69.5 103.156V99.4375H70.7969V108H69.5V104.164C69.0208 104.471 68.5495 104.714 68.0859 104.891C67.6224 105.068 67.0677 105.156 66.4219 105.156C65.5417 105.156 64.8594 104.927 64.375 104.469C63.8958 104.01 63.6562 103.391 63.6562 102.609V99.4375H64.9531ZM74.7734 99.4375V104.82C74.7734 104.924 74.7708 105.06 74.7656 105.227C74.7604 105.388 74.7526 105.562 74.7422 105.75C74.7318 105.932 74.7214 106.109 74.7109 106.281C74.7057 106.448 74.6979 106.586 74.6875 106.695L79.3594 99.4375H80.9531V108H79.7422V102.75C79.7422 102.583 79.7448 102.37 79.75 102.109C79.7552 101.849 79.763 101.594 79.7734 101.344C79.7839 101.089 79.7917 100.891 79.7969 100.75L75.1406 108H73.5391V99.4375H74.7734ZM90.1328 108H88.8125V100.523H86.2109C86.1068 101.872 85.974 103.029 85.8125 103.992C85.6562 104.951 85.4583 105.734 85.2188 106.344C84.9844 106.948 84.6979 107.393 84.3594 107.68C84.026 107.961 83.6276 108.102 83.1641 108.102C83.0234 108.102 82.8906 108.094 82.7656 108.078C82.6406 108.062 82.5339 108.036 82.4453 108V107.016C82.513 107.036 82.5833 107.052 82.6562 107.062C82.7344 107.073 82.8151 107.078 82.8984 107.078C83.1328 107.078 83.3464 106.982 83.5391 106.789C83.737 106.591 83.9141 106.294 84.0703 105.898C84.2318 105.503 84.375 105.003 84.5 104.398C84.625 103.789 84.7344 103.073 84.8281 102.25C84.9271 101.422 85.013 100.484 85.0859 99.4375H90.1328V108ZM96.0703 99.2969C97.0911 99.2969 97.849 99.526 98.3438 99.9844C98.8385 100.443 99.0859 101.174 99.0859 102.18V108H98.1406L97.8906 106.734H97.8281C97.5885 107.047 97.3385 107.31 97.0781 107.523C96.8177 107.732 96.5156 107.891 96.1719 108C95.8333 108.104 95.4167 108.156 94.9219 108.156C94.401 108.156 93.9375 108.065 93.5312 107.883C93.1302 107.701 92.8125 107.424 92.5781 107.055C92.349 106.685 92.2344 106.216 92.2344 105.648C92.2344 104.794 92.5729 104.138 93.25 103.68C93.9271 103.221 94.9583 102.971 96.3438 102.93L97.8203 102.867V102.344C97.8203 101.604 97.6615 101.086 97.3438 100.789C97.026 100.492 96.5781 100.344 96 100.344C95.5521 100.344 95.125 100.409 94.7188 100.539C94.3125 100.669 93.9271 100.823 93.5625 101L93.1641 100.016C93.5495 99.8177 93.9922 99.6484 94.4922 99.5078C94.9922 99.3672 95.5182 99.2969 96.0703 99.2969ZM97.8047 103.781L96.5 103.836C95.4323 103.878 94.6797 104.052 94.2422 104.359C93.8047 104.667 93.5859 105.102 93.5859 105.664C93.5859 106.154 93.7344 106.516 94.0312 106.75C94.3281 106.984 94.7214 107.102 95.2109 107.102C95.9714 107.102 96.5938 106.891 97.0781 106.469C97.5625 106.047 97.8047 105.414 97.8047 104.57V103.781ZM109.344 108.156C108.573 108.156 107.893 107.997 107.305 107.68C106.716 107.362 106.258 106.878 105.93 106.227C105.602 105.576 105.438 104.755 105.438 103.766C105.438 102.729 105.609 101.883 105.953 101.227C106.302 100.565 106.781 100.076 107.391 99.7578C108 99.4401 108.693 99.2812 109.469 99.2812C109.896 99.2812 110.307 99.3255 110.703 99.4141C111.104 99.4974 111.432 99.6042 111.688 99.7344L111.297 100.82C111.036 100.716 110.734 100.622 110.391 100.539C110.052 100.456 109.734 100.414 109.438 100.414C108.844 100.414 108.349 100.542 107.953 100.797C107.562 101.052 107.268 101.427 107.07 101.922C106.878 102.417 106.781 103.026 106.781 103.75C106.781 104.443 106.875 105.034 107.062 105.523C107.255 106.013 107.539 106.388 107.914 106.648C108.294 106.904 108.768 107.031 109.336 107.031C109.789 107.031 110.198 106.984 110.562 106.891C110.927 106.792 111.258 106.677 111.555 106.547V107.703C111.268 107.849 110.948 107.961 110.594 108.039C110.245 108.117 109.828 108.156 109.344 108.156ZM120.391 101.586C120.391 102.122 120.234 102.542 119.922 102.844C119.609 103.141 119.206 103.341 118.711 103.445V103.508C119.247 103.581 119.708 103.773 120.094 104.086C120.484 104.393 120.68 104.865 120.68 105.5C120.68 105.99 120.562 106.422 120.328 106.797C120.094 107.172 119.727 107.466 119.227 107.68C118.727 107.893 118.076 108 117.273 108H113.586V99.4375H117.242C117.857 99.4375 118.398 99.5078 118.867 99.6484C119.341 99.7839 119.714 100.008 119.984 100.32C120.255 100.633 120.391 101.055 120.391 101.586ZM119.328 105.5C119.328 104.995 119.135 104.63 118.75 104.406C118.37 104.182 117.815 104.07 117.086 104.07H114.891V106.945H117.117C117.836 106.945 118.383 106.836 118.758 106.617C119.138 106.393 119.328 106.021 119.328 105.5ZM119.07 101.734C119.07 101.328 118.922 101.026 118.625 100.828C118.328 100.625 117.841 100.523 117.164 100.523H114.891V102.984H116.938C117.641 102.984 118.172 102.883 118.531 102.68C118.891 102.477 119.07 102.161 119.07 101.734ZM130.156 103.703C130.156 104.406 130.065 105.034 129.883 105.586C129.701 106.138 129.438 106.604 129.094 106.984C128.75 107.365 128.333 107.656 127.844 107.859C127.359 108.057 126.81 108.156 126.195 108.156C125.622 108.156 125.096 108.057 124.617 107.859C124.143 107.656 123.732 107.365 123.383 106.984C123.039 106.604 122.771 106.138 122.578 105.586C122.391 105.034 122.297 104.406 122.297 103.703C122.297 102.766 122.456 101.969 122.773 101.312C123.091 100.651 123.544 100.148 124.133 99.8047C124.727 99.4557 125.432 99.2812 126.25 99.2812C127.031 99.2812 127.714 99.4557 128.297 99.8047C128.885 100.154 129.341 100.659 129.664 101.32C129.992 101.977 130.156 102.771 130.156 103.703ZM123.641 103.703C123.641 104.391 123.732 104.987 123.914 105.492C124.096 105.997 124.378 106.388 124.758 106.664C125.138 106.94 125.628 107.078 126.227 107.078C126.82 107.078 127.307 106.94 127.688 106.664C128.073 106.388 128.357 105.997 128.539 105.492C128.721 104.987 128.812 104.391 128.812 103.703C128.812 103.021 128.721 102.432 128.539 101.938C128.357 101.438 128.076 101.052 127.695 100.781C127.315 100.51 126.823 100.375 126.219 100.375C125.328 100.375 124.674 100.669 124.258 101.258C123.846 101.846 123.641 102.661 123.641 103.703ZM135.695 99.2812C136.424 99.2812 137.049 99.4427 137.57 99.7656C138.091 100.089 138.49 100.542 138.766 101.125C139.042 101.703 139.18 102.38 139.18 103.156V103.961H133.266C133.281 104.966 133.531 105.732 134.016 106.258C134.5 106.784 135.182 107.047 136.062 107.047C136.604 107.047 137.083 106.997 137.5 106.898C137.917 106.799 138.349 106.654 138.797 106.461V107.602C138.365 107.794 137.935 107.935 137.508 108.023C137.086 108.112 136.586 108.156 136.008 108.156C135.185 108.156 134.466 107.99 133.852 107.656C133.242 107.318 132.768 106.823 132.43 106.172C132.091 105.521 131.922 104.724 131.922 103.781C131.922 102.859 132.076 102.062 132.383 101.391C132.695 100.714 133.133 100.193 133.695 99.8281C134.263 99.4635 134.93 99.2812 135.695 99.2812ZM135.68 100.344C134.987 100.344 134.435 100.57 134.023 101.023C133.612 101.477 133.367 102.109 133.289 102.922H137.82C137.815 102.411 137.734 101.964 137.578 101.578C137.427 101.188 137.195 100.885 136.883 100.672C136.57 100.453 136.169 100.344 135.68 100.344ZM151.812 99.4375V106.898H153.039V110.961H151.781V108H145.719V110.961H144.477V106.898H145.148C145.638 106.221 146.044 105.479 146.367 104.672C146.69 103.865 146.935 103.018 147.102 102.133C147.268 101.242 147.357 100.344 147.367 99.4375H151.812ZM150.555 100.469H148.523C148.477 101.229 148.365 102.003 148.188 102.789C148.016 103.576 147.786 104.326 147.5 105.039C147.214 105.747 146.88 106.367 146.5 106.898H150.555V100.469ZM158.039 99.2812C158.768 99.2812 159.393 99.4427 159.914 99.7656C160.435 100.089 160.833 100.542 161.109 101.125C161.385 101.703 161.523 102.38 161.523 103.156V103.961H155.609C155.625 104.966 155.875 105.732 156.359 106.258C156.844 106.784 157.526 107.047 158.406 107.047C158.948 107.047 159.427 106.997 159.844 106.898C160.26 106.799 160.693 106.654 161.141 106.461V107.602C160.708 107.794 160.279 107.935 159.852 108.023C159.43 108.112 158.93 108.156 158.352 108.156C157.529 108.156 156.81 107.99 156.195 107.656C155.586 107.318 155.112 106.823 154.773 106.172C154.435 105.521 154.266 104.724 154.266 103.781C154.266 102.859 154.419 102.062 154.727 101.391C155.039 100.714 155.477 100.193 156.039 99.8281C156.607 99.4635 157.273 99.2812 158.039 99.2812ZM158.023 100.344C157.331 100.344 156.779 100.57 156.367 101.023C155.956 101.477 155.711 102.109 155.633 102.922H160.164C160.159 102.411 160.078 101.964 159.922 101.578C159.771 101.188 159.539 100.885 159.227 100.672C158.914 100.453 158.513 100.344 158.023 100.344ZM167.75 99.2812C168.818 99.2812 169.669 99.6484 170.305 100.383C170.94 101.117 171.258 102.221 171.258 103.695C171.258 104.669 171.112 105.487 170.82 106.148C170.529 106.81 170.117 107.31 169.586 107.648C169.06 107.987 168.438 108.156 167.719 108.156C167.266 108.156 166.867 108.096 166.523 107.977C166.18 107.857 165.885 107.695 165.641 107.492C165.396 107.289 165.193 107.068 165.031 106.828H164.938C164.953 107.031 164.971 107.276 164.992 107.562C165.018 107.849 165.031 108.099 165.031 108.312V111.828H163.727V99.4375H164.797L164.969 100.703H165.031C165.198 100.443 165.401 100.206 165.641 99.9922C165.88 99.7734 166.172 99.6016 166.516 99.4766C166.865 99.3464 167.276 99.2812 167.75 99.2812ZM167.523 100.375C166.93 100.375 166.451 100.49 166.086 100.719C165.727 100.948 165.464 101.292 165.297 101.75C165.13 102.203 165.042 102.773 165.031 103.461V103.711C165.031 104.435 165.109 105.047 165.266 105.547C165.427 106.047 165.69 106.427 166.055 106.688C166.424 106.948 166.919 107.078 167.539 107.078C168.07 107.078 168.513 106.935 168.867 106.648C169.221 106.362 169.484 105.964 169.656 105.453C169.833 104.938 169.922 104.346 169.922 103.68C169.922 102.669 169.724 101.867 169.328 101.273C168.938 100.674 168.336 100.375 167.523 100.375ZM176.82 99.2812C177.549 99.2812 178.174 99.4427 178.695 99.7656C179.216 100.089 179.615 100.542 179.891 101.125C180.167 101.703 180.305 102.38 180.305 103.156V103.961H174.391C174.406 104.966 174.656 105.732 175.141 106.258C175.625 106.784 176.307 107.047 177.188 107.047C177.729 107.047 178.208 106.997 178.625 106.898C179.042 106.799 179.474 106.654 179.922 106.461V107.602C179.49 107.794 179.06 107.935 178.633 108.023C178.211 108.112 177.711 108.156 177.133 108.156C176.31 108.156 175.591 107.99 174.977 107.656C174.367 107.318 173.893 106.823 173.555 106.172C173.216 105.521 173.047 104.724 173.047 103.781C173.047 102.859 173.201 102.062 173.508 101.391C173.82 100.714 174.258 100.193 174.82 99.8281C175.388 99.4635 176.055 99.2812 176.82 99.2812ZM176.805 100.344C176.112 100.344 175.56 100.57 175.148 101.023C174.737 101.477 174.492 102.109 174.414 102.922H178.945C178.94 102.411 178.859 101.964 178.703 101.578C178.552 101.188 178.32 100.885 178.008 100.672C177.695 100.453 177.294 100.344 176.805 100.344ZM189.312 101.586C189.312 102.122 189.156 102.542 188.844 102.844C188.531 103.141 188.128 103.341 187.633 103.445V103.508C188.169 103.581 188.63 103.773 189.016 104.086C189.406 104.393 189.602 104.865 189.602 105.5C189.602 105.99 189.484 106.422 189.25 106.797C189.016 107.172 188.648 107.466 188.148 107.68C187.648 107.893 186.997 108 186.195 108H182.508V99.4375H186.164C186.779 99.4375 187.32 99.5078 187.789 99.6484C188.263 99.7839 188.635 100.008 188.906 100.32C189.177 100.633 189.312 101.055 189.312 101.586ZM188.25 105.5C188.25 104.995 188.057 104.63 187.672 104.406C187.292 104.182 186.737 104.07 186.008 104.07H183.812V106.945H186.039C186.758 106.945 187.305 106.836 187.68 106.617C188.06 106.393 188.25 106.021 188.25 105.5ZM187.992 101.734C187.992 101.328 187.844 101.026 187.547 100.828C187.25 100.625 186.763 100.523 186.086 100.523H183.812V102.984H185.859C186.562 102.984 187.094 102.883 187.453 102.68C187.812 102.477 187.992 102.161 187.992 101.734ZM199.078 103.703C199.078 104.406 198.987 105.034 198.805 105.586C198.622 106.138 198.359 106.604 198.016 106.984C197.672 107.365 197.255 107.656 196.766 107.859C196.281 108.057 195.732 108.156 195.117 108.156C194.544 108.156 194.018 108.057 193.539 107.859C193.065 107.656 192.654 107.365 192.305 106.984C191.961 106.604 191.693 106.138 191.5 105.586C191.312 105.034 191.219 104.406 191.219 103.703C191.219 102.766 191.378 101.969 191.695 101.312C192.013 100.651 192.466 100.148 193.055 99.8047C193.648 99.4557 194.354 99.2812 195.172 99.2812C195.953 99.2812 196.635 99.4557 197.219 99.8047C197.807 100.154 198.263 100.659 198.586 101.32C198.914 101.977 199.078 102.771 199.078 103.703ZM192.562 103.703C192.562 104.391 192.654 104.987 192.836 105.492C193.018 105.997 193.299 106.388 193.68 106.664C194.06 106.94 194.549 107.078 195.148 107.078C195.742 107.078 196.229 106.94 196.609 106.664C196.995 106.388 197.279 105.997 197.461 105.492C197.643 104.987 197.734 104.391 197.734 103.703C197.734 103.021 197.643 102.432 197.461 101.938C197.279 101.438 196.997 101.052 196.617 100.781C196.237 100.51 195.745 100.375 195.141 100.375C194.25 100.375 193.596 100.669 193.18 101.258C192.768 101.846 192.562 102.661 192.562 103.703ZM202.492 104.828H201.641L201.281 96.5781H202.852L202.492 104.828ZM201.125 107.188C201.125 106.823 201.214 106.565 201.391 106.414C201.568 106.258 201.789 106.18 202.055 106.18C202.315 106.18 202.534 106.258 202.711 106.414C202.893 106.565 202.984 106.823 202.984 107.188C202.984 107.547 202.893 107.81 202.711 107.977C202.534 108.138 202.315 108.219 202.055 108.219C201.789 108.219 201.568 108.138 201.391 107.977C201.214 107.81 201.125 107.547 201.125 107.188ZM214.789 97.5859C214.159 97.5859 213.591 97.6953 213.086 97.9141C212.586 98.1276 212.159 98.4401 211.805 98.8516C211.456 99.2578 211.188 99.75 211 100.328C210.812 100.906 210.719 101.557 210.719 102.281C210.719 103.24 210.867 104.073 211.164 104.781C211.466 105.484 211.914 106.029 212.508 106.414C213.107 106.799 213.854 106.992 214.75 106.992C215.26 106.992 215.74 106.951 216.188 106.867C216.641 106.779 217.081 106.669 217.508 106.539V107.695C217.091 107.852 216.654 107.966 216.195 108.039C215.737 108.117 215.193 108.156 214.562 108.156C213.401 108.156 212.43 107.917 211.648 107.438C210.872 106.953 210.289 106.271 209.898 105.391C209.513 104.51 209.32 103.471 209.32 102.273C209.32 101.409 209.44 100.62 209.68 99.9062C209.924 99.1875 210.279 98.5677 210.742 98.0469C211.211 97.526 211.784 97.125 212.461 96.8438C213.143 96.5573 213.924 96.4141 214.805 96.4141C215.383 96.4141 215.94 96.4714 216.477 96.5859C217.013 96.7005 217.497 96.8646 217.93 97.0781L217.398 98.2031C217.034 98.0365 216.633 97.8932 216.195 97.7734C215.763 97.6484 215.294 97.5859 214.789 97.5859ZM226.961 99.4375V108H225.656V100.555H221.094V108H219.789V99.4375H226.961ZM232.914 99.2969C233.935 99.2969 234.693 99.526 235.188 99.9844C235.682 100.443 235.93 101.174 235.93 102.18V108H234.984L234.734 106.734H234.672C234.432 107.047 234.182 107.31 233.922 107.523C233.661 107.732 233.359 107.891 233.016 108C232.677 108.104 232.26 108.156 231.766 108.156C231.245 108.156 230.781 108.065 230.375 107.883C229.974 107.701 229.656 107.424 229.422 107.055C229.193 106.685 229.078 106.216 229.078 105.648C229.078 104.794 229.417 104.138 230.094 103.68C230.771 103.221 231.802 102.971 233.188 102.93L234.664 102.867V102.344C234.664 101.604 234.505 101.086 234.188 100.789C233.87 100.492 233.422 100.344 232.844 100.344C232.396 100.344 231.969 100.409 231.562 100.539C231.156 100.669 230.771 100.823 230.406 101L230.008 100.016C230.393 99.8177 230.836 99.6484 231.336 99.5078C231.836 99.3672 232.362 99.2969 232.914 99.2969ZM234.648 103.781L233.344 103.836C232.276 103.878 231.523 104.052 231.086 104.359C230.648 104.667 230.43 105.102 230.43 105.664C230.43 106.154 230.578 106.516 230.875 106.75C231.172 106.984 231.565 107.102 232.055 107.102C232.815 107.102 233.438 106.891 233.922 106.469C234.406 106.047 234.648 105.414 234.648 104.57V103.781ZM242.031 108.156C241.26 108.156 240.581 107.997 239.992 107.68C239.404 107.362 238.945 106.878 238.617 106.227C238.289 105.576 238.125 104.755 238.125 103.766C238.125 102.729 238.297 101.883 238.641 101.227C238.99 100.565 239.469 100.076 240.078 99.7578C240.688 99.4401 241.38 99.2812 242.156 99.2812C242.583 99.2812 242.995 99.3255 243.391 99.4141C243.792 99.4974 244.12 99.6042 244.375 99.7344L243.984 100.82C243.724 100.716 243.422 100.622 243.078 100.539C242.74 100.456 242.422 100.414 242.125 100.414C241.531 100.414 241.036 100.542 240.641 100.797C240.25 101.052 239.956 101.427 239.758 101.922C239.565 102.417 239.469 103.026 239.469 103.75C239.469 104.443 239.562 105.034 239.75 105.523C239.943 106.013 240.227 106.388 240.602 106.648C240.982 106.904 241.456 107.031 242.023 107.031C242.477 107.031 242.885 106.984 243.25 106.891C243.615 106.792 243.945 106.677 244.242 106.547V107.703C243.956 107.849 243.635 107.961 243.281 108.039C242.932 108.117 242.516 108.156 242.031 108.156ZM247.508 99.4375V104.82C247.508 104.924 247.505 105.06 247.5 105.227C247.495 105.388 247.487 105.562 247.477 105.75C247.466 105.932 247.456 106.109 247.445 106.281C247.44 106.448 247.432 106.586 247.422 106.695L252.094 99.4375H253.688V108H252.477V102.75C252.477 102.583 252.479 102.37 252.484 102.109C252.49 101.849 252.497 101.594 252.508 101.344C252.518 101.089 252.526 100.891 252.531 100.75L247.875 108H246.273V99.4375H247.508ZM256 102.859C256 101.641 256.117 100.602 256.352 99.7422C256.586 98.8776 256.948 98.1849 257.438 97.6641C257.932 97.138 258.568 96.7786 259.344 96.5859C260.01 96.4036 260.688 96.2474 261.375 96.1172C262.062 95.9818 262.732 95.8646 263.383 95.7656L263.609 96.9062C263.281 96.9531 262.938 97.0078 262.578 97.0703C262.219 97.1276 261.859 97.1901 261.5 97.2578C261.141 97.3203 260.802 97.388 260.484 97.4609C260.167 97.5286 259.885 97.599 259.641 97.6719C259.198 97.7917 258.815 98 258.492 98.2969C258.174 98.5938 257.922 99.0026 257.734 99.5234C257.552 100.044 257.443 100.701 257.406 101.492H257.5C257.656 101.263 257.87 101.036 258.141 100.812C258.411 100.589 258.734 100.404 259.109 100.258C259.484 100.107 259.906 100.031 260.375 100.031C261.115 100.031 261.732 100.193 262.227 100.516C262.721 100.833 263.094 101.281 263.344 101.859C263.594 102.438 263.719 103.115 263.719 103.891C263.719 104.823 263.557 105.607 263.234 106.242C262.917 106.878 262.469 107.357 261.891 107.68C261.312 107.997 260.633 108.156 259.852 108.156C259.247 108.156 258.706 108.039 258.227 107.805C257.753 107.57 257.349 107.227 257.016 106.773C256.688 106.32 256.435 105.766 256.258 105.109C256.086 104.453 256 103.703 256 102.859ZM259.953 107.078C260.448 107.078 260.872 106.974 261.227 106.766C261.586 106.557 261.862 106.229 262.055 105.781C262.253 105.328 262.352 104.74 262.352 104.016C262.352 103.109 262.177 102.401 261.828 101.891C261.484 101.375 260.932 101.117 260.172 101.117C259.698 101.117 259.268 101.219 258.883 101.422C258.497 101.62 258.172 101.857 257.906 102.133C257.641 102.409 257.448 102.656 257.328 102.875C257.328 103.406 257.367 103.922 257.445 104.422C257.523 104.922 257.659 105.372 257.852 105.773C258.044 106.174 258.31 106.492 258.648 106.727C258.992 106.961 259.427 107.078 259.953 107.078ZM273.344 103.703C273.344 104.406 273.253 105.034 273.07 105.586C272.888 106.138 272.625 106.604 272.281 106.984C271.938 107.365 271.521 107.656 271.031 107.859C270.547 108.057 269.997 108.156 269.383 108.156C268.81 108.156 268.284 108.057 267.805 107.859C267.331 107.656 266.919 107.365 266.57 106.984C266.227 106.604 265.958 106.138 265.766 105.586C265.578 105.034 265.484 104.406 265.484 103.703C265.484 102.766 265.643 101.969 265.961 101.312C266.279 100.651 266.732 100.148 267.32 99.8047C267.914 99.4557 268.62 99.2812 269.438 99.2812C270.219 99.2812 270.901 99.4557 271.484 99.8047C272.073 100.154 272.529 100.659 272.852 101.32C273.18 101.977 273.344 102.771 273.344 103.703ZM266.828 103.703C266.828 104.391 266.919 104.987 267.102 105.492C267.284 105.997 267.565 106.388 267.945 106.664C268.326 106.94 268.815 107.078 269.414 107.078C270.008 107.078 270.495 106.94 270.875 106.664C271.26 106.388 271.544 105.997 271.727 105.492C271.909 104.987 272 104.391 272 103.703C272 103.021 271.909 102.432 271.727 101.938C271.544 101.438 271.263 101.052 270.883 100.781C270.503 100.51 270.01 100.375 269.406 100.375C268.516 100.375 267.862 100.669 267.445 101.258C267.034 101.846 266.828 102.661 266.828 103.703ZM281.945 99.2812C282.586 99.2812 283.141 99.3698 283.609 99.5469C284.078 99.7188 284.44 99.9714 284.695 100.305C284.951 100.638 285.078 101.044 285.078 101.523C285.078 102.039 284.938 102.451 284.656 102.758C284.375 103.065 283.987 103.286 283.492 103.422V103.484C283.841 103.578 284.156 103.714 284.438 103.891C284.724 104.062 284.951 104.292 285.117 104.578C285.289 104.859 285.375 105.211 285.375 105.633C285.375 106.112 285.245 106.544 284.984 106.93C284.724 107.31 284.328 107.609 283.797 107.828C283.266 108.047 282.594 108.156 281.781 108.156C281.38 108.156 281 108.133 280.641 108.086C280.281 108.044 279.956 107.982 279.664 107.898C279.372 107.815 279.117 107.716 278.898 107.602V106.422C279.263 106.599 279.69 106.755 280.18 106.891C280.669 107.026 281.198 107.094 281.766 107.094C282.203 107.094 282.596 107.044 282.945 106.945C283.294 106.841 283.57 106.677 283.773 106.453C283.982 106.224 284.086 105.924 284.086 105.555C284.086 105.216 283.995 104.938 283.812 104.719C283.63 104.495 283.357 104.331 282.992 104.227C282.633 104.117 282.177 104.062 281.625 104.062H280.477V103H281.422C282.156 103 282.742 102.896 283.18 102.688C283.617 102.479 283.836 102.128 283.836 101.633C283.836 101.206 283.667 100.888 283.328 100.68C282.99 100.466 282.505 100.359 281.875 100.359C281.406 100.359 280.992 100.409 280.633 100.508C280.273 100.602 279.885 100.737 279.469 100.914L279.008 99.875C279.456 99.6771 279.924 99.5286 280.414 99.4297C280.904 99.3307 281.414 99.2812 281.945 99.2812ZM290.68 99.2969C291.701 99.2969 292.458 99.526 292.953 99.9844C293.448 100.443 293.695 101.174 293.695 102.18V108H292.75L292.5 106.734H292.438C292.198 107.047 291.948 107.31 291.688 107.523C291.427 107.732 291.125 107.891 290.781 108C290.443 108.104 290.026 108.156 289.531 108.156C289.01 108.156 288.547 108.065 288.141 107.883C287.74 107.701 287.422 107.424 287.188 107.055C286.958 106.685 286.844 106.216 286.844 105.648C286.844 104.794 287.182 104.138 287.859 103.68C288.536 103.221 289.568 102.971 290.953 102.93L292.43 102.867V102.344C292.43 101.604 292.271 101.086 291.953 100.789C291.635 100.492 291.188 100.344 290.609 100.344C290.161 100.344 289.734 100.409 289.328 100.539C288.922 100.669 288.536 100.823 288.172 101L287.773 100.016C288.159 99.8177 288.602 99.6484 289.102 99.5078C289.602 99.3672 290.128 99.2969 290.68 99.2969ZM292.414 103.781L291.109 103.836C290.042 103.878 289.289 104.052 288.852 104.359C288.414 104.667 288.195 105.102 288.195 105.664C288.195 106.154 288.344 106.516 288.641 106.75C288.938 106.984 289.331 107.102 289.82 107.102C290.581 107.102 291.203 106.891 291.688 106.469C292.172 106.047 292.414 105.414 292.414 104.57V103.781ZM306.359 100.539H303.539V108H302.258V100.539H299.477V99.4375H306.359V100.539ZM311.258 99.2969C312.279 99.2969 313.036 99.526 313.531 99.9844C314.026 100.443 314.273 101.174 314.273 102.18V108H313.328L313.078 106.734H313.016C312.776 107.047 312.526 107.31 312.266 107.523C312.005 107.732 311.703 107.891 311.359 108C311.021 108.104 310.604 108.156 310.109 108.156C309.589 108.156 309.125 108.065 308.719 107.883C308.318 107.701 308 107.424 307.766 107.055C307.536 106.685 307.422 106.216 307.422 105.648C307.422 104.794 307.76 104.138 308.438 103.68C309.115 103.221 310.146 102.971 311.531 102.93L313.008 102.867V102.344C313.008 101.604 312.849 101.086 312.531 100.789C312.214 100.492 311.766 100.344 311.188 100.344C310.74 100.344 310.312 100.409 309.906 100.539C309.5 100.669 309.115 100.823 308.75 101L308.352 100.016C308.737 99.8177 309.18 99.6484 309.68 99.5078C310.18 99.3672 310.706 99.2969 311.258 99.2969ZM312.992 103.781L311.688 103.836C310.62 103.878 309.867 104.052 309.43 104.359C308.992 104.667 308.773 105.102 308.773 105.664C308.773 106.154 308.922 106.516 309.219 106.75C309.516 106.984 309.909 107.102 310.398 107.102C311.159 107.102 311.781 106.891 312.266 106.469C312.75 106.047 312.992 105.414 312.992 104.57V103.781ZM321.938 99.4375H323.367L319.672 103.57L323.664 108H322.141L318.25 103.656V108H316.945V99.4375H318.25V103.594L321.938 99.4375ZM323.859 99.4375H325.25L327.141 104.406C327.25 104.698 327.352 104.979 327.445 105.25C327.539 105.516 327.622 105.771 327.695 106.016C327.768 106.26 327.826 106.497 327.867 106.727H327.922C327.995 106.466 328.099 106.125 328.234 105.703C328.37 105.276 328.516 104.841 328.672 104.398L330.461 99.4375H331.859L328.133 109.258C327.935 109.784 327.703 110.242 327.438 110.633C327.177 111.023 326.859 111.323 326.484 111.531C326.109 111.745 325.656 111.852 325.125 111.852C324.88 111.852 324.664 111.836 324.477 111.805C324.289 111.779 324.128 111.747 323.992 111.711V110.672C324.107 110.698 324.245 110.721 324.406 110.742C324.573 110.763 324.745 110.773 324.922 110.773C325.245 110.773 325.523 110.711 325.758 110.586C325.997 110.466 326.203 110.289 326.375 110.055C326.547 109.82 326.695 109.542 326.82 109.219L327.289 108.016L323.859 99.4375ZM344.234 103.703C344.234 104.635 344.083 105.435 343.781 106.102C343.484 106.768 343.057 107.279 342.5 107.633C341.943 107.982 341.276 108.156 340.5 108.156C339.776 108.156 339.143 108 338.602 107.688C338.065 107.375 337.641 106.919 337.328 106.32C337.021 105.721 336.844 104.992 336.797 104.133H334.523V108H333.227V99.4375H334.523V103.031H336.812C336.885 102.24 337.078 101.565 337.391 101.008C337.703 100.451 338.125 100.023 338.656 99.7266C339.188 99.4297 339.812 99.2812 340.531 99.2812C341.281 99.2812 341.932 99.4583 342.484 99.8125C343.042 100.161 343.471 100.667 343.773 101.328C344.081 101.984 344.234 102.776 344.234 103.703ZM338.125 103.703C338.125 104.422 338.206 105.034 338.367 105.539C338.534 106.039 338.792 106.422 339.141 106.688C339.495 106.948 339.953 107.078 340.516 107.078C341.073 107.078 341.526 106.948 341.875 106.688C342.229 106.427 342.487 106.047 342.648 105.547C342.815 105.042 342.898 104.427 342.898 103.703C342.898 102.99 342.815 102.385 342.648 101.891C342.482 101.396 342.224 101.021 341.875 100.766C341.526 100.505 341.073 100.375 340.516 100.375C339.958 100.375 339.503 100.505 339.148 100.766C338.799 101.021 338.542 101.396 338.375 101.891C338.208 102.385 338.125 102.99 338.125 103.703ZM30.3594 123.438H31.7891L28.0938 127.57L32.0859 132H30.5625L26.6719 127.656V132H25.3672V123.438H26.6719V127.594L30.3594 123.438ZM37.6562 123.281C38.724 123.281 39.5755 123.648 40.2109 124.383C40.8464 125.117 41.1641 126.221 41.1641 127.695C41.1641 128.669 41.0182 129.487 40.7266 130.148C40.4349 130.81 40.0234 131.31 39.4922 131.648C38.9661 131.987 38.3438 132.156 37.625 132.156C37.1719 132.156 36.7734 132.096 36.4297 131.977C36.0859 131.857 35.7917 131.695 35.5469 131.492C35.3021 131.289 35.099 131.068 34.9375 130.828H34.8438C34.8594 131.031 34.8776 131.276 34.8984 131.562C34.9245 131.849 34.9375 132.099 34.9375 132.312V135.828H33.6328V123.438H34.7031L34.875 124.703H34.9375C35.1042 124.443 35.3073 124.206 35.5469 123.992C35.7865 123.773 36.0781 123.602 36.4219 123.477C36.7708 123.346 37.1823 123.281 37.6562 123.281ZM37.4297 124.375C36.8359 124.375 36.3568 124.49 35.9922 124.719C35.6328 124.948 35.3698 125.292 35.2031 125.75C35.0365 126.203 34.9479 126.773 34.9375 127.461V127.711C34.9375 128.435 35.0156 129.047 35.1719 129.547C35.3333 130.047 35.5964 130.427 35.9609 130.688C36.3307 130.948 36.8255 131.078 37.4453 131.078C37.9766 131.078 38.4193 130.935 38.7734 130.648C39.1276 130.362 39.3906 129.964 39.5625 129.453C39.7396 128.938 39.8281 128.346 39.8281 127.68C39.8281 126.669 39.6302 125.867 39.2344 125.273C38.8438 124.674 38.2422 124.375 37.4297 124.375ZM46.6328 123.297C47.6536 123.297 48.4115 123.526 48.9062 123.984C49.401 124.443 49.6484 125.174 49.6484 126.18V132H48.7031L48.4531 130.734H48.3906C48.151 131.047 47.901 131.31 47.6406 131.523C47.3802 131.732 47.0781 131.891 46.7344 132C46.3958 132.104 45.9792 132.156 45.4844 132.156C44.9635 132.156 44.5 132.065 44.0938 131.883C43.6927 131.701 43.375 131.424 43.1406 131.055C42.9115 130.685 42.7969 130.216 42.7969 129.648C42.7969 128.794 43.1354 128.138 43.8125 127.68C44.4896 127.221 45.5208 126.971 46.9062 126.93L48.3828 126.867V126.344C48.3828 125.604 48.224 125.086 47.9062 124.789C47.5885 124.492 47.1406 124.344 46.5625 124.344C46.1146 124.344 45.6875 124.409 45.2812 124.539C44.875 124.669 44.4896 124.823 44.125 125L43.7266 124.016C44.112 123.818 44.5547 123.648 45.0547 123.508C45.5547 123.367 46.0807 123.297 46.6328 123.297ZM48.3672 127.781L47.0625 127.836C45.9948 127.878 45.2422 128.052 44.8047 128.359C44.3672 128.667 44.1484 129.102 44.1484 129.664C44.1484 130.154 44.2969 130.516 44.5938 130.75C44.8906 130.984 45.2839 131.102 45.7734 131.102C46.5339 131.102 47.1562 130.891 47.6406 130.469C48.125 130.047 48.3672 129.414 48.3672 128.57V127.781ZM55.75 132.156C54.9792 132.156 54.2995 131.997 53.7109 131.68C53.1224 131.362 52.6641 130.878 52.3359 130.227C52.0078 129.576 51.8438 128.755 51.8438 127.766C51.8438 126.729 52.0156 125.883 52.3594 125.227C52.7083 124.565 53.1875 124.076 53.7969 123.758C54.4062 123.44 55.099 123.281 55.875 123.281C56.3021 123.281 56.7135 123.326 57.1094 123.414C57.5104 123.497 57.8385 123.604 58.0938 123.734L57.7031 124.82C57.4427 124.716 57.1406 124.622 56.7969 124.539C56.4583 124.456 56.1406 124.414 55.8438 124.414C55.25 124.414 54.7552 124.542 54.3594 124.797C53.9688 125.052 53.6745 125.427 53.4766 125.922C53.2839 126.417 53.1875 127.026 53.1875 127.75C53.1875 128.443 53.2812 129.034 53.4688 129.523C53.6615 130.013 53.9453 130.388 54.3203 130.648C54.7005 130.904 55.1745 131.031 55.7422 131.031C56.1953 131.031 56.6042 130.984 56.9688 130.891C57.3333 130.792 57.6641 130.677 57.9609 130.547V131.703C57.6745 131.849 57.3542 131.961 57 132.039C56.651 132.117 56.2344 132.156 55.75 132.156ZM67.375 127.703C67.375 128.406 67.2839 129.034 67.1016 129.586C66.9193 130.138 66.6562 130.604 66.3125 130.984C65.9688 131.365 65.5521 131.656 65.0625 131.859C64.5781 132.057 64.0286 132.156 63.4141 132.156C62.8411 132.156 62.3151 132.057 61.8359 131.859C61.362 131.656 60.9505 131.365 60.6016 130.984C60.2578 130.604 59.9896 130.138 59.7969 129.586C59.6094 129.034 59.5156 128.406 59.5156 127.703C59.5156 126.766 59.6745 125.969 59.9922 125.312C60.3099 124.651 60.763 124.148 61.3516 123.805C61.9453 123.456 62.651 123.281 63.4688 123.281C64.25 123.281 64.9323 123.456 65.5156 123.805C66.1042 124.154 66.5599 124.659 66.8828 125.32C67.2109 125.977 67.375 126.771 67.375 127.703ZM60.8594 127.703C60.8594 128.391 60.9505 128.987 61.1328 129.492C61.3151 129.997 61.5964 130.388 61.9766 130.664C62.3568 130.94 62.8464 131.078 63.4453 131.078C64.0391 131.078 64.526 130.94 64.9062 130.664C65.2917 130.388 65.5755 129.997 65.7578 129.492C65.9401 128.987 66.0312 128.391 66.0312 127.703C66.0312 127.021 65.9401 126.432 65.7578 125.938C65.5755 125.438 65.2943 125.052 64.9141 124.781C64.5339 124.51 64.0417 124.375 63.4375 124.375C62.5469 124.375 61.8932 124.669 61.4766 125.258C61.0651 125.846 60.8594 126.661 60.8594 127.703ZM75.4531 124.539H72.6328V132H71.3516V124.539H68.5703V123.438H75.4531V124.539ZM75.7969 123.438H77.1875L79.0781 128.406C79.1875 128.698 79.2891 128.979 79.3828 129.25C79.4766 129.516 79.5599 129.771 79.6328 130.016C79.7057 130.26 79.763 130.497 79.8047 130.727H79.8594C79.9323 130.466 80.0365 130.125 80.1719 129.703C80.3073 129.276 80.4531 128.841 80.6094 128.398L82.3984 123.438H83.7969L80.0703 133.258C79.8724 133.784 79.6406 134.242 79.375 134.633C79.1146 135.023 78.7969 135.323 78.4219 135.531C78.0469 135.745 77.5938 135.852 77.0625 135.852C76.8177 135.852 76.6016 135.836 76.4141 135.805C76.2266 135.779 76.0651 135.747 75.9297 135.711V134.672C76.0443 134.698 76.1823 134.721 76.3438 134.742C76.5104 134.763 76.6823 134.773 76.8594 134.773C77.1823 134.773 77.4609 134.711 77.6953 134.586C77.9349 134.466 78.1406 134.289 78.3125 134.055C78.4844 133.82 78.6328 133.542 78.7578 133.219L79.2266 132.016L75.7969 123.438ZM84.9688 131.188C84.9688 130.823 85.0573 130.565 85.2344 130.414C85.4115 130.258 85.6276 130.18 85.8828 130.18C86.1484 130.18 86.3724 130.258 86.5547 130.414C86.737 130.565 86.8281 130.823 86.8281 131.188C86.8281 131.547 86.737 131.81 86.5547 131.977C86.3724 132.138 86.1484 132.219 85.8828 132.219C85.6276 132.219 85.4115 132.138 85.2344 131.977C85.0573 131.81 84.9688 131.547 84.9688 131.188ZM97.2266 132H95.8906V121.75H92.2969V120.578H100.805V121.75H97.2266V132ZM105.633 123.281C106.362 123.281 106.987 123.443 107.508 123.766C108.029 124.089 108.427 124.542 108.703 125.125C108.979 125.703 109.117 126.38 109.117 127.156V127.961H103.203C103.219 128.966 103.469 129.732 103.953 130.258C104.438 130.784 105.12 131.047 106 131.047C106.542 131.047 107.021 130.997 107.438 130.898C107.854 130.799 108.286 130.654 108.734 130.461V131.602C108.302 131.794 107.872 131.935 107.445 132.023C107.023 132.112 106.523 132.156 105.945 132.156C105.122 132.156 104.404 131.99 103.789 131.656C103.18 131.318 102.706 130.823 102.367 130.172C102.029 129.521 101.859 128.724 101.859 127.781C101.859 126.859 102.013 126.062 102.32 125.391C102.633 124.714 103.07 124.193 103.633 123.828C104.201 123.464 104.867 123.281 105.633 123.281ZM105.617 124.344C104.924 124.344 104.372 124.57 103.961 125.023C103.549 125.477 103.305 126.109 103.227 126.922H107.758C107.753 126.411 107.672 125.964 107.516 125.578C107.365 125.188 107.133 124.885 106.82 124.672C106.508 124.453 106.107 124.344 105.617 124.344ZM118.492 123.438V132H117.188V124.555H112.625V132H111.32V123.438H118.492ZM124.539 123.281C125.268 123.281 125.893 123.443 126.414 123.766C126.935 124.089 127.333 124.542 127.609 125.125C127.885 125.703 128.023 126.38 128.023 127.156V127.961H122.109C122.125 128.966 122.375 129.732 122.859 130.258C123.344 130.784 124.026 131.047 124.906 131.047C125.448 131.047 125.927 130.997 126.344 130.898C126.76 130.799 127.193 130.654 127.641 130.461V131.602C127.208 131.794 126.779 131.935 126.352 132.023C125.93 132.112 125.43 132.156 124.852 132.156C124.029 132.156 123.31 131.99 122.695 131.656C122.086 131.318 121.612 130.823 121.273 130.172C120.935 129.521 120.766 128.724 120.766 127.781C120.766 126.859 120.919 126.062 121.227 125.391C121.539 124.714 121.977 124.193 122.539 123.828C123.107 123.464 123.773 123.281 124.539 123.281ZM124.523 124.344C123.831 124.344 123.279 124.57 122.867 125.023C122.456 125.477 122.211 126.109 122.133 126.922H126.664C126.659 126.411 126.578 125.964 126.422 125.578C126.271 125.188 126.039 124.885 125.727 124.672C125.414 124.453 125.013 124.344 124.523 124.344ZM134.25 123.281C135.318 123.281 136.169 123.648 136.805 124.383C137.44 125.117 137.758 126.221 137.758 127.695C137.758 128.669 137.612 129.487 137.32 130.148C137.029 130.81 136.617 131.31 136.086 131.648C135.56 131.987 134.938 132.156 134.219 132.156C133.766 132.156 133.367 132.096 133.023 131.977C132.68 131.857 132.385 131.695 132.141 131.492C131.896 131.289 131.693 131.068 131.531 130.828H131.438C131.453 131.031 131.471 131.276 131.492 131.562C131.518 131.849 131.531 132.099 131.531 132.312V135.828H130.227V123.438H131.297L131.469 124.703H131.531C131.698 124.443 131.901 124.206 132.141 123.992C132.38 123.773 132.672 123.602 133.016 123.477C133.365 123.346 133.776 123.281 134.25 123.281ZM134.023 124.375C133.43 124.375 132.951 124.49 132.586 124.719C132.227 124.948 131.964 125.292 131.797 125.75C131.63 126.203 131.542 126.773 131.531 127.461V127.711C131.531 128.435 131.609 129.047 131.766 129.547C131.927 130.047 132.19 130.427 132.555 130.688C132.924 130.948 133.419 131.078 134.039 131.078C134.57 131.078 135.013 130.935 135.367 130.648C135.721 130.362 135.984 129.964 136.156 129.453C136.333 128.938 136.422 128.346 136.422 127.68C136.422 126.669 136.224 125.867 135.828 125.273C135.438 124.674 134.836 124.375 134.023 124.375ZM141.328 126.969H143.953C144.682 126.969 145.289 127.06 145.773 127.242C146.258 127.424 146.62 127.695 146.859 128.055C147.104 128.414 147.227 128.859 147.227 129.391C147.227 129.922 147.107 130.383 146.867 130.773C146.633 131.164 146.268 131.466 145.773 131.68C145.284 131.893 144.651 132 143.875 132H140.023V123.438H141.328V126.969ZM145.922 129.453C145.922 128.927 145.734 128.562 145.359 128.359C144.99 128.151 144.471 128.047 143.805 128.047H141.328V130.945H143.812C144.438 130.945 144.945 130.831 145.336 130.602C145.727 130.367 145.922 129.984 145.922 129.453ZM153.172 126.859C153.172 125.641 153.289 124.602 153.523 123.742C153.758 122.878 154.12 122.185 154.609 121.664C155.104 121.138 155.74 120.779 156.516 120.586C157.182 120.404 157.859 120.247 158.547 120.117C159.234 119.982 159.904 119.865 160.555 119.766L160.781 120.906C160.453 120.953 160.109 121.008 159.75 121.07C159.391 121.128 159.031 121.19 158.672 121.258C158.312 121.32 157.974 121.388 157.656 121.461C157.339 121.529 157.057 121.599 156.812 121.672C156.37 121.792 155.987 122 155.664 122.297C155.346 122.594 155.094 123.003 154.906 123.523C154.724 124.044 154.615 124.701 154.578 125.492H154.672C154.828 125.263 155.042 125.036 155.312 124.812C155.583 124.589 155.906 124.404 156.281 124.258C156.656 124.107 157.078 124.031 157.547 124.031C158.286 124.031 158.904 124.193 159.398 124.516C159.893 124.833 160.266 125.281 160.516 125.859C160.766 126.438 160.891 127.115 160.891 127.891C160.891 128.823 160.729 129.607 160.406 130.242C160.089 130.878 159.641 131.357 159.062 131.68C158.484 131.997 157.805 132.156 157.023 132.156C156.419 132.156 155.878 132.039 155.398 131.805C154.924 131.57 154.521 131.227 154.188 130.773C153.859 130.32 153.607 129.766 153.43 129.109C153.258 128.453 153.172 127.703 153.172 126.859ZM157.125 131.078C157.62 131.078 158.044 130.974 158.398 130.766C158.758 130.557 159.034 130.229 159.227 129.781C159.424 129.328 159.523 128.74 159.523 128.016C159.523 127.109 159.349 126.401 159 125.891C158.656 125.375 158.104 125.117 157.344 125.117C156.87 125.117 156.44 125.219 156.055 125.422C155.669 125.62 155.344 125.857 155.078 126.133C154.812 126.409 154.62 126.656 154.5 126.875C154.5 127.406 154.539 127.922 154.617 128.422C154.695 128.922 154.831 129.372 155.023 129.773C155.216 130.174 155.482 130.492 155.82 130.727C156.164 130.961 156.599 131.078 157.125 131.078ZM161.781 123.438H163.172L165.062 128.406C165.172 128.698 165.273 128.979 165.367 129.25C165.461 129.516 165.544 129.771 165.617 130.016C165.69 130.26 165.747 130.497 165.789 130.727H165.844C165.917 130.466 166.021 130.125 166.156 129.703C166.292 129.276 166.438 128.841 166.594 128.398L168.383 123.438H169.781L166.055 133.258C165.857 133.784 165.625 134.242 165.359 134.633C165.099 135.023 164.781 135.323 164.406 135.531C164.031 135.745 163.578 135.852 163.047 135.852C162.802 135.852 162.586 135.836 162.398 135.805C162.211 135.779 162.049 135.747 161.914 135.711V134.672C162.029 134.698 162.167 134.721 162.328 134.742C162.495 134.763 162.667 134.773 162.844 134.773C163.167 134.773 163.445 134.711 163.68 134.586C163.919 134.466 164.125 134.289 164.297 134.055C164.469 133.82 164.617 133.542 164.742 133.219L165.211 132.016L161.781 123.438ZM177.422 123.438V130.898H178.648V134.961H177.391V132H171.328V134.961H170.086V130.898H170.758C171.247 130.221 171.654 129.479 171.977 128.672C172.299 127.865 172.544 127.018 172.711 126.133C172.878 125.242 172.966 124.344 172.977 123.438H177.422ZM176.164 124.469H174.133C174.086 125.229 173.974 126.003 173.797 126.789C173.625 127.576 173.396 128.326 173.109 129.039C172.823 129.747 172.49 130.367 172.109 130.898H176.164V124.469ZM183.648 123.281C184.378 123.281 185.003 123.443 185.523 123.766C186.044 124.089 186.443 124.542 186.719 125.125C186.995 125.703 187.133 126.38 187.133 127.156V127.961H181.219C181.234 128.966 181.484 129.732 181.969 130.258C182.453 130.784 183.135 131.047 184.016 131.047C184.557 131.047 185.036 130.997 185.453 130.898C185.87 130.799 186.302 130.654 186.75 130.461V131.602C186.318 131.794 185.888 131.935 185.461 132.023C185.039 132.112 184.539 132.156 183.961 132.156C183.138 132.156 182.419 131.99 181.805 131.656C181.195 131.318 180.721 130.823 180.383 130.172C180.044 129.521 179.875 128.724 179.875 127.781C179.875 126.859 180.029 126.062 180.336 125.391C180.648 124.714 181.086 124.193 181.648 123.828C182.216 123.464 182.883 123.281 183.648 123.281ZM183.633 124.344C182.94 124.344 182.388 124.57 181.977 125.023C181.565 125.477 181.32 126.109 181.242 126.922H185.773C185.768 126.411 185.688 125.964 185.531 125.578C185.38 125.188 185.148 124.885 184.836 124.672C184.523 124.453 184.122 124.344 183.633 124.344ZM195.172 124.539H192.352V132H191.07V124.539H188.289V123.438H195.172V124.539ZM205.047 123.281C206.115 123.281 206.966 123.648 207.602 124.383C208.237 125.117 208.555 126.221 208.555 127.695C208.555 128.669 208.409 129.487 208.117 130.148C207.826 130.81 207.414 131.31 206.883 131.648C206.357 131.987 205.734 132.156 205.016 132.156C204.562 132.156 204.164 132.096 203.82 131.977C203.477 131.857 203.182 131.695 202.938 131.492C202.693 131.289 202.49 131.068 202.328 130.828H202.234C202.25 131.031 202.268 131.276 202.289 131.562C202.315 131.849 202.328 132.099 202.328 132.312V135.828H201.023V123.438H202.094L202.266 124.703H202.328C202.495 124.443 202.698 124.206 202.938 123.992C203.177 123.773 203.469 123.602 203.812 123.477C204.161 123.346 204.573 123.281 205.047 123.281ZM204.82 124.375C204.227 124.375 203.747 124.49 203.383 124.719C203.023 124.948 202.76 125.292 202.594 125.75C202.427 126.203 202.339 126.773 202.328 127.461V127.711C202.328 128.435 202.406 129.047 202.562 129.547C202.724 130.047 202.987 130.427 203.352 130.688C203.721 130.948 204.216 131.078 204.836 131.078C205.367 131.078 205.81 130.935 206.164 130.648C206.518 130.362 206.781 129.964 206.953 129.453C207.13 128.938 207.219 128.346 207.219 127.68C207.219 126.669 207.021 125.867 206.625 125.273C206.234 124.674 205.633 124.375 204.82 124.375ZM214.023 123.297C215.044 123.297 215.802 123.526 216.297 123.984C216.792 124.443 217.039 125.174 217.039 126.18V132H216.094L215.844 130.734H215.781C215.542 131.047 215.292 131.31 215.031 131.523C214.771 131.732 214.469 131.891 214.125 132C213.786 132.104 213.37 132.156 212.875 132.156C212.354 132.156 211.891 132.065 211.484 131.883C211.083 131.701 210.766 131.424 210.531 131.055C210.302 130.685 210.188 130.216 210.188 129.648C210.188 128.794 210.526 128.138 211.203 127.68C211.88 127.221 212.911 126.971 214.297 126.93L215.773 126.867V126.344C215.773 125.604 215.615 125.086 215.297 124.789C214.979 124.492 214.531 124.344 213.953 124.344C213.505 124.344 213.078 124.409 212.672 124.539C212.266 124.669 211.88 124.823 211.516 125L211.117 124.016C211.503 123.818 211.945 123.648 212.445 123.508C212.945 123.367 213.471 123.297 214.023 123.297ZM215.758 127.781L214.453 127.836C213.385 127.878 212.633 128.052 212.195 128.359C211.758 128.667 211.539 129.102 211.539 129.664C211.539 130.154 211.688 130.516 211.984 130.75C212.281 130.984 212.674 131.102 213.164 131.102C213.924 131.102 214.547 130.891 215.031 130.469C215.516 130.047 215.758 129.414 215.758 128.57V127.781ZM225.984 123.438V130.898H227.211V134.961H225.953V132H219.891V134.961H218.648V130.898H219.32C219.81 130.221 220.216 129.479 220.539 128.672C220.862 127.865 221.107 127.018 221.273 126.133C221.44 125.242 221.529 124.344 221.539 123.438H225.984ZM224.727 124.469H222.695C222.648 125.229 222.536 126.003 222.359 126.789C222.188 127.576 221.958 128.326 221.672 129.039C221.385 129.747 221.052 130.367 220.672 130.898H224.727V124.469ZM236.297 127.703C236.297 128.406 236.206 129.034 236.023 129.586C235.841 130.138 235.578 130.604 235.234 130.984C234.891 131.365 234.474 131.656 233.984 131.859C233.5 132.057 232.951 132.156 232.336 132.156C231.763 132.156 231.237 132.057 230.758 131.859C230.284 131.656 229.872 131.365 229.523 130.984C229.18 130.604 228.911 130.138 228.719 129.586C228.531 129.034 228.438 128.406 228.438 127.703C228.438 126.766 228.596 125.969 228.914 125.312C229.232 124.651 229.685 124.148 230.273 123.805C230.867 123.456 231.573 123.281 232.391 123.281C233.172 123.281 233.854 123.456 234.438 123.805C235.026 124.154 235.482 124.659 235.805 125.32C236.133 125.977 236.297 126.771 236.297 127.703ZM229.781 127.703C229.781 128.391 229.872 128.987 230.055 129.492C230.237 129.997 230.518 130.388 230.898 130.664C231.279 130.94 231.768 131.078 232.367 131.078C232.961 131.078 233.448 130.94 233.828 130.664C234.214 130.388 234.497 129.997 234.68 129.492C234.862 128.987 234.953 128.391 234.953 127.703C234.953 127.021 234.862 126.432 234.68 125.938C234.497 125.438 234.216 125.052 233.836 124.781C233.456 124.51 232.964 124.375 232.359 124.375C231.469 124.375 230.815 124.669 230.398 125.258C229.987 125.846 229.781 126.661 229.781 127.703ZM245.344 125.586C245.344 126.122 245.188 126.542 244.875 126.844C244.562 127.141 244.159 127.341 243.664 127.445V127.508C244.201 127.581 244.661 127.773 245.047 128.086C245.438 128.393 245.633 128.865 245.633 129.5C245.633 129.99 245.516 130.422 245.281 130.797C245.047 131.172 244.68 131.466 244.18 131.68C243.68 131.893 243.029 132 242.227 132H238.539V123.438H242.195C242.81 123.438 243.352 123.508 243.82 123.648C244.294 123.784 244.667 124.008 244.938 124.32C245.208 124.633 245.344 125.055 245.344 125.586ZM244.281 129.5C244.281 128.995 244.089 128.63 243.703 128.406C243.323 128.182 242.768 128.07 242.039 128.07H239.844V130.945H242.07C242.789 130.945 243.336 130.836 243.711 130.617C244.091 130.393 244.281 130.021 244.281 129.5ZM244.023 125.734C244.023 125.328 243.875 125.026 243.578 124.828C243.281 124.625 242.794 124.523 242.117 124.523H239.844V126.984H241.891C242.594 126.984 243.125 126.883 243.484 126.68C243.844 126.477 244.023 126.161 244.023 125.734ZM250.93 123.297C251.951 123.297 252.708 123.526 253.203 123.984C253.698 124.443 253.945 125.174 253.945 126.18V132H253L252.75 130.734H252.688C252.448 131.047 252.198 131.31 251.938 131.523C251.677 131.732 251.375 131.891 251.031 132C250.693 132.104 250.276 132.156 249.781 132.156C249.26 132.156 248.797 132.065 248.391 131.883C247.99 131.701 247.672 131.424 247.438 131.055C247.208 130.685 247.094 130.216 247.094 129.648C247.094 128.794 247.432 128.138 248.109 127.68C248.786 127.221 249.818 126.971 251.203 126.93L252.68 126.867V126.344C252.68 125.604 252.521 125.086 252.203 124.789C251.885 124.492 251.438 124.344 250.859 124.344C250.411 124.344 249.984 124.409 249.578 124.539C249.172 124.669 248.786 124.823 248.422 125L248.023 124.016C248.409 123.818 248.852 123.648 249.352 123.508C249.852 123.367 250.378 123.297 250.93 123.297ZM252.664 127.781L251.359 127.836C250.292 127.878 249.539 128.052 249.102 128.359C248.664 128.667 248.445 129.102 248.445 129.664C248.445 130.154 248.594 130.516 248.891 130.75C249.188 130.984 249.581 131.102 250.07 131.102C250.831 131.102 251.453 130.891 251.938 130.469C252.422 130.047 252.664 129.414 252.664 128.57V127.781ZM262.453 124.539H259.633V132H258.352V124.539H255.57V123.438H262.453V124.539ZM265.453 126.969H268.078C268.807 126.969 269.414 127.06 269.898 127.242C270.383 127.424 270.745 127.695 270.984 128.055C271.229 128.414 271.352 128.859 271.352 129.391C271.352 129.922 271.232 130.383 270.992 130.773C270.758 131.164 270.393 131.466 269.898 131.68C269.409 131.893 268.776 132 268 132H264.148V123.438H265.453V126.969ZM270.047 129.453C270.047 128.927 269.859 128.562 269.484 128.359C269.115 128.151 268.596 128.047 267.93 128.047H265.453V130.945H267.938C268.562 130.945 269.07 130.831 269.461 130.602C269.852 130.367 270.047 129.984 270.047 129.453ZM279.047 123.438V127.031H283.82V123.438H285.117V132H283.82V128.133H279.047V132H277.742V123.438H279.047ZM291.07 123.297C292.091 123.297 292.849 123.526 293.344 123.984C293.839 124.443 294.086 125.174 294.086 126.18V132H293.141L292.891 130.734H292.828C292.589 131.047 292.339 131.31 292.078 131.523C291.818 131.732 291.516 131.891 291.172 132C290.833 132.104 290.417 132.156 289.922 132.156C289.401 132.156 288.938 132.065 288.531 131.883C288.13 131.701 287.812 131.424 287.578 131.055C287.349 130.685 287.234 130.216 287.234 129.648C287.234 128.794 287.573 128.138 288.25 127.68C288.927 127.221 289.958 126.971 291.344 126.93L292.82 126.867V126.344C292.82 125.604 292.661 125.086 292.344 124.789C292.026 124.492 291.578 124.344 291 124.344C290.552 124.344 290.125 124.409 289.719 124.539C289.312 124.669 288.927 124.823 288.562 125L288.164 124.016C288.549 123.818 288.992 123.648 289.492 123.508C289.992 123.367 290.518 123.297 291.07 123.297ZM292.805 127.781L291.5 127.836C290.432 127.878 289.68 128.052 289.242 128.359C288.805 128.667 288.586 129.102 288.586 129.664C288.586 130.154 288.734 130.516 289.031 130.75C289.328 130.984 289.721 131.102 290.211 131.102C290.971 131.102 291.594 130.891 292.078 130.469C292.562 130.047 292.805 129.414 292.805 128.57V127.781ZM300.188 132.156C299.417 132.156 298.737 131.997 298.148 131.68C297.56 131.362 297.102 130.878 296.773 130.227C296.445 129.576 296.281 128.755 296.281 127.766C296.281 126.729 296.453 125.883 296.797 125.227C297.146 124.565 297.625 124.076 298.234 123.758C298.844 123.44 299.536 123.281 300.312 123.281C300.74 123.281 301.151 123.326 301.547 123.414C301.948 123.497 302.276 123.604 302.531 123.734L302.141 124.82C301.88 124.716 301.578 124.622 301.234 124.539C300.896 124.456 300.578 124.414 300.281 124.414C299.688 124.414 299.193 124.542 298.797 124.797C298.406 125.052 298.112 125.427 297.914 125.922C297.721 126.417 297.625 127.026 297.625 127.75C297.625 128.443 297.719 129.034 297.906 129.523C298.099 130.013 298.383 130.388 298.758 130.648C299.138 130.904 299.612 131.031 300.18 131.031C300.633 131.031 301.042 130.984 301.406 130.891C301.771 130.792 302.102 130.677 302.398 130.547V131.703C302.112 131.849 301.792 131.961 301.438 132.039C301.089 132.117 300.672 132.156 300.188 132.156ZM314.859 123.438V130.898H316.086V134.961H314.828V132H308.766V134.961H307.523V130.898H308.195C308.685 130.221 309.091 129.479 309.414 128.672C309.737 127.865 309.982 127.018 310.148 126.133C310.315 125.242 310.404 124.344 310.414 123.438H314.859ZM313.602 124.469H311.57C311.523 125.229 311.411 126.003 311.234 126.789C311.062 127.576 310.833 128.326 310.547 129.039C310.26 129.747 309.927 130.367 309.547 130.898H313.602V124.469ZM325.172 127.703C325.172 128.406 325.081 129.034 324.898 129.586C324.716 130.138 324.453 130.604 324.109 130.984C323.766 131.365 323.349 131.656 322.859 131.859C322.375 132.057 321.826 132.156 321.211 132.156C320.638 132.156 320.112 132.057 319.633 131.859C319.159 131.656 318.747 131.365 318.398 130.984C318.055 130.604 317.786 130.138 317.594 129.586C317.406 129.034 317.312 128.406 317.312 127.703C317.312 126.766 317.471 125.969 317.789 125.312C318.107 124.651 318.56 124.148 319.148 123.805C319.742 123.456 320.448 123.281 321.266 123.281C322.047 123.281 322.729 123.456 323.312 123.805C323.901 124.154 324.357 124.659 324.68 125.32C325.008 125.977 325.172 126.771 325.172 127.703ZM318.656 127.703C318.656 128.391 318.747 128.987 318.93 129.492C319.112 129.997 319.393 130.388 319.773 130.664C320.154 130.94 320.643 131.078 321.242 131.078C321.836 131.078 322.323 130.94 322.703 130.664C323.089 130.388 323.372 129.997 323.555 129.492C323.737 128.987 323.828 128.391 323.828 127.703C323.828 127.021 323.737 126.432 323.555 125.938C323.372 125.438 323.091 125.052 322.711 124.781C322.331 124.51 321.839 124.375 321.234 124.375C320.344 124.375 319.69 124.669 319.273 125.258C318.862 125.846 318.656 126.661 318.656 127.703ZM336.453 123.438V132H335.281V126.422C335.281 126.193 335.286 125.961 335.297 125.727C335.312 125.487 335.331 125.247 335.352 125.008H335.305L332.461 132H331.359L328.586 125.008H328.539C328.555 125.247 328.565 125.487 328.57 125.727C328.581 125.961 328.586 126.208 328.586 126.469V132H327.406V123.438H329.148L331.914 130.438L334.719 123.438H336.453ZM342.352 123.297C343.372 123.297 344.13 123.526 344.625 123.984C345.12 124.443 345.367 125.174 345.367 126.18V132H344.422L344.172 130.734H344.109C343.87 131.047 343.62 131.31 343.359 131.523C343.099 131.732 342.797 131.891 342.453 132C342.115 132.104 341.698 132.156 341.203 132.156C340.682 132.156 340.219 132.065 339.812 131.883C339.411 131.701 339.094 131.424 338.859 131.055C338.63 130.685 338.516 130.216 338.516 129.648C338.516 128.794 338.854 128.138 339.531 127.68C340.208 127.221 341.24 126.971 342.625 126.93L344.102 126.867V126.344C344.102 125.604 343.943 125.086 343.625 124.789C343.307 124.492 342.859 124.344 342.281 124.344C341.833 124.344 341.406 124.409 341 124.539C340.594 124.669 340.208 124.823 339.844 125L339.445 124.016C339.831 123.818 340.273 123.648 340.773 123.508C341.273 123.367 341.799 123.297 342.352 123.297ZM344.086 127.781L342.781 127.836C341.714 127.878 340.961 128.052 340.523 128.359C340.086 128.667 339.867 129.102 339.867 129.664C339.867 130.154 340.016 130.516 340.312 130.75C340.609 130.984 341.003 131.102 341.492 131.102C342.253 131.102 342.875 130.891 343.359 130.469C343.844 130.047 344.086 129.414 344.086 128.57V127.781ZM347.844 131.188C347.844 130.823 347.932 130.565 348.109 130.414C348.286 130.258 348.503 130.18 348.758 130.18C349.023 130.18 349.247 130.258 349.43 130.414C349.612 130.565 349.703 130.823 349.703 131.188C349.703 131.547 349.612 131.81 349.43 131.977C349.247 132.138 349.023 132.219 348.758 132.219C348.503 132.219 348.286 132.138 348.109 131.977C347.932 131.81 347.844 131.547 347.844 131.188Z" fill="#070707"/>
<path d="M111.477 65H110.314V56.0312H107.074C107.01 56.5417 106.942 57.0749 106.869 57.6309C106.796 58.1868 106.721 58.7406 106.644 59.292C106.566 59.8434 106.489 60.3652 106.411 60.8574C106.334 61.3496 106.256 61.7871 106.179 62.1699C106.06 62.8034 105.912 63.3434 105.734 63.79C105.561 64.2321 105.329 64.5716 105.037 64.8086C104.75 65.041 104.369 65.1572 103.896 65.1572C103.736 65.1572 103.576 65.1413 103.417 65.1094C103.262 65.0775 103.125 65.0387 103.007 64.9932V64.0156C103.112 64.0612 103.228 64.0999 103.355 64.1318C103.488 64.1637 103.627 64.1797 103.772 64.1797C104.06 64.1797 104.285 64.0658 104.449 63.8379C104.618 63.6055 104.75 63.3115 104.846 62.9561C104.946 62.6006 105.033 62.236 105.105 61.8623C105.165 61.5524 105.233 61.1605 105.311 60.6865C105.388 60.2126 105.47 59.6748 105.557 59.0732C105.643 58.4671 105.732 57.82 105.823 57.1318C105.919 56.4437 106.012 55.735 106.104 55.0059H111.477V65ZM116.925 57.3711C117.563 57.3711 118.11 57.5124 118.565 57.7949C119.021 58.0775 119.37 58.474 119.611 58.9844C119.853 59.4902 119.974 60.0827 119.974 60.7617V61.4658H114.799C114.812 62.3454 115.031 63.0153 115.455 63.4756C115.879 63.9359 116.476 64.166 117.246 64.166C117.72 64.166 118.139 64.1227 118.504 64.0361C118.868 63.9495 119.247 63.8219 119.639 63.6533V64.6514C119.26 64.82 118.884 64.943 118.511 65.0205C118.142 65.098 117.704 65.1367 117.198 65.1367C116.478 65.1367 115.849 64.9909 115.312 64.6992C114.778 64.403 114.364 63.9701 114.067 63.4004C113.771 62.8307 113.623 62.1335 113.623 61.3086C113.623 60.502 113.757 59.8047 114.026 59.2168C114.3 58.6243 114.683 58.1686 115.175 57.8496C115.672 57.5306 116.255 57.3711 116.925 57.3711ZM116.911 58.3008C116.305 58.3008 115.822 58.499 115.462 58.8955C115.102 59.292 114.888 59.8457 114.819 60.5566H118.784C118.78 60.11 118.709 59.7181 118.572 59.3809C118.44 59.0391 118.237 58.7747 117.964 58.5879C117.69 58.3965 117.34 58.3008 116.911 58.3008ZM125.422 57.3711C126.356 57.3711 127.101 57.6924 127.657 58.335C128.213 58.9775 128.491 59.9437 128.491 61.2334C128.491 62.0856 128.364 62.8011 128.108 63.3799C127.853 63.9587 127.493 64.3962 127.028 64.6924C126.568 64.9886 126.023 65.1367 125.395 65.1367C124.998 65.1367 124.649 65.0843 124.349 64.9795C124.048 64.8747 123.79 64.7334 123.576 64.5557C123.362 64.3779 123.184 64.1842 123.043 63.9746H122.961C122.975 64.1523 122.991 64.3665 123.009 64.6172C123.032 64.8678 123.043 65.0866 123.043 65.2734V68.3496H121.901V57.5078H122.838L122.988 58.6152H123.043C123.189 58.3874 123.367 58.18 123.576 57.9932C123.786 57.8018 124.041 57.6514 124.342 57.542C124.647 57.4281 125.007 57.3711 125.422 57.3711ZM125.224 58.3281C124.704 58.3281 124.285 58.4284 123.966 58.6289C123.651 58.8294 123.421 59.1302 123.275 59.5312C123.13 59.9277 123.052 60.4268 123.043 61.0283V61.2471C123.043 61.8805 123.111 62.416 123.248 62.8535C123.389 63.291 123.619 63.6237 123.938 63.8516C124.262 64.0794 124.695 64.1934 125.237 64.1934C125.702 64.1934 126.09 64.068 126.399 63.8174C126.709 63.5667 126.939 63.2181 127.09 62.7715C127.245 62.3203 127.322 61.8031 127.322 61.2197C127.322 60.3356 127.149 59.6338 126.803 59.1143C126.461 58.5902 125.935 58.3281 125.224 58.3281ZM133.276 57.3848C134.17 57.3848 134.833 57.5853 135.266 57.9863C135.699 58.3874 135.915 59.0277 135.915 59.9072V65H135.088L134.869 63.8926H134.814C134.605 64.166 134.386 64.3962 134.158 64.583C133.93 64.7653 133.666 64.9043 133.365 65C133.069 65.0911 132.704 65.1367 132.271 65.1367C131.816 65.1367 131.41 65.057 131.055 64.8975C130.704 64.738 130.426 64.4964 130.221 64.1729C130.02 63.8493 129.92 63.4391 129.92 62.9424C129.92 62.195 130.216 61.6208 130.809 61.2197C131.401 60.8187 132.303 60.5999 133.516 60.5635L134.808 60.5088V60.0508C134.808 59.4036 134.669 58.9502 134.391 58.6904C134.113 58.4307 133.721 58.3008 133.215 58.3008C132.823 58.3008 132.449 58.3577 132.094 58.4717C131.738 58.5856 131.401 58.7201 131.082 58.875L130.733 58.0137C131.071 57.8405 131.458 57.6924 131.896 57.5693C132.333 57.4463 132.793 57.3848 133.276 57.3848ZM134.794 61.3086L133.652 61.3564C132.718 61.3929 132.06 61.5456 131.677 61.8145C131.294 62.0833 131.103 62.4639 131.103 62.9561C131.103 63.3844 131.232 63.7012 131.492 63.9062C131.752 64.1113 132.096 64.2139 132.524 64.2139C133.19 64.2139 133.734 64.0293 134.158 63.6602C134.582 63.291 134.794 62.7373 134.794 61.999V61.3086ZM139.552 63.373L139.641 63.5303C139.559 63.863 139.454 64.2184 139.326 64.5967C139.203 64.9749 139.066 65.3532 138.916 65.7314C138.77 66.1143 138.622 66.472 138.472 66.8047H137.624C137.72 66.4401 137.813 66.055 137.904 65.6494C137.995 65.2484 138.077 64.8519 138.15 64.46C138.228 64.0635 138.289 63.7012 138.335 63.373H139.552ZM151.932 55.0059C153.221 55.0059 154.162 55.2588 154.755 55.7646C155.352 56.266 155.65 56.986 155.65 57.9248C155.65 58.3486 155.58 58.752 155.438 59.1348C155.302 59.513 155.078 59.848 154.769 60.1396C154.459 60.4268 154.051 60.6546 153.545 60.8232C153.044 60.9873 152.428 61.0693 151.699 61.0693H150.482V65H149.32V55.0059H151.932ZM151.822 55.9971H150.482V60.0713H151.569C152.207 60.0713 152.738 60.0029 153.162 59.8662C153.59 59.7295 153.912 59.5085 154.126 59.2031C154.34 58.8932 154.447 58.4831 154.447 57.9727C154.447 57.3073 154.235 56.8128 153.812 56.4893C153.388 56.1611 152.725 55.9971 151.822 55.9971ZM164.031 61.2402C164.031 61.8555 163.951 62.4046 163.792 62.8877C163.632 63.3708 163.402 63.7786 163.102 64.1113C162.801 64.444 162.436 64.6992 162.008 64.877C161.584 65.0501 161.103 65.1367 160.565 65.1367C160.064 65.1367 159.604 65.0501 159.185 64.877C158.77 64.6992 158.41 64.444 158.104 64.1113C157.804 63.7786 157.569 63.3708 157.4 62.8877C157.236 62.4046 157.154 61.8555 157.154 61.2402C157.154 60.4199 157.293 59.7227 157.571 59.1484C157.849 58.5697 158.246 58.1299 158.761 57.8291C159.28 57.5238 159.898 57.3711 160.613 57.3711C161.297 57.3711 161.894 57.5238 162.404 57.8291C162.919 58.1344 163.318 58.5765 163.601 59.1553C163.888 59.7295 164.031 60.4245 164.031 61.2402ZM158.33 61.2402C158.33 61.8418 158.41 62.3636 158.569 62.8057C158.729 63.2477 158.975 63.5895 159.308 63.8311C159.64 64.0726 160.069 64.1934 160.593 64.1934C161.112 64.1934 161.538 64.0726 161.871 63.8311C162.208 63.5895 162.457 63.2477 162.616 62.8057C162.776 62.3636 162.855 61.8418 162.855 61.2402C162.855 60.6432 162.776 60.1283 162.616 59.6953C162.457 59.2578 162.211 58.9206 161.878 58.6836C161.545 58.4466 161.115 58.3281 160.586 58.3281C159.807 58.3281 159.235 58.5856 158.87 59.1006C158.51 59.6156 158.33 60.3288 158.33 61.2402ZM168.994 65.1367C168.32 65.1367 167.725 64.9977 167.21 64.7197C166.695 64.4417 166.294 64.0179 166.007 63.4482C165.72 62.8786 165.576 62.1608 165.576 61.2949C165.576 60.388 165.727 59.6475 166.027 59.0732C166.333 58.4945 166.752 58.0661 167.285 57.7881C167.818 57.5101 168.424 57.3711 169.104 57.3711C169.477 57.3711 169.837 57.4098 170.184 57.4873C170.535 57.5602 170.822 57.6536 171.045 57.7676L170.703 58.7178C170.475 58.6266 170.211 58.5446 169.91 58.4717C169.614 58.3988 169.336 58.3623 169.076 58.3623C168.557 58.3623 168.124 58.474 167.777 58.6973C167.436 58.9206 167.178 59.2487 167.005 59.6816C166.836 60.1146 166.752 60.6478 166.752 61.2812C166.752 61.8874 166.834 62.4046 166.998 62.833C167.167 63.2614 167.415 63.5895 167.743 63.8174C168.076 64.0407 168.491 64.1523 168.987 64.1523C169.384 64.1523 169.742 64.1113 170.061 64.0293C170.38 63.9427 170.669 63.8424 170.929 63.7285V64.7402C170.678 64.8678 170.398 64.9658 170.088 65.0342C169.783 65.1025 169.418 65.1367 168.994 65.1367ZM177.812 58.4717H175.345V65H174.224V58.4717H171.79V57.5078H177.812V58.4717ZM185.756 61.2402C185.756 61.8555 185.676 62.4046 185.517 62.8877C185.357 63.3708 185.127 63.7786 184.826 64.1113C184.525 64.444 184.161 64.6992 183.732 64.877C183.309 65.0501 182.828 65.1367 182.29 65.1367C181.789 65.1367 181.328 65.0501 180.909 64.877C180.494 64.6992 180.134 64.444 179.829 64.1113C179.528 63.7786 179.294 63.3708 179.125 62.8877C178.961 62.4046 178.879 61.8555 178.879 61.2402C178.879 60.4199 179.018 59.7227 179.296 59.1484C179.574 58.5697 179.97 58.1299 180.485 57.8291C181.005 57.5238 181.622 57.3711 182.338 57.3711C183.021 57.3711 183.618 57.5238 184.129 57.8291C184.644 58.1344 185.043 58.5765 185.325 59.1553C185.612 59.7295 185.756 60.4245 185.756 61.2402ZM180.055 61.2402C180.055 61.8418 180.134 62.3636 180.294 62.8057C180.453 63.2477 180.7 63.5895 181.032 63.8311C181.365 64.0726 181.793 64.1934 182.317 64.1934C182.837 64.1934 183.263 64.0726 183.596 63.8311C183.933 63.5895 184.181 63.2477 184.341 62.8057C184.5 62.3636 184.58 61.8418 184.58 61.2402C184.58 60.6432 184.5 60.1283 184.341 59.6953C184.181 59.2578 183.935 58.9206 183.603 58.6836C183.27 58.4466 182.839 58.3281 182.311 58.3281C181.531 58.3281 180.959 58.5856 180.595 59.1006C180.235 59.6156 180.055 60.3288 180.055 61.2402ZM193.672 59.3877C193.672 59.8571 193.535 60.224 193.262 60.4883C192.988 60.748 192.635 60.9235 192.202 61.0146V61.0693C192.672 61.1331 193.075 61.3018 193.412 61.5752C193.754 61.8441 193.925 62.2565 193.925 62.8125C193.925 63.2409 193.822 63.6191 193.617 63.9473C193.412 64.2754 193.091 64.5329 192.653 64.7197C192.216 64.9066 191.646 65 190.944 65H187.718V57.5078H190.917C191.455 57.5078 191.929 57.5693 192.339 57.6924C192.754 57.8109 193.079 58.0068 193.316 58.2803C193.553 58.5537 193.672 58.9229 193.672 59.3877ZM192.742 62.8125C192.742 62.3704 192.574 62.0514 192.236 61.8555C191.904 61.6595 191.418 61.5615 190.78 61.5615H188.859V64.0771H190.808C191.437 64.0771 191.915 63.9814 192.243 63.79C192.576 63.5941 192.742 63.2682 192.742 62.8125ZM192.517 59.5176C192.517 59.1621 192.387 58.8978 192.127 58.7246C191.867 58.5469 191.441 58.458 190.849 58.458H188.859V60.6113H190.65C191.266 60.6113 191.73 60.5225 192.045 60.3447C192.359 60.167 192.517 59.8913 192.517 59.5176ZM195.121 61.7461V60.7344H198.512V61.7461H195.121ZM201.41 57.5078V60.6523H205.587V57.5078H206.722V65H205.587V61.6162H201.41V65H200.269V57.5078H201.41ZM211.931 57.3848C212.824 57.3848 213.487 57.5853 213.92 57.9863C214.353 58.3874 214.569 59.0277 214.569 59.9072V65H213.742L213.523 63.8926H213.469C213.259 64.166 213.04 64.3962 212.812 64.583C212.585 64.7653 212.32 64.9043 212.02 65C211.723 65.0911 211.359 65.1367 210.926 65.1367C210.47 65.1367 210.064 65.057 209.709 64.8975C209.358 64.738 209.08 64.4964 208.875 64.1729C208.674 63.8493 208.574 63.4391 208.574 62.9424C208.574 62.195 208.87 61.6208 209.463 61.2197C210.055 60.8187 210.958 60.5999 212.17 60.5635L213.462 60.5088V60.0508C213.462 59.4036 213.323 58.9502 213.045 58.6904C212.767 58.4307 212.375 58.3008 211.869 58.3008C211.477 58.3008 211.104 58.3577 210.748 58.4717C210.393 58.5856 210.055 58.7201 209.736 58.875L209.388 58.0137C209.725 57.8405 210.112 57.6924 210.55 57.5693C210.987 57.4463 211.448 57.3848 211.931 57.3848ZM213.448 61.3086L212.307 61.3564C211.372 61.3929 210.714 61.5456 210.331 61.8145C209.948 62.0833 209.757 62.4639 209.757 62.9561C209.757 63.3844 209.887 63.7012 210.146 63.9062C210.406 64.1113 210.75 64.2139 211.179 64.2139C211.844 64.2139 212.389 64.0293 212.812 63.6602C213.236 63.291 213.448 62.7373 213.448 61.999V61.3086ZM216.271 61.7461V60.7344H219.662V61.7461H216.271ZM228.248 55.0059V63.9609H229.479V67.6113H228.364V65H221.419V67.6113H220.305V63.9609H221.07C221.412 63.3776 221.731 62.7236 222.027 61.999C222.328 61.2699 222.595 60.5088 222.827 59.7158C223.064 58.9183 223.256 58.1185 223.401 57.3164C223.552 56.5143 223.647 55.7441 223.688 55.0059H228.248ZM227.093 56.0518H224.714C224.673 56.6169 224.582 57.248 224.44 57.9453C224.299 58.638 224.117 59.349 223.894 60.0781C223.675 60.8073 223.429 61.5068 223.155 62.1768C222.886 62.8467 222.602 63.4414 222.301 63.9609H227.093V56.0518ZM237.463 61.2402C237.463 61.8555 237.383 62.4046 237.224 62.8877C237.064 63.3708 236.834 63.7786 236.533 64.1113C236.232 64.444 235.868 64.6992 235.439 64.877C235.016 65.0501 234.535 65.1367 233.997 65.1367C233.496 65.1367 233.035 65.0501 232.616 64.877C232.201 64.6992 231.841 64.444 231.536 64.1113C231.235 63.7786 231.001 63.3708 230.832 62.8877C230.668 62.4046 230.586 61.8555 230.586 61.2402C230.586 60.4199 230.725 59.7227 231.003 59.1484C231.281 58.5697 231.677 58.1299 232.192 57.8291C232.712 57.5238 233.329 57.3711 234.045 57.3711C234.729 57.3711 235.326 57.5238 235.836 57.8291C236.351 58.1344 236.75 58.5765 237.032 59.1553C237.319 59.7295 237.463 60.4245 237.463 61.2402ZM231.762 61.2402C231.762 61.8418 231.841 62.3636 232.001 62.8057C232.16 63.2477 232.407 63.5895 232.739 63.8311C233.072 64.0726 233.5 64.1934 234.024 64.1934C234.544 64.1934 234.97 64.0726 235.303 63.8311C235.64 63.5895 235.888 63.2477 236.048 62.8057C236.207 62.3636 236.287 61.8418 236.287 61.2402C236.287 60.6432 236.207 60.1283 236.048 59.6953C235.888 59.2578 235.642 58.9206 235.31 58.6836C234.977 58.4466 234.546 58.3281 234.018 58.3281C233.238 58.3281 232.666 58.5856 232.302 59.1006C231.942 59.6156 231.762 60.3288 231.762 61.2402ZM240.566 57.5078V60.6523H244.743V57.5078H245.878V65H244.743V61.6162H240.566V65H239.425V57.5078H240.566ZM247.102 57.5078H248.318L249.973 61.8555C250.068 62.1107 250.157 62.3568 250.239 62.5938C250.321 62.8262 250.394 63.0495 250.458 63.2637C250.522 63.4779 250.572 63.6852 250.608 63.8857H250.656C250.72 63.6579 250.811 63.3594 250.93 62.9902C251.048 62.6165 251.176 62.236 251.312 61.8486L252.878 57.5078H254.102L250.841 66.1006C250.668 66.5609 250.465 66.9619 250.232 67.3037C250.005 67.6455 249.727 67.9076 249.398 68.0898C249.07 68.2767 248.674 68.3701 248.209 68.3701C247.995 68.3701 247.806 68.3564 247.642 68.3291C247.478 68.3063 247.336 68.279 247.218 68.2471V67.3379C247.318 67.3607 247.439 67.3812 247.58 67.3994C247.726 67.4176 247.876 67.4268 248.031 67.4268C248.314 67.4268 248.558 67.3721 248.763 67.2627C248.972 67.1579 249.152 67.0029 249.303 66.7979C249.453 66.5928 249.583 66.349 249.692 66.0664L250.103 65.0137L247.102 57.5078Z" fill="#070707"/>
<path d="M108.788 20.7525C109.283 19.7492 110.714 19.7491 111.209 20.7525L113.567 25.5303L118.84 26.2964C119.947 26.4573 120.389 27.8181 119.588 28.5991L115.772 32.318L116.673 37.5693C116.862 38.6721 115.705 39.5131 114.714 38.9924L109.998 36.5131L105.283 38.9924C104.292 39.5131 103.135 38.6721 103.324 37.5693L104.224 32.318L100.409 28.5991C99.6079 27.8181 100.05 26.4573 101.157 26.2964L106.43 25.5303L108.788 20.7525Z" fill="#F9ED37"/>
<path d="M128.788 20.7525C129.283 19.7492 130.714 19.7491 131.209 20.7525L133.567 25.5303L138.84 26.2964C139.947 26.4573 140.389 27.8181 139.588 28.5991L135.772 32.318L136.673 37.5693C136.862 38.6721 135.705 39.5131 134.714 38.9924L129.998 36.5131L125.283 38.9924C124.292 39.5131 123.135 38.6721 123.324 37.5693L124.224 32.318L120.409 28.5991C119.608 27.8181 120.05 26.4573 121.157 26.2964L126.43 25.5303L128.788 20.7525Z" fill="#F9ED37"/>
<path d="M148.788 20.7525C149.283 19.7492 150.714 19.7491 151.209 20.7525L153.567 25.5303L158.84 26.2964C159.947 26.4573 160.389 27.8181 159.588 28.5991L155.772 32.318L156.673 37.5693C156.862 38.6721 155.705 39.5131 154.714 38.9924L149.998 36.5131L145.283 38.9924C144.292 39.5131 143.135 38.6721 143.324 37.5693L144.224 32.318L140.409 28.5991C139.608 27.8181 140.05 26.4573 141.157 26.2964L146.43 25.5303L148.788 20.7525Z" fill="#F9ED37"/>
<path d="M168.788 20.7525C169.283 19.7492 170.714 19.7491 171.209 20.7525L173.567 25.5303L178.84 26.2964C179.947 26.4573 180.389 27.8181 179.588 28.5991L175.772 32.318L176.673 37.5693C176.862 38.6721 175.705 39.5131 174.714 38.9924L169.998 36.5131L165.283 38.9924C164.292 39.5131 163.135 38.6721 163.324 37.5693L164.224 32.318L160.409 28.5991C159.608 27.8181 160.05 26.4573 161.157 26.2964L166.43 25.5303L168.788 20.7525Z" fill="#F9ED37"/>
<path d="M190.312 21.1951L190.312 21.1951L192.67 25.9728L192.903 26.4443L193.423 26.5199L198.696 27.286C198.983 27.3277 199.097 27.6805 198.89 27.883L195.074 31.6019L194.698 31.9689L194.787 32.487L195.687 37.7383C195.687 37.7383 195.687 37.7383 195.687 37.7383C195.736 38.0243 195.436 38.2422 195.18 38.1073L194.714 38.9924L195.18 38.1073L190.464 35.628L189.998 35.3833L189.533 35.628L184.817 38.1073L185.283 38.9924L184.817 38.1073C184.56 38.2423 184.26 38.0242 184.309 37.7383L183.324 37.5693L184.309 37.7383L185.21 32.487L185.299 31.9689L184.922 31.6019L181.107 27.883L181.107 27.883C180.899 27.6805 181.014 27.3277 181.301 27.286L186.574 26.5199L187.094 26.4443L187.327 25.9728L189.685 21.1951C189.813 20.935 190.184 20.935 190.312 21.1951Z" stroke="#F9ED37" stroke-width="2"/>
<circle cx="49" cy="45" r="25" fill="#F56747"/>
<path d="M55.3242 55H53.9297V36.2832H46.6973C46.597 37.222 46.4831 38.2246 46.3555 39.291C46.2279 40.3574 46.0866 41.4466 45.9316 42.5586C45.7858 43.6615 45.6309 44.7461 45.4668 45.8125C45.3118 46.8789 45.1387 47.8815 44.9473 48.8203C44.7103 50.1055 44.4277 51.2357 44.0996 52.2109C43.7715 53.1862 43.334 53.9473 42.7871 54.4941C42.2402 55.041 41.5111 55.3145 40.5996 55.3145C40.2715 55.3145 39.9753 55.2871 39.7109 55.2324C39.4557 55.1777 39.2279 55.1094 39.0273 55.0273V53.7832C39.237 53.8652 39.4557 53.9382 39.6836 54.002C39.9206 54.0566 40.1895 54.084 40.4902 54.084C41.1283 54.084 41.6387 53.8379 42.0215 53.3457C42.4134 52.8444 42.7324 52.1745 42.9785 51.3359C43.2246 50.4883 43.4388 49.5404 43.6211 48.4922C43.8125 47.4531 43.9948 46.3685 44.168 45.2383C44.3411 44.099 44.5052 42.9414 44.6602 41.7656C44.8151 40.5898 44.9655 39.4323 45.1113 38.293C45.2572 37.1445 45.3893 36.0508 45.5078 35.0117H55.3242V55Z" fill="white"/>
</g>
</g>
<defs>
<filter id="filter0_d_43_902" x="0" y="0" width="398" height="238" filterUnits="userSpaceOnUse" color-interpolation-filters="sRGB">
<feFlood flood-opacity="0" result="BackgroundImageFix"/>
<feColorMatrix in="SourceAlpha" type="matrix" values="0 0 0 0 0 0 0 0 0 0 0 0 0 0 0 0 0 0 127 0" result="hardAlpha"/>
<feOffset dy="4"/>
<feGaussianBlur stdDeviation="2"/>
<feComposite in2="hardAlpha" operator="out"/>
<feColorMatrix type="matrix" values="0 0 0 0 0 0 0 0 0 0 0 0 0 0 0 0 0 0 0.25 0"/>
<feBlend mode="normal" in2="BackgroundImageFix" result="effect1_dropShadow_43_902"/>
<feBlend mode="normal" in="SourceGraphic" in2="effect1_dropShadow_43_902" result="shape"/>
</filter>
<clipPath id="clip0_43_902">
<rect x="4" width="390" height="230" fill="white"/>
</clipPath>
</defs>
</svg>
