<svg width="390" height="230" viewBox="0 0 390 230" fill="none" xmlns="http://www.w3.org/2000/svg">
<g clip-path="url(#clip0_43_903)">
<path d="M0 0H390V250H0V0Z" fill="white"/>
<path d="M21.5625 96.5781H24.7969C26.224 96.5781 27.2969 96.7917 28.0156 97.2188C28.7344 97.6458 29.0938 98.3724 29.0938 99.3984C29.0938 99.8411 29.0078 100.24 28.8359 100.594C28.6693 100.943 28.4245 101.232 28.1016 101.461C27.7786 101.69 27.3802 101.849 26.9062 101.938V102.016C27.4062 102.094 27.849 102.237 28.2344 102.445C28.6198 102.654 28.9219 102.945 29.1406 103.32C29.3594 103.695 29.4688 104.172 29.4688 104.75C29.4688 105.453 29.3047 106.047 28.9766 106.531C28.6536 107.016 28.1953 107.383 27.6016 107.633C27.0078 107.878 26.3047 108 25.4922 108H21.5625V96.5781ZM22.8906 101.477H25.0781C26.0729 101.477 26.7604 101.312 27.1406 100.984C27.526 100.656 27.7188 100.177 27.7188 99.5469C27.7188 98.8958 27.4896 98.4271 27.0312 98.1406C26.5781 97.8542 25.8542 97.7109 24.8594 97.7109H22.8906V101.477ZM22.8906 102.594V106.867H25.2656C26.2812 106.867 27 106.669 27.4219 106.273C27.8438 105.872 28.0547 105.333 28.0547 104.656C28.0547 104.224 27.9583 103.854 27.7656 103.547C27.5781 103.24 27.2708 103.005 26.8438 102.844C26.4219 102.677 25.8568 102.594 25.1484 102.594H22.8906ZM35.1406 108.156C34.3698 108.156 33.6901 107.997 33.1016 107.68C32.513 107.362 32.0547 106.878 31.7266 106.227C31.3984 105.576 31.2344 104.755 31.2344 103.766C31.2344 102.729 31.4062 101.883 31.75 101.227C32.099 100.565 32.5781 100.076 33.1875 99.7578C33.7969 99.4401 34.4896 99.2812 35.2656 99.2812C35.6927 99.2812 36.1042 99.3255 36.5 99.4141C36.901 99.4974 37.2292 99.6042 37.4844 99.7344L37.0938 100.82C36.8333 100.716 36.5312 100.622 36.1875 100.539C35.849 100.456 35.5312 100.414 35.2344 100.414C34.6406 100.414 34.1458 100.542 33.75 100.797C33.3594 101.052 33.0651 101.427 32.8672 101.922C32.6745 102.417 32.5781 103.026 32.5781 103.75C32.5781 104.443 32.6719 105.034 32.8594 105.523C33.0521 106.013 33.3359 106.388 33.7109 106.648C34.0911 106.904 34.5651 107.031 35.1328 107.031C35.5859 107.031 35.9948 106.984 36.3594 106.891C36.724 106.792 37.0547 106.677 37.3516 106.547V107.703C37.0651 107.849 36.7448 107.961 36.3906 108.039C36.0417 108.117 35.625 108.156 35.1406 108.156ZM42.6797 99.2812C43.4089 99.2812 44.0339 99.4427 44.5547 99.7656C45.0755 100.089 45.474 100.542 45.75 101.125C46.026 101.703 46.1641 102.38 46.1641 103.156V103.961H40.25C40.2656 104.966 40.5156 105.732 41 106.258C41.4844 106.784 42.1667 107.047 43.0469 107.047C43.5885 107.047 44.0677 106.997 44.4844 106.898C44.901 106.799 45.3333 106.654 45.7812 106.461V107.602C45.349 107.794 44.9193 107.935 44.4922 108.023C44.0703 108.112 43.5703 108.156 42.9922 108.156C42.1693 108.156 41.4505 107.99 40.8359 107.656C40.2266 107.318 39.7526 106.823 39.4141 106.172C39.0755 105.521 38.9062 104.724 38.9062 103.781C38.9062 102.859 39.0599 102.062 39.3672 101.391C39.6797 100.714 40.1172 100.193 40.6797 99.8281C41.2474 99.4635 41.9141 99.2812 42.6797 99.2812ZM42.6641 100.344C41.9714 100.344 41.4193 100.57 41.0078 101.023C40.5964 101.477 40.3516 102.109 40.2734 102.922H44.8047C44.7995 102.411 44.7188 101.964 44.5625 101.578C44.4115 101.188 44.1797 100.885 43.8672 100.672C43.5547 100.453 43.1536 100.344 42.6641 100.344ZM52.0781 102.859C52.0781 101.641 52.1953 100.602 52.4297 99.7422C52.6641 98.8776 53.026 98.1849 53.5156 97.6641C54.0104 97.138 54.6458 96.7786 55.4219 96.5859C56.0885 96.4036 56.7656 96.2474 57.4531 96.1172C58.1406 95.9818 58.8099 95.8646 59.4609 95.7656L59.6875 96.9062C59.3594 96.9531 59.0156 97.0078 58.6562 97.0703C58.2969 97.1276 57.9375 97.1901 57.5781 97.2578C57.2188 97.3203 56.8802 97.388 56.5625 97.4609C56.2448 97.5286 55.9635 97.599 55.7188 97.6719C55.276 97.7917 54.8932 98 54.5703 98.2969C54.2526 98.5938 54 99.0026 53.8125 99.5234C53.6302 100.044 53.5208 100.701 53.4844 101.492H53.5781C53.7344 101.263 53.9479 101.036 54.2188 100.812C54.4896 100.589 54.8125 100.404 55.1875 100.258C55.5625 100.107 55.9844 100.031 56.4531 100.031C57.1927 100.031 57.8099 100.193 58.3047 100.516C58.7995 100.833 59.1719 101.281 59.4219 101.859C59.6719 102.438 59.7969 103.115 59.7969 103.891C59.7969 104.823 59.6354 105.607 59.3125 106.242C58.9948 106.878 58.5469 107.357 57.9688 107.68C57.3906 107.997 56.7109 108.156 55.9297 108.156C55.3255 108.156 54.7839 108.039 54.3047 107.805C53.8307 107.57 53.4271 107.227 53.0938 106.773C52.7656 106.32 52.513 105.766 52.3359 105.109C52.1641 104.453 52.0781 103.703 52.0781 102.859ZM56.0312 107.078C56.526 107.078 56.9505 106.974 57.3047 106.766C57.6641 106.557 57.9401 106.229 58.1328 105.781C58.3307 105.328 58.4297 104.74 58.4297 104.016C58.4297 103.109 58.2552 102.401 57.9062 101.891C57.5625 101.375 57.0104 101.117 56.25 101.117C55.776 101.117 55.3464 101.219 54.9609 101.422C54.5755 101.62 54.25 101.857 53.9844 102.133C53.7188 102.409 53.526 102.656 53.4062 102.875C53.4062 103.406 53.4453 103.922 53.5234 104.422C53.6016 104.922 53.737 105.372 53.9297 105.773C54.1224 106.174 54.388 106.492 54.7266 106.727C55.0703 106.961 55.5052 107.078 56.0312 107.078ZM62.0391 108V99.4375H63.3438V102.969H65.6875C66.4167 102.969 67.0156 103.06 67.4844 103.242C67.9583 103.424 68.3099 103.695 68.5391 104.055C68.7682 104.414 68.8828 104.859 68.8828 105.391C68.8828 105.922 68.7682 106.383 68.5391 106.773C68.3151 107.164 67.9609 107.466 67.4766 107.68C66.9974 107.893 66.3724 108 65.6016 108H62.0391ZM63.3438 106.945H65.4766C66.1224 106.945 66.638 106.831 67.0234 106.602C67.4089 106.372 67.6016 105.99 67.6016 105.453C67.6016 104.927 67.4219 104.562 67.0625 104.359C66.7031 104.151 66.1875 104.047 65.5156 104.047H63.3438V106.945ZM70.2969 108V99.4375H71.5938V108H70.2969ZM77.7656 108.156C76.9948 108.156 76.3151 107.997 75.7266 107.68C75.138 107.362 74.6797 106.878 74.3516 106.227C74.0234 105.576 73.8594 104.755 73.8594 103.766C73.8594 102.729 74.0312 101.883 74.375 101.227C74.724 100.565 75.2031 100.076 75.8125 99.7578C76.4219 99.4401 77.1146 99.2812 77.8906 99.2812C78.3177 99.2812 78.7292 99.3255 79.125 99.4141C79.526 99.4974 79.8542 99.6042 80.1094 99.7344L79.7188 100.82C79.4583 100.716 79.1562 100.622 78.8125 100.539C78.474 100.456 78.1562 100.414 77.8594 100.414C77.2656 100.414 76.7708 100.542 76.375 100.797C75.9844 101.052 75.6901 101.427 75.4922 101.922C75.2995 102.417 75.2031 103.026 75.2031 103.75C75.2031 104.443 75.2969 105.034 75.4844 105.523C75.6771 106.013 75.9609 106.388 76.3359 106.648C76.7161 106.904 77.1901 107.031 77.7578 107.031C78.2109 107.031 78.6198 106.984 78.9844 106.891C79.349 106.792 79.6797 106.677 79.9766 106.547V107.703C79.6901 107.849 79.3698 107.961 79.0156 108.039C78.6667 108.117 78.25 108.156 77.7656 108.156ZM87.8438 100.539H85.0234V108H83.7422V100.539H80.9609V99.4375H87.8438V100.539ZM93.5625 99.2812C94.6302 99.2812 95.4818 99.6484 96.1172 100.383C96.7526 101.117 97.0703 102.221 97.0703 103.695C97.0703 104.669 96.9245 105.487 96.6328 106.148C96.3411 106.81 95.9297 107.31 95.3984 107.648C94.8724 107.987 94.25 108.156 93.5312 108.156C93.0781 108.156 92.6797 108.096 92.3359 107.977C91.9922 107.857 91.6979 107.695 91.4531 107.492C91.2083 107.289 91.0052 107.068 90.8438 106.828H90.75C90.7656 107.031 90.7839 107.276 90.8047 107.562C90.8307 107.849 90.8438 108.099 90.8438 108.312V111.828H89.5391V99.4375H90.6094L90.7812 100.703H90.8438C91.0104 100.443 91.2135 100.206 91.4531 99.9922C91.6927 99.7734 91.9844 99.6016 92.3281 99.4766C92.6771 99.3464 93.0885 99.2812 93.5625 99.2812ZM93.3359 100.375C92.7422 100.375 92.263 100.49 91.8984 100.719C91.5391 100.948 91.276 101.292 91.1094 101.75C90.9427 102.203 90.8542 102.773 90.8438 103.461V103.711C90.8438 104.435 90.9219 105.047 91.0781 105.547C91.2396 106.047 91.5026 106.427 91.8672 106.688C92.237 106.948 92.7318 107.078 93.3516 107.078C93.8828 107.078 94.3255 106.935 94.6797 106.648C95.0339 106.362 95.2969 105.964 95.4688 105.453C95.6458 104.938 95.7344 104.346 95.7344 103.68C95.7344 102.669 95.5365 101.867 95.1406 101.273C94.75 100.674 94.1484 100.375 93.3359 100.375ZM106.719 103.703C106.719 104.406 106.628 105.034 106.445 105.586C106.263 106.138 106 106.604 105.656 106.984C105.312 107.365 104.896 107.656 104.406 107.859C103.922 108.057 103.372 108.156 102.758 108.156C102.185 108.156 101.659 108.057 101.18 107.859C100.706 107.656 100.294 107.365 99.9453 106.984C99.6016 106.604 99.3333 106.138 99.1406 105.586C98.9531 105.034 98.8594 104.406 98.8594 103.703C98.8594 102.766 99.0182 101.969 99.3359 101.312C99.6536 100.651 100.107 100.148 100.695 99.8047C101.289 99.4557 101.995 99.2812 102.812 99.2812C103.594 99.2812 104.276 99.4557 104.859 99.8047C105.448 100.154 105.904 100.659 106.227 101.32C106.555 101.977 106.719 102.771 106.719 103.703ZM100.203 103.703C100.203 104.391 100.294 104.987 100.477 105.492C100.659 105.997 100.94 106.388 101.32 106.664C101.701 106.94 102.19 107.078 102.789 107.078C103.383 107.078 103.87 106.94 104.25 106.664C104.635 106.388 104.919 105.997 105.102 105.492C105.284 104.987 105.375 104.391 105.375 103.703C105.375 103.021 105.284 102.432 105.102 101.938C104.919 101.438 104.638 101.052 104.258 100.781C103.878 100.51 103.385 100.375 102.781 100.375C101.891 100.375 101.237 100.669 100.82 101.258C100.409 101.846 100.203 102.661 100.203 103.703ZM120.5 103.703C120.5 104.406 120.409 105.034 120.227 105.586C120.044 106.138 119.781 106.604 119.438 106.984C119.094 107.365 118.677 107.656 118.188 107.859C117.703 108.057 117.154 108.156 116.539 108.156C115.966 108.156 115.44 108.057 114.961 107.859C114.487 107.656 114.076 107.365 113.727 106.984C113.383 106.604 113.115 106.138 112.922 105.586C112.734 105.034 112.641 104.406 112.641 103.703C112.641 102.766 112.799 101.969 113.117 101.312C113.435 100.651 113.888 100.148 114.477 99.8047C115.07 99.4557 115.776 99.2812 116.594 99.2812C117.375 99.2812 118.057 99.4557 118.641 99.8047C119.229 100.154 119.685 100.659 120.008 101.32C120.336 101.977 120.5 102.771 120.5 103.703ZM113.984 103.703C113.984 104.391 114.076 104.987 114.258 105.492C114.44 105.997 114.721 106.388 115.102 106.664C115.482 106.94 115.971 107.078 116.57 107.078C117.164 107.078 117.651 106.94 118.031 106.664C118.417 106.388 118.701 105.997 118.883 105.492C119.065 104.987 119.156 104.391 119.156 103.703C119.156 103.021 119.065 102.432 118.883 101.938C118.701 101.438 118.419 101.052 118.039 100.781C117.659 100.51 117.167 100.375 116.562 100.375C115.672 100.375 115.018 100.669 114.602 101.258C114.19 101.846 113.984 102.661 113.984 103.703ZM128.578 100.539H125.758V108H124.477V100.539H121.695V99.4375H128.578V100.539ZM137.445 99.4375V108H136.141V100.555H131.578V108H130.273V99.4375H137.445ZM144.219 99.2812C145.286 99.2812 146.138 99.6484 146.773 100.383C147.409 101.117 147.727 102.221 147.727 103.695C147.727 104.669 147.581 105.487 147.289 106.148C146.997 106.81 146.586 107.31 146.055 107.648C145.529 107.987 144.906 108.156 144.188 108.156C143.734 108.156 143.336 108.096 142.992 107.977C142.648 107.857 142.354 107.695 142.109 107.492C141.865 107.289 141.661 107.068 141.5 106.828H141.406C141.422 107.031 141.44 107.276 141.461 107.562C141.487 107.849 141.5 108.099 141.5 108.312V111.828H140.195V99.4375H141.266L141.438 100.703H141.5C141.667 100.443 141.87 100.206 142.109 99.9922C142.349 99.7734 142.641 99.6016 142.984 99.4766C143.333 99.3464 143.745 99.2812 144.219 99.2812ZM143.992 100.375C143.398 100.375 142.919 100.49 142.555 100.719C142.195 100.948 141.932 101.292 141.766 101.75C141.599 102.203 141.51 102.773 141.5 103.461V103.711C141.5 104.435 141.578 105.047 141.734 105.547C141.896 106.047 142.159 106.427 142.523 106.688C142.893 106.948 143.388 107.078 144.008 107.078C144.539 107.078 144.982 106.935 145.336 106.648C145.69 106.362 145.953 105.964 146.125 105.453C146.302 104.938 146.391 104.346 146.391 103.68C146.391 102.669 146.193 101.867 145.797 101.273C145.406 100.674 144.805 100.375 143.992 100.375ZM153.195 99.2969C154.216 99.2969 154.974 99.526 155.469 99.9844C155.964 100.443 156.211 101.174 156.211 102.18V108H155.266L155.016 106.734H154.953C154.714 107.047 154.464 107.31 154.203 107.523C153.943 107.732 153.641 107.891 153.297 108C152.958 108.104 152.542 108.156 152.047 108.156C151.526 108.156 151.062 108.065 150.656 107.883C150.255 107.701 149.938 107.424 149.703 107.055C149.474 106.685 149.359 106.216 149.359 105.648C149.359 104.794 149.698 104.138 150.375 103.68C151.052 103.221 152.083 102.971 153.469 102.93L154.945 102.867V102.344C154.945 101.604 154.786 101.086 154.469 100.789C154.151 100.492 153.703 100.344 153.125 100.344C152.677 100.344 152.25 100.409 151.844 100.539C151.438 100.669 151.052 100.823 150.688 101L150.289 100.016C150.674 99.8177 151.117 99.6484 151.617 99.5078C152.117 99.3672 152.643 99.2969 153.195 99.2969ZM154.93 103.781L153.625 103.836C152.557 103.878 151.805 104.052 151.367 104.359C150.93 104.667 150.711 105.102 150.711 105.664C150.711 106.154 150.859 106.516 151.156 106.75C151.453 106.984 151.846 107.102 152.336 107.102C153.096 107.102 153.719 106.891 154.203 106.469C154.688 106.047 154.93 105.414 154.93 104.57V103.781ZM165.688 101.586C165.688 102.122 165.531 102.542 165.219 102.844C164.906 103.141 164.503 103.341 164.008 103.445V103.508C164.544 103.581 165.005 103.773 165.391 104.086C165.781 104.393 165.977 104.865 165.977 105.5C165.977 105.99 165.859 106.422 165.625 106.797C165.391 107.172 165.023 107.466 164.523 107.68C164.023 107.893 163.372 108 162.57 108H158.883V99.4375H162.539C163.154 99.4375 163.695 99.5078 164.164 99.6484C164.638 99.7839 165.01 100.008 165.281 100.32C165.552 100.633 165.688 101.055 165.688 101.586ZM164.625 105.5C164.625 104.995 164.432 104.63 164.047 104.406C163.667 104.182 163.112 104.07 162.383 104.07H160.188V106.945H162.414C163.133 106.945 163.68 106.836 164.055 106.617C164.435 106.393 164.625 106.021 164.625 105.5ZM164.367 101.734C164.367 101.328 164.219 101.026 163.922 100.828C163.625 100.625 163.138 100.523 162.461 100.523H160.188V102.984H162.234C162.938 102.984 163.469 102.883 163.828 102.68C164.188 102.477 164.367 102.161 164.367 101.734ZM169.305 99.4375V104.82C169.305 104.924 169.302 105.06 169.297 105.227C169.292 105.388 169.284 105.562 169.273 105.75C169.263 105.932 169.253 106.109 169.242 106.281C169.237 106.448 169.229 106.586 169.219 106.695L173.891 99.4375H175.484V108H174.273V102.75C174.273 102.583 174.276 102.37 174.281 102.109C174.286 101.849 174.294 101.594 174.305 101.344C174.315 101.089 174.323 100.891 174.328 100.75L169.672 108H168.07V99.4375H169.305ZM184.664 108H183.344V100.523H180.742C180.638 101.872 180.505 103.029 180.344 103.992C180.188 104.951 179.99 105.734 179.75 106.344C179.516 106.948 179.229 107.393 178.891 107.68C178.557 107.961 178.159 108.102 177.695 108.102C177.555 108.102 177.422 108.094 177.297 108.078C177.172 108.062 177.065 108.036 176.977 108V107.016C177.044 107.036 177.115 107.052 177.188 107.062C177.266 107.073 177.346 107.078 177.43 107.078C177.664 107.078 177.878 106.982 178.07 106.789C178.268 106.591 178.445 106.294 178.602 105.898C178.763 105.503 178.906 105.003 179.031 104.398C179.156 103.789 179.266 103.073 179.359 102.25C179.458 101.422 179.544 100.484 179.617 99.4375H184.664V108ZM188.633 99.4375V104.82C188.633 104.924 188.63 105.06 188.625 105.227C188.62 105.388 188.612 105.562 188.602 105.75C188.591 105.932 188.581 106.109 188.57 106.281C188.565 106.448 188.557 106.586 188.547 106.695L193.219 99.4375H194.812V108H193.602V102.75C193.602 102.583 193.604 102.37 193.609 102.109C193.615 101.849 193.622 101.594 193.633 101.344C193.643 101.089 193.651 100.891 193.656 100.75L189 108H187.398V99.4375H188.633ZM199.055 106.141L199.156 106.32C199.062 106.701 198.943 107.107 198.797 107.539C198.656 107.971 198.5 108.404 198.328 108.836C198.161 109.273 197.992 109.682 197.82 110.062H196.852C196.961 109.646 197.068 109.206 197.172 108.742C197.276 108.284 197.37 107.831 197.453 107.383C197.542 106.93 197.612 106.516 197.664 106.141H199.055ZM204.516 99.4375H205.906L207.797 104.406C207.906 104.698 208.008 104.979 208.102 105.25C208.195 105.516 208.279 105.771 208.352 106.016C208.424 106.26 208.482 106.497 208.523 106.727H208.578C208.651 106.466 208.755 106.125 208.891 105.703C209.026 105.276 209.172 104.841 209.328 104.398L211.117 99.4375H212.516L208.789 109.258C208.591 109.784 208.359 110.242 208.094 110.633C207.833 111.023 207.516 111.323 207.141 111.531C206.766 111.745 206.312 111.852 205.781 111.852C205.536 111.852 205.32 111.836 205.133 111.805C204.945 111.779 204.784 111.747 204.648 111.711V110.672C204.763 110.698 204.901 110.721 205.062 110.742C205.229 110.763 205.401 110.773 205.578 110.773C205.901 110.773 206.18 110.711 206.414 110.586C206.654 110.466 206.859 110.289 207.031 110.055C207.203 109.82 207.352 109.542 207.477 109.219L207.945 108.016L204.516 99.4375ZM221.055 99.4375V108H219.75V100.555H215.188V108H213.883V99.4375H221.055ZM227.008 99.2969C228.029 99.2969 228.786 99.526 229.281 99.9844C229.776 100.443 230.023 101.174 230.023 102.18V108H229.078L228.828 106.734H228.766C228.526 107.047 228.276 107.31 228.016 107.523C227.755 107.732 227.453 107.891 227.109 108C226.771 108.104 226.354 108.156 225.859 108.156C225.339 108.156 224.875 108.065 224.469 107.883C224.068 107.701 223.75 107.424 223.516 107.055C223.286 106.685 223.172 106.216 223.172 105.648C223.172 104.794 223.51 104.138 224.188 103.68C224.865 103.221 225.896 102.971 227.281 102.93L228.758 102.867V102.344C228.758 101.604 228.599 101.086 228.281 100.789C227.964 100.492 227.516 100.344 226.938 100.344C226.49 100.344 226.062 100.409 225.656 100.539C225.25 100.669 224.865 100.823 224.5 101L224.102 100.016C224.487 99.8177 224.93 99.6484 225.43 99.5078C225.93 99.3672 226.456 99.2969 227.008 99.2969ZM228.742 103.781L227.438 103.836C226.37 103.878 225.617 104.052 225.18 104.359C224.742 104.667 224.523 105.102 224.523 105.664C224.523 106.154 224.672 106.516 224.969 106.75C225.266 106.984 225.659 107.102 226.148 107.102C226.909 107.102 227.531 106.891 228.016 106.469C228.5 106.047 228.742 105.414 228.742 104.57V103.781ZM237.688 99.4375H239.117L235.422 103.57L239.414 108H237.891L234 103.656V108H232.695V99.4375H234V103.594L237.688 99.4375ZM248.344 103.703C248.344 104.406 248.253 105.034 248.07 105.586C247.888 106.138 247.625 106.604 247.281 106.984C246.938 107.365 246.521 107.656 246.031 107.859C245.547 108.057 244.997 108.156 244.383 108.156C243.81 108.156 243.284 108.057 242.805 107.859C242.331 107.656 241.919 107.365 241.57 106.984C241.227 106.604 240.958 106.138 240.766 105.586C240.578 105.034 240.484 104.406 240.484 103.703C240.484 102.766 240.643 101.969 240.961 101.312C241.279 100.651 241.732 100.148 242.32 99.8047C242.914 99.4557 243.62 99.2812 244.438 99.2812C245.219 99.2812 245.901 99.4557 246.484 99.8047C247.073 100.154 247.529 100.659 247.852 101.32C248.18 101.977 248.344 102.771 248.344 103.703ZM241.828 103.703C241.828 104.391 241.919 104.987 242.102 105.492C242.284 105.997 242.565 106.388 242.945 106.664C243.326 106.94 243.815 107.078 244.414 107.078C245.008 107.078 245.495 106.94 245.875 106.664C246.26 106.388 246.544 105.997 246.727 105.492C246.909 104.987 247 104.391 247 103.703C247 103.021 246.909 102.432 246.727 101.938C246.544 101.438 246.263 101.052 245.883 100.781C245.503 100.51 245.01 100.375 244.406 100.375C243.516 100.375 242.862 100.669 242.445 101.258C242.034 101.846 241.828 102.661 241.828 103.703ZM257.391 101.586C257.391 102.122 257.234 102.542 256.922 102.844C256.609 103.141 256.206 103.341 255.711 103.445V103.508C256.247 103.581 256.708 103.773 257.094 104.086C257.484 104.393 257.68 104.865 257.68 105.5C257.68 105.99 257.562 106.422 257.328 106.797C257.094 107.172 256.727 107.466 256.227 107.68C255.727 107.893 255.076 108 254.273 108H250.586V99.4375H254.242C254.857 99.4375 255.398 99.5078 255.867 99.6484C256.341 99.7839 256.714 100.008 256.984 100.32C257.255 100.633 257.391 101.055 257.391 101.586ZM256.328 105.5C256.328 104.995 256.135 104.63 255.75 104.406C255.37 104.182 254.815 104.07 254.086 104.07H251.891V106.945H254.117C254.836 106.945 255.383 106.836 255.758 106.617C256.138 106.393 256.328 106.021 256.328 105.5ZM256.07 101.734C256.07 101.328 255.922 101.026 255.625 100.828C255.328 100.625 254.841 100.523 254.164 100.523H251.891V102.984H253.938C254.641 102.984 255.172 102.883 255.531 102.68C255.891 102.477 256.07 102.161 256.07 101.734ZM262.977 99.2969C263.997 99.2969 264.755 99.526 265.25 99.9844C265.745 100.443 265.992 101.174 265.992 102.18V108H265.047L264.797 106.734H264.734C264.495 107.047 264.245 107.31 263.984 107.523C263.724 107.732 263.422 107.891 263.078 108C262.74 108.104 262.323 108.156 261.828 108.156C261.307 108.156 260.844 108.065 260.438 107.883C260.036 107.701 259.719 107.424 259.484 107.055C259.255 106.685 259.141 106.216 259.141 105.648C259.141 104.794 259.479 104.138 260.156 103.68C260.833 103.221 261.865 102.971 263.25 102.93L264.727 102.867V102.344C264.727 101.604 264.568 101.086 264.25 100.789C263.932 100.492 263.484 100.344 262.906 100.344C262.458 100.344 262.031 100.409 261.625 100.539C261.219 100.669 260.833 100.823 260.469 101L260.07 100.016C260.456 99.8177 260.898 99.6484 261.398 99.5078C261.898 99.3672 262.424 99.2969 262.977 99.2969ZM264.711 103.781L263.406 103.836C262.339 103.878 261.586 104.052 261.148 104.359C260.711 104.667 260.492 105.102 260.492 105.664C260.492 106.154 260.641 106.516 260.938 106.75C261.234 106.984 261.628 107.102 262.117 107.102C262.878 107.102 263.5 106.891 263.984 106.469C264.469 106.047 264.711 105.414 264.711 104.57V103.781ZM269.969 99.4375V103.031H274.742V99.4375H276.039V108H274.742V104.133H269.969V108H268.664V99.4375H269.969ZM286.172 103.703C286.172 104.406 286.081 105.034 285.898 105.586C285.716 106.138 285.453 106.604 285.109 106.984C284.766 107.365 284.349 107.656 283.859 107.859C283.375 108.057 282.826 108.156 282.211 108.156C281.638 108.156 281.112 108.057 280.633 107.859C280.159 107.656 279.747 107.365 279.398 106.984C279.055 106.604 278.786 106.138 278.594 105.586C278.406 105.034 278.312 104.406 278.312 103.703C278.312 102.766 278.471 101.969 278.789 101.312C279.107 100.651 279.56 100.148 280.148 99.8047C280.742 99.4557 281.448 99.2812 282.266 99.2812C283.047 99.2812 283.729 99.4557 284.312 99.8047C284.901 100.154 285.357 100.659 285.68 101.32C286.008 101.977 286.172 102.771 286.172 103.703ZM279.656 103.703C279.656 104.391 279.747 104.987 279.93 105.492C280.112 105.997 280.393 106.388 280.773 106.664C281.154 106.94 281.643 107.078 282.242 107.078C282.836 107.078 283.323 106.94 283.703 106.664C284.089 106.388 284.372 105.997 284.555 105.492C284.737 104.987 284.828 104.391 284.828 103.703C284.828 103.021 284.737 102.432 284.555 101.938C284.372 101.438 284.091 101.052 283.711 100.781C283.331 100.51 282.839 100.375 282.234 100.375C281.344 100.375 280.69 100.669 280.273 101.258C279.862 101.846 279.656 102.661 279.656 103.703ZM294.609 103.617L291.648 99.4375H293.133L295.391 102.734L297.641 99.4375H299.109L296.148 103.617L299.273 108H297.789L295.391 104.508L292.977 108H291.508L294.609 103.617ZM308.328 103.703C308.328 104.406 308.237 105.034 308.055 105.586C307.872 106.138 307.609 106.604 307.266 106.984C306.922 107.365 306.505 107.656 306.016 107.859C305.531 108.057 304.982 108.156 304.367 108.156C303.794 108.156 303.268 108.057 302.789 107.859C302.315 107.656 301.904 107.365 301.555 106.984C301.211 106.604 300.943 106.138 300.75 105.586C300.562 105.034 300.469 104.406 300.469 103.703C300.469 102.766 300.628 101.969 300.945 101.312C301.263 100.651 301.716 100.148 302.305 99.8047C302.898 99.4557 303.604 99.2812 304.422 99.2812C305.203 99.2812 305.885 99.4557 306.469 99.8047C307.057 100.154 307.513 100.659 307.836 101.32C308.164 101.977 308.328 102.771 308.328 103.703ZM301.812 103.703C301.812 104.391 301.904 104.987 302.086 105.492C302.268 105.997 302.549 106.388 302.93 106.664C303.31 106.94 303.799 107.078 304.398 107.078C304.992 107.078 305.479 106.94 305.859 106.664C306.245 106.388 306.529 105.997 306.711 105.492C306.893 104.987 306.984 104.391 306.984 103.703C306.984 103.021 306.893 102.432 306.711 101.938C306.529 101.438 306.247 101.052 305.867 100.781C305.487 100.51 304.995 100.375 304.391 100.375C303.5 100.375 302.846 100.669 302.43 101.258C302.018 101.846 301.812 102.661 301.812 103.703ZM314.594 99.2812C315.661 99.2812 316.513 99.6484 317.148 100.383C317.784 101.117 318.102 102.221 318.102 103.695C318.102 104.669 317.956 105.487 317.664 106.148C317.372 106.81 316.961 107.31 316.43 107.648C315.904 107.987 315.281 108.156 314.562 108.156C314.109 108.156 313.711 108.096 313.367 107.977C313.023 107.857 312.729 107.695 312.484 107.492C312.24 107.289 312.036 107.068 311.875 106.828H311.781C311.797 107.031 311.815 107.276 311.836 107.562C311.862 107.849 311.875 108.099 311.875 108.312V111.828H310.57V99.4375H311.641L311.812 100.703H311.875C312.042 100.443 312.245 100.206 312.484 99.9922C312.724 99.7734 313.016 99.6016 313.359 99.4766C313.708 99.3464 314.12 99.2812 314.594 99.2812ZM314.367 100.375C313.773 100.375 313.294 100.49 312.93 100.719C312.57 100.948 312.307 101.292 312.141 101.75C311.974 102.203 311.885 102.773 311.875 103.461V103.711C311.875 104.435 311.953 105.047 312.109 105.547C312.271 106.047 312.534 106.427 312.898 106.688C313.268 106.948 313.763 107.078 314.383 107.078C314.914 107.078 315.357 106.935 315.711 106.648C316.065 106.362 316.328 105.964 316.5 105.453C316.677 104.938 316.766 104.346 316.766 103.68C316.766 102.669 316.568 101.867 316.172 101.273C315.781 100.674 315.18 100.375 314.367 100.375ZM327.75 103.703C327.75 104.406 327.659 105.034 327.477 105.586C327.294 106.138 327.031 106.604 326.688 106.984C326.344 107.365 325.927 107.656 325.438 107.859C324.953 108.057 324.404 108.156 323.789 108.156C323.216 108.156 322.69 108.057 322.211 107.859C321.737 107.656 321.326 107.365 320.977 106.984C320.633 106.604 320.365 106.138 320.172 105.586C319.984 105.034 319.891 104.406 319.891 103.703C319.891 102.766 320.049 101.969 320.367 101.312C320.685 100.651 321.138 100.148 321.727 99.8047C322.32 99.4557 323.026 99.2812 323.844 99.2812C324.625 99.2812 325.307 99.4557 325.891 99.8047C326.479 100.154 326.935 100.659 327.258 101.32C327.586 101.977 327.75 102.771 327.75 103.703ZM321.234 103.703C321.234 104.391 321.326 104.987 321.508 105.492C321.69 105.997 321.971 106.388 322.352 106.664C322.732 106.94 323.221 107.078 323.82 107.078C324.414 107.078 324.901 106.94 325.281 106.664C325.667 106.388 325.951 105.997 326.133 105.492C326.315 104.987 326.406 104.391 326.406 103.703C326.406 103.021 326.315 102.432 326.133 101.938C325.951 101.438 325.669 101.052 325.289 100.781C324.909 100.51 324.417 100.375 323.812 100.375C322.922 100.375 322.268 100.669 321.852 101.258C321.44 101.846 321.234 102.661 321.234 103.703ZM341.477 99.4375V108H329.992V99.4375H331.289V106.898H335.078V99.4375H336.383V106.898H340.18V99.4375H341.477ZM351.609 103.703C351.609 104.406 351.518 105.034 351.336 105.586C351.154 106.138 350.891 106.604 350.547 106.984C350.203 107.365 349.786 107.656 349.297 107.859C348.812 108.057 348.263 108.156 347.648 108.156C347.076 108.156 346.549 108.057 346.07 107.859C345.596 107.656 345.185 107.365 344.836 106.984C344.492 106.604 344.224 106.138 344.031 105.586C343.844 105.034 343.75 104.406 343.75 103.703C343.75 102.766 343.909 101.969 344.227 101.312C344.544 100.651 344.997 100.148 345.586 99.8047C346.18 99.4557 346.885 99.2812 347.703 99.2812C348.484 99.2812 349.167 99.4557 349.75 99.8047C350.339 100.154 350.794 100.659 351.117 101.32C351.445 101.977 351.609 102.771 351.609 103.703ZM345.094 103.703C345.094 104.391 345.185 104.987 345.367 105.492C345.549 105.997 345.831 106.388 346.211 106.664C346.591 106.94 347.081 107.078 347.68 107.078C348.273 107.078 348.76 106.94 349.141 106.664C349.526 106.388 349.81 105.997 349.992 105.492C350.174 104.987 350.266 104.391 350.266 103.703C350.266 103.021 350.174 102.432 349.992 101.938C349.81 101.438 349.529 101.052 349.148 100.781C348.768 100.51 348.276 100.375 347.672 100.375C346.781 100.375 346.128 100.669 345.711 101.258C345.299 101.846 345.094 102.661 345.094 103.703ZM353.656 107.188C353.656 106.823 353.745 106.565 353.922 106.414C354.099 106.258 354.315 106.18 354.57 106.18C354.836 106.18 355.06 106.258 355.242 106.414C355.424 106.565 355.516 106.823 355.516 107.188C355.516 107.547 355.424 107.81 355.242 107.977C355.06 108.138 354.836 108.219 354.57 108.219C354.315 108.219 354.099 108.138 353.922 107.977C353.745 107.81 353.656 107.547 353.656 107.188ZM29.1719 120.578V130.812H30.5781V134.984H29.3047V132H21.3672V134.984H20.0938V130.812H20.9688C21.3594 130.146 21.724 129.398 22.0625 128.57C22.4062 127.737 22.7109 126.867 22.9766 125.961C23.2474 125.049 23.4661 124.135 23.6328 123.219C23.8047 122.302 23.9141 121.422 23.9609 120.578H29.1719ZM27.8516 121.773H25.1328C25.0859 122.419 24.9818 123.141 24.8203 123.938C24.6589 124.729 24.4505 125.542 24.1953 126.375C23.9453 127.208 23.6641 128.008 23.3516 128.773C23.0443 129.539 22.7188 130.219 22.375 130.812H27.8516V121.773ZM35.6172 123.281C36.3464 123.281 36.9714 123.443 37.4922 123.766C38.013 124.089 38.4115 124.542 38.6875 125.125C38.9635 125.703 39.1016 126.38 39.1016 127.156V127.961H33.1875C33.2031 128.966 33.4531 129.732 33.9375 130.258C34.4219 130.784 35.1042 131.047 35.9844 131.047C36.526 131.047 37.0052 130.997 37.4219 130.898C37.8385 130.799 38.2708 130.654 38.7188 130.461V131.602C38.2865 131.794 37.8568 131.935 37.4297 132.023C37.0078 132.112 36.5078 132.156 35.9297 132.156C35.1068 132.156 34.388 131.99 33.7734 131.656C33.1641 131.318 32.6901 130.823 32.3516 130.172C32.013 129.521 31.8438 128.724 31.8438 127.781C31.8438 126.859 31.9974 126.062 32.3047 125.391C32.6172 124.714 33.0547 124.193 33.6172 123.828C34.1849 123.464 34.8516 123.281 35.6172 123.281ZM35.6016 124.344C34.9089 124.344 34.3568 124.57 33.9453 125.023C33.5339 125.477 33.2891 126.109 33.2109 126.922H37.7422C37.737 126.411 37.6562 125.964 37.5 125.578C37.349 125.188 37.1172 124.885 36.8047 124.672C36.4922 124.453 36.0911 124.344 35.6016 124.344ZM45.3281 123.281C46.3958 123.281 47.2474 123.648 47.8828 124.383C48.5182 125.117 48.8359 126.221 48.8359 127.695C48.8359 128.669 48.6901 129.487 48.3984 130.148C48.1068 130.81 47.6953 131.31 47.1641 131.648C46.638 131.987 46.0156 132.156 45.2969 132.156C44.8438 132.156 44.4453 132.096 44.1016 131.977C43.7578 131.857 43.4635 131.695 43.2188 131.492C42.974 131.289 42.7708 131.068 42.6094 130.828H42.5156C42.5312 131.031 42.5495 131.276 42.5703 131.562C42.5964 131.849 42.6094 132.099 42.6094 132.312V135.828H41.3047V123.438H42.375L42.5469 124.703H42.6094C42.776 124.443 42.9792 124.206 43.2188 123.992C43.4583 123.773 43.75 123.602 44.0938 123.477C44.4427 123.346 44.8542 123.281 45.3281 123.281ZM45.1016 124.375C44.5078 124.375 44.0286 124.49 43.6641 124.719C43.3047 124.948 43.0417 125.292 42.875 125.75C42.7083 126.203 42.6198 126.773 42.6094 127.461V127.711C42.6094 128.435 42.6875 129.047 42.8438 129.547C43.0052 130.047 43.2682 130.427 43.6328 130.688C44.0026 130.948 44.4974 131.078 45.1172 131.078C45.6484 131.078 46.0911 130.935 46.4453 130.648C46.7995 130.362 47.0625 129.964 47.2344 129.453C47.4115 128.938 47.5 128.346 47.5 127.68C47.5 126.669 47.3021 125.867 46.9062 125.273C46.5156 124.674 45.9141 124.375 45.1016 124.375ZM54.3984 123.281C55.1276 123.281 55.7526 123.443 56.2734 123.766C56.7943 124.089 57.1927 124.542 57.4688 125.125C57.7448 125.703 57.8828 126.38 57.8828 127.156V127.961H51.9688C51.9844 128.966 52.2344 129.732 52.7188 130.258C53.2031 130.784 53.8854 131.047 54.7656 131.047C55.3073 131.047 55.7865 130.997 56.2031 130.898C56.6198 130.799 57.0521 130.654 57.5 130.461V131.602C57.0677 131.794 56.638 131.935 56.2109 132.023C55.7891 132.112 55.2891 132.156 54.7109 132.156C53.888 132.156 53.1693 131.99 52.5547 131.656C51.9453 131.318 51.4714 130.823 51.1328 130.172C50.7943 129.521 50.625 128.724 50.625 127.781C50.625 126.859 50.7786 126.062 51.0859 125.391C51.3984 124.714 51.8359 124.193 52.3984 123.828C52.9661 123.464 53.6328 123.281 54.3984 123.281ZM54.3828 124.344C53.6901 124.344 53.138 124.57 52.7266 125.023C52.3151 125.477 52.0703 126.109 51.9922 126.922H56.5234C56.5182 126.411 56.4375 125.964 56.2812 125.578C56.1302 125.188 55.8984 124.885 55.5859 124.672C55.2734 124.453 54.8724 124.344 54.3828 124.344ZM66.8906 125.586C66.8906 126.122 66.7344 126.542 66.4219 126.844C66.1094 127.141 65.7057 127.341 65.2109 127.445V127.508C65.7474 127.581 66.2083 127.773 66.5938 128.086C66.9844 128.393 67.1797 128.865 67.1797 129.5C67.1797 129.99 67.0625 130.422 66.8281 130.797C66.5938 131.172 66.2266 131.466 65.7266 131.68C65.2266 131.893 64.5755 132 63.7734 132H60.0859V123.438H63.7422C64.3568 123.438 64.8984 123.508 65.3672 123.648C65.8411 123.784 66.2135 124.008 66.4844 124.32C66.7552 124.633 66.8906 125.055 66.8906 125.586ZM65.8281 129.5C65.8281 128.995 65.6354 128.63 65.25 128.406C64.8698 128.182 64.3151 128.07 63.5859 128.07H61.3906V130.945H63.6172C64.3359 130.945 64.8828 130.836 65.2578 130.617C65.638 130.393 65.8281 130.021 65.8281 129.5ZM65.5703 125.734C65.5703 125.328 65.4219 125.026 65.125 124.828C64.8281 124.625 64.3411 124.523 63.6641 124.523H61.3906V126.984H63.4375C64.1406 126.984 64.6719 126.883 65.0312 126.68C65.3906 126.477 65.5703 126.161 65.5703 125.734ZM76.6562 127.703C76.6562 128.406 76.5651 129.034 76.3828 129.586C76.2005 130.138 75.9375 130.604 75.5938 130.984C75.25 131.365 74.8333 131.656 74.3438 131.859C73.8594 132.057 73.3099 132.156 72.6953 132.156C72.1224 132.156 71.5964 132.057 71.1172 131.859C70.6432 131.656 70.2318 131.365 69.8828 130.984C69.5391 130.604 69.2708 130.138 69.0781 129.586C68.8906 129.034 68.7969 128.406 68.7969 127.703C68.7969 126.766 68.9557 125.969 69.2734 125.312C69.5911 124.651 70.0443 124.148 70.6328 123.805C71.2266 123.456 71.9323 123.281 72.75 123.281C73.5312 123.281 74.2135 123.456 74.7969 123.805C75.3854 124.154 75.8411 124.659 76.1641 125.32C76.4922 125.977 76.6562 126.771 76.6562 127.703ZM70.1406 127.703C70.1406 128.391 70.2318 128.987 70.4141 129.492C70.5964 129.997 70.8776 130.388 71.2578 130.664C71.638 130.94 72.1276 131.078 72.7266 131.078C73.3203 131.078 73.8073 130.94 74.1875 130.664C74.5729 130.388 74.8568 129.997 75.0391 129.492C75.2214 128.987 75.3125 128.391 75.3125 127.703C75.3125 127.021 75.2214 126.432 75.0391 125.938C74.8568 125.438 74.5755 125.052 74.1953 124.781C73.8151 124.51 73.3229 124.375 72.7188 124.375C71.8281 124.375 71.1745 124.669 70.7578 125.258C70.3464 125.846 70.1406 126.661 70.1406 127.703ZM86.4844 132.156C85.7135 132.156 85.0339 131.997 84.4453 131.68C83.8568 131.362 83.3984 130.878 83.0703 130.227C82.7422 129.576 82.5781 128.755 82.5781 127.766C82.5781 126.729 82.75 125.883 83.0938 125.227C83.4427 124.565 83.9219 124.076 84.5312 123.758C85.1406 123.44 85.8333 123.281 86.6094 123.281C87.0365 123.281 87.4479 123.326 87.8438 123.414C88.2448 123.497 88.5729 123.604 88.8281 123.734L88.4375 124.82C88.1771 124.716 87.875 124.622 87.5312 124.539C87.1927 124.456 86.875 124.414 86.5781 124.414C85.9844 124.414 85.4896 124.542 85.0938 124.797C84.7031 125.052 84.4089 125.427 84.2109 125.922C84.0182 126.417 83.9219 127.026 83.9219 127.75C83.9219 128.443 84.0156 129.034 84.2031 129.523C84.3958 130.013 84.6797 130.388 85.0547 130.648C85.4349 130.904 85.9089 131.031 86.4766 131.031C86.9297 131.031 87.3385 130.984 87.7031 130.891C88.0677 130.792 88.3984 130.677 88.6953 130.547V131.703C88.4089 131.849 88.0885 131.961 87.7344 132.039C87.3854 132.117 86.9688 132.156 86.4844 132.156ZM89.375 123.438H90.7656L92.6562 128.406C92.7656 128.698 92.8672 128.979 92.9609 129.25C93.0547 129.516 93.138 129.771 93.2109 130.016C93.2839 130.26 93.3411 130.497 93.3828 130.727H93.4375C93.5104 130.466 93.6146 130.125 93.75 129.703C93.8854 129.276 94.0312 128.841 94.1875 128.398L95.9766 123.438H97.375L93.6484 133.258C93.4505 133.784 93.2188 134.242 92.9531 134.633C92.6927 135.023 92.375 135.323 92 135.531C91.625 135.745 91.1719 135.852 90.6406 135.852C90.3958 135.852 90.1797 135.836 89.9922 135.805C89.8047 135.779 89.6432 135.747 89.5078 135.711V134.672C89.6224 134.698 89.7604 134.721 89.9219 134.742C90.0885 134.763 90.2604 134.773 90.4375 134.773C90.7604 134.773 91.0391 134.711 91.2734 134.586C91.513 134.466 91.7188 134.289 91.8906 134.055C92.0625 133.82 92.2109 133.542 92.3359 133.219L92.8047 132.016L89.375 123.438ZM105.914 123.438V132H104.609V124.555H100.047V132H98.7422V123.438H105.914ZM111.961 123.281C112.69 123.281 113.315 123.443 113.836 123.766C114.357 124.089 114.755 124.542 115.031 125.125C115.307 125.703 115.445 126.38 115.445 127.156V127.961H109.531C109.547 128.966 109.797 129.732 110.281 130.258C110.766 130.784 111.448 131.047 112.328 131.047C112.87 131.047 113.349 130.997 113.766 130.898C114.182 130.799 114.615 130.654 115.062 130.461V131.602C114.63 131.794 114.201 131.935 113.773 132.023C113.352 132.112 112.852 132.156 112.273 132.156C111.451 132.156 110.732 131.99 110.117 131.656C109.508 131.318 109.034 130.823 108.695 130.172C108.357 129.521 108.188 128.724 108.188 127.781C108.188 126.859 108.341 126.062 108.648 125.391C108.961 124.714 109.398 124.193 109.961 123.828C110.529 123.464 111.195 123.281 111.961 123.281ZM111.945 124.344C111.253 124.344 110.701 124.57 110.289 125.023C109.878 125.477 109.633 126.109 109.555 126.922H114.086C114.081 126.411 114 125.964 113.844 125.578C113.693 125.188 113.461 124.885 113.148 124.672C112.836 124.453 112.435 124.344 111.945 124.344ZM121.672 123.281C122.74 123.281 123.591 123.648 124.227 124.383C124.862 125.117 125.18 126.221 125.18 127.695C125.18 128.669 125.034 129.487 124.742 130.148C124.451 130.81 124.039 131.31 123.508 131.648C122.982 131.987 122.359 132.156 121.641 132.156C121.188 132.156 120.789 132.096 120.445 131.977C120.102 131.857 119.807 131.695 119.562 131.492C119.318 131.289 119.115 131.068 118.953 130.828H118.859C118.875 131.031 118.893 131.276 118.914 131.562C118.94 131.849 118.953 132.099 118.953 132.312V135.828H117.648V123.438H118.719L118.891 124.703H118.953C119.12 124.443 119.323 124.206 119.562 123.992C119.802 123.773 120.094 123.602 120.438 123.477C120.786 123.346 121.198 123.281 121.672 123.281ZM121.445 124.375C120.852 124.375 120.372 124.49 120.008 124.719C119.648 124.948 119.385 125.292 119.219 125.75C119.052 126.203 118.964 126.773 118.953 127.461V127.711C118.953 128.435 119.031 129.047 119.188 129.547C119.349 130.047 119.612 130.427 119.977 130.688C120.346 130.948 120.841 131.078 121.461 131.078C121.992 131.078 122.435 130.935 122.789 130.648C123.143 130.362 123.406 129.964 123.578 129.453C123.755 128.938 123.844 128.346 123.844 127.68C123.844 126.669 123.646 125.867 123.25 125.273C122.859 124.674 122.258 124.375 121.445 124.375ZM128.93 130.141L129.031 130.32C128.938 130.701 128.818 131.107 128.672 131.539C128.531 131.971 128.375 132.404 128.203 132.836C128.036 133.273 127.867 133.682 127.695 134.062H126.727C126.836 133.646 126.943 133.206 127.047 132.742C127.151 132.284 127.245 131.831 127.328 131.383C127.417 130.93 127.487 130.516 127.539 130.141H128.93ZM137.047 123.438V127.031H141.82V123.438H143.117V132H141.82V128.133H137.047V132H135.742V123.438H137.047ZM149.07 123.297C150.091 123.297 150.849 123.526 151.344 123.984C151.839 124.443 152.086 125.174 152.086 126.18V132H151.141L150.891 130.734H150.828C150.589 131.047 150.339 131.31 150.078 131.523C149.818 131.732 149.516 131.891 149.172 132C148.833 132.104 148.417 132.156 147.922 132.156C147.401 132.156 146.938 132.065 146.531 131.883C146.13 131.701 145.812 131.424 145.578 131.055C145.349 130.685 145.234 130.216 145.234 129.648C145.234 128.794 145.573 128.138 146.25 127.68C146.927 127.221 147.958 126.971 149.344 126.93L150.82 126.867V126.344C150.82 125.604 150.661 125.086 150.344 124.789C150.026 124.492 149.578 124.344 149 124.344C148.552 124.344 148.125 124.409 147.719 124.539C147.312 124.669 146.927 124.823 146.562 125L146.164 124.016C146.549 123.818 146.992 123.648 147.492 123.508C147.992 123.367 148.518 123.297 149.07 123.297ZM150.805 127.781L149.5 127.836C148.432 127.878 147.68 128.052 147.242 128.359C146.805 128.667 146.586 129.102 146.586 129.664C146.586 130.154 146.734 130.516 147.031 130.75C147.328 130.984 147.721 131.102 148.211 131.102C148.971 131.102 149.594 130.891 150.078 130.469C150.562 130.047 150.805 129.414 150.805 128.57V127.781ZM166.086 123.438V132H164.781V124.555H160.219V132H158.914V123.438H166.086ZM176.219 127.703C176.219 128.406 176.128 129.034 175.945 129.586C175.763 130.138 175.5 130.604 175.156 130.984C174.812 131.365 174.396 131.656 173.906 131.859C173.422 132.057 172.872 132.156 172.258 132.156C171.685 132.156 171.159 132.057 170.68 131.859C170.206 131.656 169.794 131.365 169.445 130.984C169.102 130.604 168.833 130.138 168.641 129.586C168.453 129.034 168.359 128.406 168.359 127.703C168.359 126.766 168.518 125.969 168.836 125.312C169.154 124.651 169.607 124.148 170.195 123.805C170.789 123.456 171.495 123.281 172.312 123.281C173.094 123.281 173.776 123.456 174.359 123.805C174.948 124.154 175.404 124.659 175.727 125.32C176.055 125.977 176.219 126.771 176.219 127.703ZM169.703 127.703C169.703 128.391 169.794 128.987 169.977 129.492C170.159 129.997 170.44 130.388 170.82 130.664C171.201 130.94 171.69 131.078 172.289 131.078C172.883 131.078 173.37 130.94 173.75 130.664C174.135 130.388 174.419 129.997 174.602 129.492C174.784 128.987 174.875 128.391 174.875 127.703C174.875 127.021 174.784 126.432 174.602 125.938C174.419 125.438 174.138 125.052 173.758 124.781C173.378 124.51 172.885 124.375 172.281 124.375C171.391 124.375 170.737 124.669 170.32 125.258C169.909 125.846 169.703 126.661 169.703 127.703ZM184.734 123.438V130.898H185.961V134.961H184.703V132H178.641V134.961H177.398V130.898H178.07C178.56 130.221 178.966 129.479 179.289 128.672C179.612 127.865 179.857 127.018 180.023 126.133C180.19 125.242 180.279 124.344 180.289 123.438H184.734ZM183.477 124.469H181.445C181.398 125.229 181.286 126.003 181.109 126.789C180.938 127.576 180.708 128.326 180.422 129.039C180.135 129.747 179.802 130.367 179.422 130.898H183.477V124.469ZM190.867 123.297C191.888 123.297 192.646 123.526 193.141 123.984C193.635 124.443 193.883 125.174 193.883 126.18V132H192.938L192.688 130.734H192.625C192.385 131.047 192.135 131.31 191.875 131.523C191.615 131.732 191.312 131.891 190.969 132C190.63 132.104 190.214 132.156 189.719 132.156C189.198 132.156 188.734 132.065 188.328 131.883C187.927 131.701 187.609 131.424 187.375 131.055C187.146 130.685 187.031 130.216 187.031 129.648C187.031 128.794 187.37 128.138 188.047 127.68C188.724 127.221 189.755 126.971 191.141 126.93L192.617 126.867V126.344C192.617 125.604 192.458 125.086 192.141 124.789C191.823 124.492 191.375 124.344 190.797 124.344C190.349 124.344 189.922 124.409 189.516 124.539C189.109 124.669 188.724 124.823 188.359 125L187.961 124.016C188.346 123.818 188.789 123.648 189.289 123.508C189.789 123.367 190.315 123.297 190.867 123.297ZM192.602 127.781L191.297 127.836C190.229 127.878 189.477 128.052 189.039 128.359C188.602 128.667 188.383 129.102 188.383 129.664C188.383 130.154 188.531 130.516 188.828 130.75C189.125 130.984 189.518 131.102 190.008 131.102C190.768 131.102 191.391 130.891 191.875 130.469C192.359 130.047 192.602 129.414 192.602 128.57V127.781ZM200.578 123.281C201.646 123.281 202.497 123.648 203.133 124.383C203.768 125.117 204.086 126.221 204.086 127.695C204.086 128.669 203.94 129.487 203.648 130.148C203.357 130.81 202.945 131.31 202.414 131.648C201.888 131.987 201.266 132.156 200.547 132.156C200.094 132.156 199.695 132.096 199.352 131.977C199.008 131.857 198.714 131.695 198.469 131.492C198.224 131.289 198.021 131.068 197.859 130.828H197.766C197.781 131.031 197.799 131.276 197.82 131.562C197.846 131.849 197.859 132.099 197.859 132.312V135.828H196.555V123.438H197.625L197.797 124.703H197.859C198.026 124.443 198.229 124.206 198.469 123.992C198.708 123.773 199 123.602 199.344 123.477C199.693 123.346 200.104 123.281 200.578 123.281ZM200.352 124.375C199.758 124.375 199.279 124.49 198.914 124.719C198.555 124.948 198.292 125.292 198.125 125.75C197.958 126.203 197.87 126.773 197.859 127.461V127.711C197.859 128.435 197.938 129.047 198.094 129.547C198.255 130.047 198.518 130.427 198.883 130.688C199.253 130.948 199.747 131.078 200.367 131.078C200.898 131.078 201.341 130.935 201.695 130.648C202.049 130.362 202.312 129.964 202.484 129.453C202.661 128.938 202.75 128.346 202.75 127.68C202.75 126.669 202.552 125.867 202.156 125.273C201.766 124.674 201.164 124.375 200.352 124.375ZM213.734 127.703C213.734 128.406 213.643 129.034 213.461 129.586C213.279 130.138 213.016 130.604 212.672 130.984C212.328 131.365 211.911 131.656 211.422 131.859C210.938 132.057 210.388 132.156 209.773 132.156C209.201 132.156 208.674 132.057 208.195 131.859C207.721 131.656 207.31 131.365 206.961 130.984C206.617 130.604 206.349 130.138 206.156 129.586C205.969 129.034 205.875 128.406 205.875 127.703C205.875 126.766 206.034 125.969 206.352 125.312C206.669 124.651 207.122 124.148 207.711 123.805C208.305 123.456 209.01 123.281 209.828 123.281C210.609 123.281 211.292 123.456 211.875 123.805C212.464 124.154 212.919 124.659 213.242 125.32C213.57 125.977 213.734 126.771 213.734 127.703ZM207.219 127.703C207.219 128.391 207.31 128.987 207.492 129.492C207.674 129.997 207.956 130.388 208.336 130.664C208.716 130.94 209.206 131.078 209.805 131.078C210.398 131.078 210.885 130.94 211.266 130.664C211.651 130.388 211.935 129.997 212.117 129.492C212.299 128.987 212.391 128.391 212.391 127.703C212.391 127.021 212.299 126.432 212.117 125.938C211.935 125.438 211.654 125.052 211.273 124.781C210.893 124.51 210.401 124.375 209.797 124.375C208.906 124.375 208.253 124.669 207.836 125.258C207.424 125.846 207.219 126.661 207.219 127.703ZM220.969 123.438H222.398L218.703 127.57L222.695 132H221.172L217.281 127.656V132H215.977V123.438H217.281V127.594L220.969 123.438ZM235.203 125.586C235.203 126.122 235.047 126.542 234.734 126.844C234.422 127.141 234.018 127.341 233.523 127.445V127.508C234.06 127.581 234.521 127.773 234.906 128.086C235.297 128.393 235.492 128.865 235.492 129.5C235.492 129.99 235.375 130.422 235.141 130.797C234.906 131.172 234.539 131.466 234.039 131.68C233.539 131.893 232.888 132 232.086 132H228.398V123.438H232.055C232.669 123.438 233.211 123.508 233.68 123.648C234.154 123.784 234.526 124.008 234.797 124.32C235.068 124.633 235.203 125.055 235.203 125.586ZM234.141 129.5C234.141 128.995 233.948 128.63 233.562 128.406C233.182 128.182 232.628 128.07 231.898 128.07H229.703V130.945H231.93C232.648 130.945 233.195 130.836 233.57 130.617C233.951 130.393 234.141 130.021 234.141 129.5ZM233.883 125.734C233.883 125.328 233.734 125.026 233.438 124.828C233.141 124.625 232.654 124.523 231.977 124.523H229.703V126.984H231.75C232.453 126.984 232.984 126.883 233.344 126.68C233.703 126.477 233.883 126.161 233.883 125.734ZM245.172 132.156C244.401 132.156 243.721 131.997 243.133 131.68C242.544 131.362 242.086 130.878 241.758 130.227C241.43 129.576 241.266 128.755 241.266 127.766C241.266 126.729 241.438 125.883 241.781 125.227C242.13 124.565 242.609 124.076 243.219 123.758C243.828 123.44 244.521 123.281 245.297 123.281C245.724 123.281 246.135 123.326 246.531 123.414C246.932 123.497 247.26 123.604 247.516 123.734L247.125 124.82C246.865 124.716 246.562 124.622 246.219 124.539C245.88 124.456 245.562 124.414 245.266 124.414C244.672 124.414 244.177 124.542 243.781 124.797C243.391 125.052 243.096 125.427 242.898 125.922C242.706 126.417 242.609 127.026 242.609 127.75C242.609 128.443 242.703 129.034 242.891 129.523C243.083 130.013 243.367 130.388 243.742 130.648C244.122 130.904 244.596 131.031 245.164 131.031C245.617 131.031 246.026 130.984 246.391 130.891C246.755 130.792 247.086 130.677 247.383 130.547V131.703C247.096 131.849 246.776 131.961 246.422 132.039C246.073 132.117 245.656 132.156 245.172 132.156ZM252.617 123.297C253.638 123.297 254.396 123.526 254.891 123.984C255.385 124.443 255.633 125.174 255.633 126.18V132H254.688L254.438 130.734H254.375C254.135 131.047 253.885 131.31 253.625 131.523C253.365 131.732 253.062 131.891 252.719 132C252.38 132.104 251.964 132.156 251.469 132.156C250.948 132.156 250.484 132.065 250.078 131.883C249.677 131.701 249.359 131.424 249.125 131.055C248.896 130.685 248.781 130.216 248.781 129.648C248.781 128.794 249.12 128.138 249.797 127.68C250.474 127.221 251.505 126.971 252.891 126.93L254.367 126.867V126.344C254.367 125.604 254.208 125.086 253.891 124.789C253.573 124.492 253.125 124.344 252.547 124.344C252.099 124.344 251.672 124.409 251.266 124.539C250.859 124.669 250.474 124.823 250.109 125L249.711 124.016C250.096 123.818 250.539 123.648 251.039 123.508C251.539 123.367 252.065 123.297 252.617 123.297ZM254.352 127.781L253.047 127.836C251.979 127.878 251.227 128.052 250.789 128.359C250.352 128.667 250.133 129.102 250.133 129.664C250.133 130.154 250.281 130.516 250.578 130.75C250.875 130.984 251.268 131.102 251.758 131.102C252.518 131.102 253.141 130.891 253.625 130.469C254.109 130.047 254.352 129.414 254.352 128.57V127.781ZM267.344 123.438V132H266.172V126.422C266.172 126.193 266.177 125.961 266.188 125.727C266.203 125.487 266.221 125.247 266.242 125.008H266.195L263.352 132H262.25L259.477 125.008H259.43C259.445 125.247 259.456 125.487 259.461 125.727C259.471 125.961 259.477 126.208 259.477 126.469V132H258.297V123.438H260.039L262.805 130.438L265.609 123.438H267.344ZM270.039 132V123.438H271.344V126.969H273.688C274.417 126.969 275.016 127.06 275.484 127.242C275.958 127.424 276.31 127.695 276.539 128.055C276.768 128.414 276.883 128.859 276.883 129.391C276.883 129.922 276.768 130.383 276.539 130.773C276.315 131.164 275.961 131.466 275.477 131.68C274.997 131.893 274.372 132 273.602 132H270.039ZM271.344 130.945H273.477C274.122 130.945 274.638 130.831 275.023 130.602C275.409 130.372 275.602 129.99 275.602 129.453C275.602 128.927 275.422 128.562 275.062 128.359C274.703 128.151 274.188 128.047 273.516 128.047H271.344V130.945ZM278.297 132V123.438H279.594V132H278.297ZM283.57 123.438V128.82C283.57 128.924 283.568 129.06 283.562 129.227C283.557 129.388 283.549 129.562 283.539 129.75C283.529 129.932 283.518 130.109 283.508 130.281C283.503 130.448 283.495 130.586 283.484 130.695L288.156 123.438H289.75V132H288.539V126.75C288.539 126.583 288.542 126.37 288.547 126.109C288.552 125.849 288.56 125.594 288.57 125.344C288.581 125.089 288.589 124.891 288.594 124.75L283.938 132H282.336V123.438H283.57ZM289.109 119.914C289.062 120.44 288.93 120.88 288.711 121.234C288.497 121.589 288.182 121.857 287.766 122.039C287.349 122.216 286.815 122.305 286.164 122.305C285.492 122.305 284.951 122.219 284.539 122.047C284.133 121.87 283.831 121.604 283.633 121.25C283.44 120.896 283.326 120.451 283.289 119.914H284.508C284.565 120.487 284.719 120.878 284.969 121.086C285.219 121.294 285.625 121.398 286.188 121.398C286.688 121.398 287.081 121.289 287.367 121.07C287.654 120.852 287.826 120.466 287.883 119.914H289.109ZM300.688 123.281C301.755 123.281 302.607 123.648 303.242 124.383C303.878 125.117 304.195 126.221 304.195 127.695C304.195 128.669 304.049 129.487 303.758 130.148C303.466 130.81 303.055 131.31 302.523 131.648C301.997 131.987 301.375 132.156 300.656 132.156C300.203 132.156 299.805 132.096 299.461 131.977C299.117 131.857 298.823 131.695 298.578 131.492C298.333 131.289 298.13 131.068 297.969 130.828H297.875C297.891 131.031 297.909 131.276 297.93 131.562C297.956 131.849 297.969 132.099 297.969 132.312V135.828H296.664V123.438H297.734L297.906 124.703H297.969C298.135 124.443 298.339 124.206 298.578 123.992C298.818 123.773 299.109 123.602 299.453 123.477C299.802 123.346 300.214 123.281 300.688 123.281ZM300.461 124.375C299.867 124.375 299.388 124.49 299.023 124.719C298.664 124.948 298.401 125.292 298.234 125.75C298.068 126.203 297.979 126.773 297.969 127.461V127.711C297.969 128.435 298.047 129.047 298.203 129.547C298.365 130.047 298.628 130.427 298.992 130.688C299.362 130.948 299.857 131.078 300.477 131.078C301.008 131.078 301.451 130.935 301.805 130.648C302.159 130.362 302.422 129.964 302.594 129.453C302.771 128.938 302.859 128.346 302.859 127.68C302.859 126.669 302.661 125.867 302.266 125.273C301.875 124.674 301.273 124.375 300.461 124.375ZM309.664 123.297C310.685 123.297 311.443 123.526 311.938 123.984C312.432 124.443 312.68 125.174 312.68 126.18V132H311.734L311.484 130.734H311.422C311.182 131.047 310.932 131.31 310.672 131.523C310.411 131.732 310.109 131.891 309.766 132C309.427 132.104 309.01 132.156 308.516 132.156C307.995 132.156 307.531 132.065 307.125 131.883C306.724 131.701 306.406 131.424 306.172 131.055C305.943 130.685 305.828 130.216 305.828 129.648C305.828 128.794 306.167 128.138 306.844 127.68C307.521 127.221 308.552 126.971 309.938 126.93L311.414 126.867V126.344C311.414 125.604 311.255 125.086 310.938 124.789C310.62 124.492 310.172 124.344 309.594 124.344C309.146 124.344 308.719 124.409 308.312 124.539C307.906 124.669 307.521 124.823 307.156 125L306.758 124.016C307.143 123.818 307.586 123.648 308.086 123.508C308.586 123.367 309.112 123.297 309.664 123.297ZM311.398 127.781L310.094 127.836C309.026 127.878 308.273 128.052 307.836 128.359C307.398 128.667 307.18 129.102 307.18 129.664C307.18 130.154 307.328 130.516 307.625 130.75C307.922 130.984 308.315 131.102 308.805 131.102C309.565 131.102 310.188 130.891 310.672 130.469C311.156 130.047 311.398 129.414 311.398 128.57V127.781ZM317.555 123.281C318.195 123.281 318.75 123.37 319.219 123.547C319.688 123.719 320.049 123.971 320.305 124.305C320.56 124.638 320.688 125.044 320.688 125.523C320.688 126.039 320.547 126.451 320.266 126.758C319.984 127.065 319.596 127.286 319.102 127.422V127.484C319.451 127.578 319.766 127.714 320.047 127.891C320.333 128.062 320.56 128.292 320.727 128.578C320.898 128.859 320.984 129.211 320.984 129.633C320.984 130.112 320.854 130.544 320.594 130.93C320.333 131.31 319.938 131.609 319.406 131.828C318.875 132.047 318.203 132.156 317.391 132.156C316.99 132.156 316.609 132.133 316.25 132.086C315.891 132.044 315.565 131.982 315.273 131.898C314.982 131.815 314.727 131.716 314.508 131.602V130.422C314.872 130.599 315.299 130.755 315.789 130.891C316.279 131.026 316.807 131.094 317.375 131.094C317.812 131.094 318.206 131.044 318.555 130.945C318.904 130.841 319.18 130.677 319.383 130.453C319.591 130.224 319.695 129.924 319.695 129.555C319.695 129.216 319.604 128.938 319.422 128.719C319.24 128.495 318.966 128.331 318.602 128.227C318.242 128.117 317.786 128.062 317.234 128.062H316.086V127H317.031C317.766 127 318.352 126.896 318.789 126.688C319.227 126.479 319.445 126.128 319.445 125.633C319.445 125.206 319.276 124.888 318.938 124.68C318.599 124.466 318.115 124.359 317.484 124.359C317.016 124.359 316.602 124.409 316.242 124.508C315.883 124.602 315.495 124.737 315.078 124.914L314.617 123.875C315.065 123.677 315.534 123.529 316.023 123.43C316.513 123.331 317.023 123.281 317.555 123.281ZM324.57 130.141L324.672 130.32C324.578 130.701 324.458 131.107 324.312 131.539C324.172 131.971 324.016 132.404 323.844 132.836C323.677 133.273 323.508 133.682 323.336 134.062H322.367C322.477 133.646 322.583 133.206 322.688 132.742C322.792 132.284 322.885 131.831 322.969 131.383C323.057 130.93 323.128 130.516 323.18 130.141H324.57ZM28.75 151.703C28.75 152.406 28.6589 153.034 28.4766 153.586C28.2943 154.138 28.0312 154.604 27.6875 154.984C27.3438 155.365 26.9271 155.656 26.4375 155.859C25.9531 156.057 25.4036 156.156 24.7891 156.156C24.2161 156.156 23.6901 156.057 23.2109 155.859C22.737 155.656 22.3255 155.365 21.9766 154.984C21.6328 154.604 21.3646 154.138 21.1719 153.586C20.9844 153.034 20.8906 152.406 20.8906 151.703C20.8906 150.766 21.0495 149.969 21.3672 149.312C21.6849 148.651 22.138 148.148 22.7266 147.805C23.3203 147.456 24.026 147.281 24.8438 147.281C25.625 147.281 26.3073 147.456 26.8906 147.805C27.4792 148.154 27.9349 148.659 28.2578 149.32C28.5859 149.977 28.75 150.771 28.75 151.703ZM22.2344 151.703C22.2344 152.391 22.3255 152.987 22.5078 153.492C22.6901 153.997 22.9714 154.388 23.3516 154.664C23.7318 154.94 24.2214 155.078 24.8203 155.078C25.4141 155.078 25.901 154.94 26.2812 154.664C26.6667 154.388 26.9505 153.997 27.1328 153.492C27.3151 152.987 27.4062 152.391 27.4062 151.703C27.4062 151.021 27.3151 150.432 27.1328 149.938C26.9505 149.438 26.6693 149.052 26.2891 148.781C25.9089 148.51 25.4167 148.375 24.8125 148.375C23.9219 148.375 23.2682 148.669 22.8516 149.258C22.4401 149.846 22.2344 150.661 22.2344 151.703ZM32.125 147.438V150.516C32.125 151.052 32.2708 151.448 32.5625 151.703C32.8594 151.958 33.2891 152.086 33.8516 152.086C34.3932 152.086 34.8854 152.003 35.3281 151.836C35.7708 151.669 36.2188 151.443 36.6719 151.156V147.438H37.9688V156H36.6719V152.164C36.1927 152.471 35.7214 152.714 35.2578 152.891C34.7943 153.068 34.2396 153.156 33.5938 153.156C32.7135 153.156 32.0312 152.927 31.5469 152.469C31.0677 152.01 30.8281 151.391 30.8281 150.609V147.438H32.125ZM44.0078 147.281C44.737 147.281 45.362 147.443 45.8828 147.766C46.4036 148.089 46.8021 148.542 47.0781 149.125C47.3542 149.703 47.4922 150.38 47.4922 151.156V151.961H41.5781C41.5938 152.966 41.8438 153.732 42.3281 154.258C42.8125 154.784 43.4948 155.047 44.375 155.047C44.9167 155.047 45.3958 154.997 45.8125 154.898C46.2292 154.799 46.6615 154.654 47.1094 154.461V155.602C46.6771 155.794 46.2474 155.935 45.8203 156.023C45.3984 156.112 44.8984 156.156 44.3203 156.156C43.4974 156.156 42.7786 155.99 42.1641 155.656C41.5547 155.318 41.0807 154.823 40.7422 154.172C40.4036 153.521 40.2344 152.724 40.2344 151.781C40.2344 150.859 40.388 150.062 40.6953 149.391C41.0078 148.714 41.4453 148.193 42.0078 147.828C42.5755 147.464 43.2422 147.281 44.0078 147.281ZM43.9922 148.344C43.2995 148.344 42.7474 148.57 42.3359 149.023C41.9245 149.477 41.6797 150.109 41.6016 150.922H46.1328C46.1276 150.411 46.0469 149.964 45.8906 149.578C45.7396 149.188 45.5078 148.885 45.1953 148.672C44.8828 148.453 44.4818 148.344 43.9922 148.344ZM51 147.438V151.031H55.7734V147.438H57.0703V156H55.7734V152.133H51V156H49.6953V147.438H51ZM61.125 150.969H63.75C64.4792 150.969 65.0859 151.06 65.5703 151.242C66.0547 151.424 66.4167 151.695 66.6562 152.055C66.901 152.414 67.0234 152.859 67.0234 153.391C67.0234 153.922 66.9036 154.383 66.6641 154.773C66.4297 155.164 66.0651 155.466 65.5703 155.68C65.0807 155.893 64.4479 156 63.6719 156H59.8203V147.438H61.125V150.969ZM65.7188 153.453C65.7188 152.927 65.5312 152.562 65.1562 152.359C64.7865 152.151 64.2682 152.047 63.6016 152.047H61.125V154.945H63.6094C64.2344 154.945 64.7422 154.831 65.1328 154.602C65.5234 154.367 65.7188 153.984 65.7188 153.453ZM74.7188 147.438V151.031H79.4922V147.438H80.7891V156H79.4922V152.133H74.7188V156H73.4141V147.438H74.7188ZM86.8359 147.281C87.5651 147.281 88.1901 147.443 88.7109 147.766C89.2318 148.089 89.6302 148.542 89.9062 149.125C90.1823 149.703 90.3203 150.38 90.3203 151.156V151.961H84.4062C84.4219 152.966 84.6719 153.732 85.1562 154.258C85.6406 154.784 86.3229 155.047 87.2031 155.047C87.7448 155.047 88.224 154.997 88.6406 154.898C89.0573 154.799 89.4896 154.654 89.9375 154.461V155.602C89.5052 155.794 89.0755 155.935 88.6484 156.023C88.2266 156.112 87.7266 156.156 87.1484 156.156C86.3255 156.156 85.6068 155.99 84.9922 155.656C84.3828 155.318 83.9089 154.823 83.5703 154.172C83.2318 153.521 83.0625 152.724 83.0625 151.781C83.0625 150.859 83.2161 150.062 83.5234 149.391C83.8359 148.714 84.2734 148.193 84.8359 147.828C85.4036 147.464 86.0703 147.281 86.8359 147.281ZM86.8203 148.344C86.1276 148.344 85.5755 148.57 85.1641 149.023C84.7526 149.477 84.5078 150.109 84.4297 150.922H88.9609C88.9557 150.411 88.875 149.964 88.7188 149.578C88.5677 149.188 88.3359 148.885 88.0234 148.672C87.7109 148.453 87.3099 148.344 86.8203 148.344ZM99.9062 151.703C99.9062 152.406 99.8151 153.034 99.6328 153.586C99.4505 154.138 99.1875 154.604 98.8438 154.984C98.5 155.365 98.0833 155.656 97.5938 155.859C97.1094 156.057 96.5599 156.156 95.9453 156.156C95.3724 156.156 94.8464 156.057 94.3672 155.859C93.8932 155.656 93.4818 155.365 93.1328 154.984C92.7891 154.604 92.5208 154.138 92.3281 153.586C92.1406 153.034 92.0469 152.406 92.0469 151.703C92.0469 150.766 92.2057 149.969 92.5234 149.312C92.8411 148.651 93.2943 148.148 93.8828 147.805C94.4766 147.456 95.1823 147.281 96 147.281C96.7812 147.281 97.4635 147.456 98.0469 147.805C98.6354 148.154 99.0911 148.659 99.4141 149.32C99.7422 149.977 99.9062 150.771 99.9062 151.703ZM93.3906 151.703C93.3906 152.391 93.4818 152.987 93.6641 153.492C93.8464 153.997 94.1276 154.388 94.5078 154.664C94.888 154.94 95.3776 155.078 95.9766 155.078C96.5703 155.078 97.0573 154.94 97.4375 154.664C97.8229 154.388 98.1068 153.997 98.2891 153.492C98.4714 152.987 98.5625 152.391 98.5625 151.703C98.5625 151.021 98.4714 150.432 98.2891 149.938C98.1068 149.438 97.8255 149.052 97.4453 148.781C97.0651 148.51 96.5729 148.375 95.9688 148.375C95.0781 148.375 94.4245 148.669 94.0078 149.258C93.5964 149.846 93.3906 150.661 93.3906 151.703ZM101.703 150.859C101.703 149.641 101.82 148.602 102.055 147.742C102.289 146.878 102.651 146.185 103.141 145.664C103.635 145.138 104.271 144.779 105.047 144.586C105.714 144.404 106.391 144.247 107.078 144.117C107.766 143.982 108.435 143.865 109.086 143.766L109.312 144.906C108.984 144.953 108.641 145.008 108.281 145.07C107.922 145.128 107.562 145.19 107.203 145.258C106.844 145.32 106.505 145.388 106.188 145.461C105.87 145.529 105.589 145.599 105.344 145.672C104.901 145.792 104.518 146 104.195 146.297C103.878 146.594 103.625 147.003 103.438 147.523C103.255 148.044 103.146 148.701 103.109 149.492H103.203C103.359 149.263 103.573 149.036 103.844 148.812C104.115 148.589 104.438 148.404 104.812 148.258C105.188 148.107 105.609 148.031 106.078 148.031C106.818 148.031 107.435 148.193 107.93 148.516C108.424 148.833 108.797 149.281 109.047 149.859C109.297 150.438 109.422 151.115 109.422 151.891C109.422 152.823 109.26 153.607 108.938 154.242C108.62 154.878 108.172 155.357 107.594 155.68C107.016 155.997 106.336 156.156 105.555 156.156C104.951 156.156 104.409 156.039 103.93 155.805C103.456 155.57 103.052 155.227 102.719 154.773C102.391 154.32 102.138 153.766 101.961 153.109C101.789 152.453 101.703 151.703 101.703 150.859ZM105.656 155.078C106.151 155.078 106.576 154.974 106.93 154.766C107.289 154.557 107.565 154.229 107.758 153.781C107.956 153.328 108.055 152.74 108.055 152.016C108.055 151.109 107.88 150.401 107.531 149.891C107.188 149.375 106.635 149.117 105.875 149.117C105.401 149.117 104.971 149.219 104.586 149.422C104.201 149.62 103.875 149.857 103.609 150.133C103.344 150.409 103.151 150.656 103.031 150.875C103.031 151.406 103.07 151.922 103.148 152.422C103.227 152.922 103.362 153.372 103.555 153.773C103.747 154.174 104.013 154.492 104.352 154.727C104.695 154.961 105.13 155.078 105.656 155.078ZM111.664 156V147.438H112.969V150.969H115.312C116.042 150.969 116.641 151.06 117.109 151.242C117.583 151.424 117.935 151.695 118.164 152.055C118.393 152.414 118.508 152.859 118.508 153.391C118.508 153.922 118.393 154.383 118.164 154.773C117.94 155.164 117.586 155.466 117.102 155.68C116.622 155.893 115.997 156 115.227 156H111.664ZM112.969 154.945H115.102C115.747 154.945 116.263 154.831 116.648 154.602C117.034 154.372 117.227 153.99 117.227 153.453C117.227 152.927 117.047 152.562 116.688 152.359C116.328 152.151 115.812 152.047 115.141 152.047H112.969V154.945ZM119.922 156V147.438H121.219V156H119.922ZM125.094 147.438V150.516C125.094 151.052 125.24 151.448 125.531 151.703C125.828 151.958 126.258 152.086 126.82 152.086C127.362 152.086 127.854 152.003 128.297 151.836C128.74 151.669 129.188 151.443 129.641 151.156V147.438H130.938V156H129.641V152.164C129.161 152.471 128.69 152.714 128.227 152.891C127.763 153.068 127.208 153.156 126.562 153.156C125.682 153.156 125 152.927 124.516 152.469C124.036 152.01 123.797 151.391 123.797 150.609V147.438H125.094ZM134.984 147.438V151.031H139.758V147.438H141.055V156H139.758V152.133H134.984V156H133.68V147.438H134.984ZM151.188 151.703C151.188 152.406 151.096 153.034 150.914 153.586C150.732 154.138 150.469 154.604 150.125 154.984C149.781 155.365 149.365 155.656 148.875 155.859C148.391 156.057 147.841 156.156 147.227 156.156C146.654 156.156 146.128 156.057 145.648 155.859C145.174 155.656 144.763 155.365 144.414 154.984C144.07 154.604 143.802 154.138 143.609 153.586C143.422 153.034 143.328 152.406 143.328 151.703C143.328 150.766 143.487 149.969 143.805 149.312C144.122 148.651 144.576 148.148 145.164 147.805C145.758 147.456 146.464 147.281 147.281 147.281C148.062 147.281 148.745 147.456 149.328 147.805C149.917 148.154 150.372 148.659 150.695 149.32C151.023 149.977 151.188 150.771 151.188 151.703ZM144.672 151.703C144.672 152.391 144.763 152.987 144.945 153.492C145.128 153.997 145.409 154.388 145.789 154.664C146.169 154.94 146.659 155.078 147.258 155.078C147.852 155.078 148.339 154.94 148.719 154.664C149.104 154.388 149.388 153.997 149.57 153.492C149.753 152.987 149.844 152.391 149.844 151.703C149.844 151.021 149.753 150.432 149.57 149.938C149.388 149.438 149.107 149.052 148.727 148.781C148.346 148.51 147.854 148.375 147.25 148.375C146.359 148.375 145.706 148.669 145.289 149.258C144.878 149.846 144.672 150.661 144.672 151.703ZM153.234 155.188C153.234 154.823 153.323 154.565 153.5 154.414C153.677 154.258 153.893 154.18 154.148 154.18C154.414 154.18 154.638 154.258 154.82 154.414C155.003 154.565 155.094 154.823 155.094 155.188C155.094 155.547 155.003 155.81 154.82 155.977C154.638 156.138 154.414 156.219 154.148 156.219C153.893 156.219 153.677 156.138 153.5 155.977C153.323 155.81 153.234 155.547 153.234 155.188Z" fill="#070707"/>
<path d="M106.636 65L105.405 61.8281H101.399L100.176 65H99L102.91 54.9648H103.956L107.839 65H106.636ZM105.057 60.7959L103.888 57.6445C103.86 57.5625 103.815 57.4281 103.751 57.2412C103.692 57.0544 103.63 56.8607 103.566 56.6602C103.503 56.4596 103.45 56.2979 103.409 56.1748C103.364 56.3617 103.313 56.5485 103.259 56.7354C103.209 56.9176 103.159 57.0885 103.108 57.248C103.058 57.403 103.015 57.5352 102.979 57.6445L101.789 60.7959H105.057ZM114.675 65H113.52V58.458H111.243C111.152 59.6383 111.036 60.6501 110.895 61.4932C110.758 62.3317 110.585 63.0176 110.375 63.5508C110.17 64.0794 109.919 64.4691 109.623 64.7197C109.331 64.9658 108.983 65.0889 108.577 65.0889C108.454 65.0889 108.338 65.082 108.229 65.0684C108.119 65.0547 108.026 65.0319 107.948 65V64.1387C108.007 64.1569 108.069 64.1706 108.133 64.1797C108.201 64.1888 108.272 64.1934 108.345 64.1934C108.55 64.1934 108.737 64.109 108.905 63.9404C109.078 63.7673 109.233 63.5075 109.37 63.1611C109.511 62.8148 109.637 62.3773 109.746 61.8486C109.855 61.3154 109.951 60.6888 110.033 59.9688C110.12 59.2441 110.195 58.4238 110.259 57.5078H114.675V65ZM119.952 57.3711C120.59 57.3711 121.137 57.5124 121.593 57.7949C122.049 58.0775 122.397 58.474 122.639 58.9844C122.88 59.4902 123.001 60.0827 123.001 60.7617V61.4658H117.826C117.84 62.3454 118.059 63.0153 118.482 63.4756C118.906 63.9359 119.503 64.166 120.273 64.166C120.747 64.166 121.167 64.1227 121.531 64.0361C121.896 63.9495 122.274 63.8219 122.666 63.6533V64.6514C122.288 64.82 121.912 64.943 121.538 65.0205C121.169 65.098 120.731 65.1367 120.226 65.1367C119.506 65.1367 118.877 64.9909 118.339 64.6992C117.806 64.403 117.391 63.9701 117.095 63.4004C116.799 62.8307 116.65 62.1335 116.65 61.3086C116.65 60.502 116.785 59.8047 117.054 59.2168C117.327 58.6243 117.71 58.1686 118.202 57.8496C118.699 57.5306 119.282 57.3711 119.952 57.3711ZM119.938 58.3008C119.332 58.3008 118.849 58.499 118.489 58.8955C118.129 59.292 117.915 59.8457 117.847 60.5566H121.812C121.807 60.11 121.736 59.7181 121.6 59.3809C121.467 59.0391 121.265 58.7747 120.991 58.5879C120.718 58.3965 120.367 58.3008 119.938 58.3008ZM129.297 57.5078H130.548L127.314 61.124L130.808 65H129.475L126.07 61.1992V65H124.929V57.5078H126.07V61.1445L129.297 57.5078ZM135.162 65.1367C134.488 65.1367 133.893 64.9977 133.378 64.7197C132.863 64.4417 132.462 64.0179 132.175 63.4482C131.888 62.8786 131.744 62.1608 131.744 61.2949C131.744 60.388 131.895 59.6475 132.195 59.0732C132.501 58.4945 132.92 58.0661 133.453 57.7881C133.986 57.5101 134.592 57.3711 135.271 57.3711C135.645 57.3711 136.005 57.4098 136.352 57.4873C136.702 57.5602 136.99 57.6536 137.213 57.7676L136.871 58.7178C136.643 58.6266 136.379 58.5446 136.078 58.4717C135.782 58.3988 135.504 58.3623 135.244 58.3623C134.725 58.3623 134.292 58.474 133.945 58.6973C133.604 58.9206 133.346 59.2487 133.173 59.6816C133.004 60.1146 132.92 60.6478 132.92 61.2812C132.92 61.8874 133.002 62.4046 133.166 62.833C133.335 63.2614 133.583 63.5895 133.911 63.8174C134.244 64.0407 134.659 64.1523 135.155 64.1523C135.552 64.1523 135.91 64.1113 136.229 64.0293C136.548 63.9427 136.837 63.8424 137.097 63.7285V64.7402C136.846 64.8678 136.566 64.9658 136.256 65.0342C135.951 65.1025 135.586 65.1367 135.162 65.1367ZM141.759 57.3711C142.397 57.3711 142.944 57.5124 143.399 57.7949C143.855 58.0775 144.204 58.474 144.445 58.9844C144.687 59.4902 144.808 60.0827 144.808 60.7617V61.4658H139.633C139.646 62.3454 139.865 63.0153 140.289 63.4756C140.713 63.9359 141.31 64.166 142.08 64.166C142.554 64.166 142.973 64.1227 143.338 64.0361C143.702 63.9495 144.081 63.8219 144.473 63.6533V64.6514C144.094 64.82 143.718 64.943 143.345 65.0205C142.976 65.098 142.538 65.1367 142.032 65.1367C141.312 65.1367 140.683 64.9909 140.146 64.6992C139.612 64.403 139.198 63.9701 138.901 63.4004C138.605 62.8307 138.457 62.1335 138.457 61.3086C138.457 60.502 138.591 59.8047 138.86 59.2168C139.134 58.6243 139.517 58.1686 140.009 57.8496C140.506 57.5306 141.089 57.3711 141.759 57.3711ZM141.745 58.3008C141.139 58.3008 140.656 58.499 140.296 58.8955C139.936 59.292 139.722 59.8457 139.653 60.5566H143.618C143.614 60.11 143.543 59.7181 143.406 59.3809C143.274 59.0391 143.071 58.7747 142.798 58.5879C142.524 58.3965 142.174 58.3008 141.745 58.3008ZM147.815 57.5078V62.2178C147.815 62.3089 147.813 62.4274 147.809 62.5732C147.804 62.7145 147.797 62.8672 147.788 63.0312C147.779 63.1908 147.77 63.3457 147.761 63.4961C147.756 63.6419 147.749 63.7627 147.74 63.8584L151.828 57.5078H153.223V65H152.163V60.4062C152.163 60.2604 152.165 60.0736 152.17 59.8457C152.174 59.6178 152.181 59.3945 152.19 59.1758C152.2 58.9525 152.206 58.7793 152.211 58.6562L148.137 65H146.735V57.5078H147.815ZM152.662 54.4248C152.621 54.8851 152.505 55.2702 152.313 55.5801C152.127 55.89 151.851 56.1247 151.486 56.2842C151.122 56.4391 150.655 56.5166 150.085 56.5166C149.497 56.5166 149.023 56.4414 148.663 56.291C148.308 56.1361 148.043 55.9036 147.87 55.5938C147.701 55.2839 147.601 54.8942 147.569 54.4248H148.636C148.686 54.9261 148.82 55.2679 149.039 55.4502C149.258 55.6325 149.613 55.7236 150.105 55.7236C150.543 55.7236 150.887 55.6279 151.138 55.4365C151.388 55.2451 151.539 54.9079 151.589 54.4248H152.662ZM156.935 63.373L157.023 63.5303C156.941 63.863 156.837 64.2184 156.709 64.5967C156.586 64.9749 156.449 65.3532 156.299 65.7314C156.153 66.1143 156.005 66.472 155.854 66.8047H155.007C155.103 66.4401 155.196 66.055 155.287 65.6494C155.378 65.2484 155.46 64.8519 155.533 64.46C155.611 64.0635 155.672 63.7012 155.718 63.373H156.935ZM171.099 65L167.742 56.1543H167.688C167.706 56.3411 167.722 56.569 167.735 56.8379C167.749 57.1068 167.76 57.4007 167.77 57.7197C167.779 58.0342 167.783 58.3555 167.783 58.6836V65H166.703V55.0059H168.426L171.591 63.3184H171.639L174.852 55.0059H176.561V65H175.412V58.6016C175.412 58.3053 175.417 58.0091 175.426 57.7129C175.435 57.4121 175.446 57.1296 175.46 56.8652C175.474 56.5964 175.487 56.3639 175.501 56.168H175.446L172.049 65H171.099ZM185.584 61.2402C185.584 61.8555 185.504 62.4046 185.345 62.8877C185.185 63.3708 184.955 63.7786 184.654 64.1113C184.354 64.444 183.989 64.6992 183.561 64.877C183.137 65.0501 182.656 65.1367 182.118 65.1367C181.617 65.1367 181.157 65.0501 180.737 64.877C180.323 64.6992 179.963 64.444 179.657 64.1113C179.356 63.7786 179.122 63.3708 178.953 62.8877C178.789 62.4046 178.707 61.8555 178.707 61.2402C178.707 60.4199 178.846 59.7227 179.124 59.1484C179.402 58.5697 179.799 58.1299 180.313 57.8291C180.833 57.5238 181.451 57.3711 182.166 57.3711C182.85 57.3711 183.447 57.5238 183.957 57.8291C184.472 58.1344 184.871 58.5765 185.153 59.1553C185.44 59.7295 185.584 60.4245 185.584 61.2402ZM179.883 61.2402C179.883 61.8418 179.963 62.3636 180.122 62.8057C180.282 63.2477 180.528 63.5895 180.86 63.8311C181.193 64.0726 181.621 64.1934 182.146 64.1934C182.665 64.1934 183.091 64.0726 183.424 63.8311C183.761 63.5895 184.009 63.2477 184.169 62.8057C184.328 62.3636 184.408 61.8418 184.408 61.2402C184.408 60.6432 184.328 60.1283 184.169 59.6953C184.009 59.2578 183.763 58.9206 183.431 58.6836C183.098 58.4466 182.667 58.3281 182.139 58.3281C181.359 58.3281 180.787 58.5856 180.423 59.1006C180.063 59.6156 179.883 60.3288 179.883 61.2402ZM190.547 65.1367C189.872 65.1367 189.278 64.9977 188.763 64.7197C188.248 64.4417 187.847 64.0179 187.56 63.4482C187.272 62.8786 187.129 62.1608 187.129 61.2949C187.129 60.388 187.279 59.6475 187.58 59.0732C187.885 58.4945 188.305 58.0661 188.838 57.7881C189.371 57.5101 189.977 57.3711 190.656 57.3711C191.03 57.3711 191.39 57.4098 191.736 57.4873C192.087 57.5602 192.374 57.6536 192.598 57.7676L192.256 58.7178C192.028 58.6266 191.764 58.5446 191.463 58.4717C191.167 58.3988 190.889 58.3623 190.629 58.3623C190.109 58.3623 189.676 58.474 189.33 58.6973C188.988 58.9206 188.731 59.2487 188.558 59.6816C188.389 60.1146 188.305 60.6478 188.305 61.2812C188.305 61.8874 188.387 62.4046 188.551 62.833C188.719 63.2614 188.968 63.5895 189.296 63.8174C189.629 64.0407 190.043 64.1523 190.54 64.1523C190.937 64.1523 191.294 64.1113 191.613 64.0293C191.932 63.9427 192.222 63.8424 192.481 63.7285V64.7402C192.231 64.8678 191.951 64.9658 191.641 65.0342C191.335 65.1025 190.971 65.1367 190.547 65.1367ZM198.627 57.5078H199.878L196.645 61.124L200.138 65H198.805L195.4 61.1992V65H194.259V57.5078H195.4V61.1445L198.627 57.5078ZM207.445 59.3877C207.445 59.8571 207.309 60.224 207.035 60.4883C206.762 60.748 206.409 60.9235 205.976 61.0146V61.0693C206.445 61.1331 206.848 61.3018 207.186 61.5752C207.527 61.8441 207.698 62.2565 207.698 62.8125C207.698 63.2409 207.596 63.6191 207.391 63.9473C207.186 64.2754 206.864 64.5329 206.427 64.7197C205.989 64.9066 205.42 65 204.718 65H201.491V57.5078H204.69C205.228 57.5078 205.702 57.5693 206.112 57.6924C206.527 57.8109 206.853 58.0068 207.09 58.2803C207.327 58.5537 207.445 58.9229 207.445 59.3877ZM206.516 62.8125C206.516 62.3704 206.347 62.0514 206.01 61.8555C205.677 61.6595 205.192 61.5615 204.554 61.5615H202.633V64.0771H204.581C205.21 64.0771 205.688 63.9814 206.017 63.79C206.349 63.5941 206.516 63.2682 206.516 62.8125ZM206.29 59.5176C206.29 59.1621 206.16 58.8978 205.9 58.7246C205.641 58.5469 205.215 58.458 204.622 58.458H202.633V60.6113H204.424C205.039 60.6113 205.504 60.5225 205.818 60.3447C206.133 60.167 206.29 59.8913 206.29 59.5176ZM212.333 57.3848C213.226 57.3848 213.889 57.5853 214.322 57.9863C214.755 58.3874 214.972 59.0277 214.972 59.9072V65H214.145L213.926 63.8926H213.871C213.661 64.166 213.443 64.3962 213.215 64.583C212.987 64.7653 212.723 64.9043 212.422 65C212.126 65.0911 211.761 65.1367 211.328 65.1367C210.872 65.1367 210.467 65.057 210.111 64.8975C209.76 64.738 209.482 64.4964 209.277 64.1729C209.077 63.8493 208.977 63.4391 208.977 62.9424C208.977 62.195 209.273 61.6208 209.865 61.2197C210.458 60.8187 211.36 60.5999 212.572 60.5635L213.864 60.5088V60.0508C213.864 59.4036 213.725 58.9502 213.447 58.6904C213.169 58.4307 212.777 58.3008 212.271 58.3008C211.88 58.3008 211.506 58.3577 211.15 58.4717C210.795 58.5856 210.458 58.7201 210.139 58.875L209.79 58.0137C210.127 57.8405 210.515 57.6924 210.952 57.5693C211.39 57.4463 211.85 57.3848 212.333 57.3848ZM213.851 61.3086L212.709 61.3564C211.775 61.3929 211.116 61.5456 210.733 61.8145C210.351 62.0833 210.159 62.4639 210.159 62.9561C210.159 63.3844 210.289 63.7012 210.549 63.9062C210.809 64.1113 211.153 64.2139 211.581 64.2139C212.246 64.2139 212.791 64.0293 213.215 63.6602C213.639 63.291 213.851 62.7373 213.851 61.999V61.3086Z" fill="#070707"/>
<path d="M104.788 20.7525C105.283 19.7492 106.714 19.7491 107.209 20.7525L109.567 25.5303L114.84 26.2964C115.947 26.4573 116.389 27.8181 115.588 28.5991L111.772 32.318L112.673 37.5693C112.862 38.6721 111.705 39.5131 110.714 38.9924L105.998 36.5131L101.283 38.9924C100.292 39.5131 99.1346 38.6721 99.3237 37.5693L100.224 32.318L96.4092 28.5991C95.6079 27.8181 96.0501 26.4573 97.1574 26.2964L102.43 25.5303L104.788 20.7525Z" fill="#F9ED37"/>
<path d="M124.788 20.7525C125.283 19.7492 126.714 19.7491 127.209 20.7525L129.567 25.5303L134.84 26.2964C135.947 26.4573 136.389 27.8181 135.588 28.5991L131.772 32.318L132.673 37.5693C132.862 38.6721 131.705 39.5131 130.714 38.9924L125.998 36.5131L121.283 38.9924C120.292 39.5131 119.135 38.6721 119.324 37.5693L120.224 32.318L116.409 28.5991C115.608 27.8181 116.05 26.4573 117.157 26.2964L122.43 25.5303L124.788 20.7525Z" fill="#F9ED37"/>
<path d="M144.788 20.7525C145.283 19.7492 146.714 19.7491 147.209 20.7525L149.567 25.5303L154.84 26.2964C155.947 26.4573 156.389 27.8181 155.588 28.5991L151.772 32.318L152.673 37.5693C152.862 38.6721 151.705 39.5131 150.714 38.9924L145.998 36.5131L141.283 38.9924C140.292 39.5131 139.135 38.6721 139.324 37.5693L140.224 32.318L136.409 28.5991C135.608 27.8181 136.05 26.4573 137.157 26.2964L142.43 25.5303L144.788 20.7525Z" fill="#F9ED37"/>
<path d="M164.788 20.7525C165.283 19.7492 166.714 19.7491 167.209 20.7525L169.567 25.5303L174.84 26.2964C175.947 26.4573 176.389 27.8181 175.588 28.5991L171.772 32.318L172.673 37.5693C172.862 38.6721 171.705 39.5131 170.714 38.9924L165.998 36.5131L161.283 38.9924C160.292 39.5131 159.135 38.6721 159.324 37.5693L160.224 32.318L156.409 28.5991C155.608 27.8181 156.05 26.4573 157.157 26.2964L162.43 25.5303L164.788 20.7525Z" fill="#F9ED37"/>
<path d="M184.788 20.7525C185.283 19.7492 186.714 19.7491 187.209 20.7525L189.567 25.5303L194.84 26.2964C195.947 26.4573 196.389 27.8181 195.588 28.5991L191.772 32.318L192.673 37.5693C192.862 38.6721 191.705 39.5131 190.714 38.9924L185.998 36.5131L181.283 38.9924C180.292 39.5131 179.135 38.6721 179.324 37.5693L180.224 32.318L176.409 28.5991C175.608 27.8181 176.05 26.4573 177.157 26.2964L182.43 25.5303L184.788 20.7525Z" fill="#F9ED37"/>
<circle cx="45" cy="45" r="25" fill="#002200"/>
<path d="M51.543 55L48.8223 47.9316H40.4277L37.6523 55H36.2168L44.0781 34.9434H45.3633L53.0195 55H51.543ZM48.3711 46.6602L45.6094 39.168C45.5365 38.9766 45.4453 38.7305 45.3359 38.4297C45.2357 38.1289 45.1263 37.8099 45.0078 37.4727C44.8984 37.1354 44.7891 36.8164 44.6797 36.5156C44.5885 36.8346 44.4883 37.1536 44.3789 37.4727C44.2695 37.7917 44.1647 38.1016 44.0645 38.4023C43.9642 38.694 43.8685 38.9583 43.7773 39.1953L40.9062 46.6602H48.3711Z" fill="white"/>
</g>
<defs>
<clipPath id="clip0_43_903">
<rect width="390" height="230" fill="white"/>
</clipPath>
</defs>
</svg>
