<svg width="101" height="101" viewBox="0 0 101 101" fill="none" xmlns="http://www.w3.org/2000/svg">
<path d="M73.13 91.6636C71.9003 91.6531 70.6911 91.9793 69.6335 92.6066C68.5759 93.234 67.7102 94.1387 67.13 95.2228C66.3642 96.7191 65.1861 97.9651 63.7349 98.8137C62.2837 99.6623 60.6199 100.078 58.94 100.012C57.3399 99.9967 55.783 99.4907 54.48 98.5621C53.2466 97.5931 51.7235 97.0664 50.155 97.0664C48.5864 97.0664 47.0633 97.5931 45.83 98.5621C44.8438 99.2454 43.7255 99.7149 42.547 99.9403C41.3685 100.166 40.1558 100.142 38.987 99.8708C37.8182 99.5996 36.7191 99.0869 35.7603 98.3656C34.8015 97.6443 34.0044 96.7304 33.42 95.6827C32.7074 94.263 31.5417 93.1215 30.1072 92.4388C28.6727 91.7561 27.0514 91.5713 25.5 91.9135C20.76 92.6534 16.01 88.6342 15.66 83.7053C15.6559 82.1889 15.1594 80.7148 14.245 79.5049C13.3306 78.2951 12.0479 77.4148 10.59 76.9967C5.40999 75.1971 3.03999 70.1482 4.88999 64.8794C5.44177 63.5241 5.56797 62.0331 5.25181 60.6045C4.93565 59.1758 4.1921 57.8772 3.11999 56.8811C-0.880005 52.882 -0.880005 47.4132 3.11999 43.3641C4.19147 42.3784 4.93543 41.0884 5.25185 39.6675C5.56828 38.2465 5.442 36.7628 4.88999 35.4158C3.01999 30.057 5.35999 25.058 10.61 23.2284C12.0435 22.8012 13.3024 21.9261 14.2022 20.7314C15.102 19.5368 15.5954 18.0853 15.61 16.5899C15.6876 15.3625 16.016 14.164 16.575 13.0685C17.1341 11.973 17.9118 11.0037 18.8601 10.2204C19.8085 9.43712 20.9074 8.85653 22.089 8.51449C23.2706 8.17245 24.5097 8.0762 25.73 8.2317C27.1892 8.54909 28.7123 8.37741 30.0642 7.74317C31.4161 7.10892 32.5216 6.04739 33.21 4.72246C33.9839 3.25742 35.1554 2.04029 36.5899 1.21087C38.0245 0.381452 39.6639 -0.0266334 41.32 0.0334807C42.9878 0.0691431 44.6056 0.609458 45.96 1.58314C47.1613 2.5114 48.6367 3.01498 50.155 3.01498C51.6733 3.01498 53.1487 2.5114 54.35 1.58314C55.3439 0.881071 56.475 0.396846 57.6691 0.162182C58.8632 -0.0724812 60.0935 -0.0522885 61.2793 0.221438C62.465 0.495164 63.5796 1.01625 64.5499 1.75056C65.5203 2.48488 66.3245 3.41585 66.91 4.48251C67.6242 5.88333 68.784 7.00697 70.2069 7.67663C71.6298 8.3463 73.235 8.52398 74.77 8.18171C79.55 7.42187 84.3 11.481 84.61 16.4799C84.6373 17.965 85.1365 19.4029 86.0353 20.5856C86.9342 21.7683 88.1861 22.6343 89.61 23.0585C94.85 24.8381 97.27 29.907 95.4 35.2058C94.8437 36.5611 94.716 38.0543 95.0343 39.4843C95.3525 40.9143 96.1014 42.2125 97.18 43.2041C101.18 47.2032 101.18 52.702 97.18 56.7212C96.1102 57.708 95.3681 58.9986 95.0535 60.4194C94.7389 61.8403 94.8668 63.3234 95.42 64.6694C97.3 70.0483 94.91 75.0772 89.6 76.8868C88.2004 77.3194 86.9718 78.1802 86.0873 79.3479C85.2029 80.5155 84.7072 81.9311 84.67 83.3954C84.5978 84.6369 84.269 85.8501 83.7043 86.9582C83.1396 88.0663 82.3513 89.0454 81.3891 89.8336C80.4269 90.6218 79.3117 91.202 78.1139 91.5376C76.9161 91.8732 75.6618 91.957 74.43 91.7835C74.01 91.7135 73.58 91.7036 73.13 91.6636ZM24.7 10.5012C21.01 10.2613 18.23 12.7807 17.77 16.4999C17.7198 17.1045 17.633 17.7055 17.51 18.2995C17.1567 19.9217 16.3705 21.4178 15.2348 22.629C14.0991 23.8402 12.6564 24.721 11.06 25.178C10.1634 25.4639 9.33526 25.9312 8.62705 26.5508C7.91885 27.1705 7.34573 27.9291 6.94334 28.7797C6.54096 29.6302 6.31792 30.5544 6.2881 31.4948C6.25828 32.4352 6.42231 33.3717 6.76999 34.246C7.56405 36.0633 7.76144 38.0855 7.33382 40.022C6.90619 41.9585 5.87555 43.7096 4.38999 45.0237C3.71672 45.671 3.18127 46.4477 2.81583 47.3071C2.45039 48.1665 2.26249 49.0909 2.26342 50.0247C2.26435 50.9586 2.4541 51.8826 2.82127 52.7413C3.18843 53.6 3.72543 54.3756 4.39999 55.0215C5.87109 56.3326 6.89179 58.0736 7.31721 59.9975C7.74263 61.9213 7.55117 63.9303 6.76999 65.7392C6.42902 66.6042 6.26806 67.5296 6.29694 68.459C6.32583 69.3883 6.54396 70.3019 6.93799 71.1441C7.33203 71.9863 7.8937 72.7393 8.58867 73.3571C9.28365 73.9749 10.0973 74.4445 10.98 74.7372C12.8534 75.2815 14.5122 76.3928 15.7281 77.9182C16.944 79.4436 17.6574 81.3081 17.77 83.2554C18.29 87.6744 21.36 90.1439 25.69 89.634C30.02 89.1241 32.97 90.7538 35.15 94.413C35.596 95.224 36.2072 95.9325 36.944 96.4927C37.6809 97.053 38.5272 97.4524 39.4281 97.6654C40.329 97.8783 41.2645 97.8999 42.1743 97.7289C43.0841 97.5579 43.948 97.198 44.71 96.6725C46.2696 95.4996 48.1684 94.8653 50.12 94.8653C52.0716 94.8653 53.9703 95.4996 55.53 96.6725C56.4364 97.2543 57.4613 97.6266 58.53 97.7622C61.53 98.1022 63.76 96.7025 65.35 94.073C66.1881 92.4784 67.5119 91.1917 69.1298 90.3991C70.7478 89.6065 72.576 89.349 74.35 89.664C78.68 90.2439 81.99 87.7544 82.5 83.3354C83.01 78.9163 85.18 76.1869 89.26 74.8072C90.1357 74.5027 90.9422 74.0272 91.6325 73.4085C92.3229 72.7897 92.8835 72.04 93.2817 71.2029C93.6799 70.3657 93.9078 69.4578 93.9521 68.5319C93.9964 67.606 93.8564 66.6805 93.54 65.8092C93.1632 64.7731 92.9114 63.6957 92.79 62.5999C92.6934 61.2093 92.9131 59.815 93.4327 58.5215C93.9523 57.228 94.7582 56.069 95.79 55.1315C96.4743 54.4951 97.0226 53.7268 97.4018 52.8727C97.781 52.0187 97.9832 51.0968 97.9963 50.1625C98.0094 49.2282 97.833 48.3009 97.4779 47.4367C97.1228 46.5724 96.5962 45.789 95.93 45.1337C94.4183 43.7919 93.3714 42.0052 92.9402 40.0307C92.5089 38.0561 92.7154 35.9957 93.53 34.1461C93.8563 33.2896 94.006 32.3759 93.9701 31.4601C93.9342 30.5442 93.7135 29.6451 93.3212 28.8167C92.9288 27.9884 92.373 27.2479 91.6872 26.6397C91.0013 26.0316 90.1995 25.5684 89.33 25.278C87.4361 24.7408 85.7576 23.625 84.5294 22.0869C83.3011 20.5488 82.5846 18.6653 82.48 16.6999C81.99 12.2808 78.68 9.80136 74.33 10.3812C72.5972 10.7146 70.803 10.4803 69.214 9.71297C67.6251 8.94567 66.3261 7.68638 65.51 6.12216C65.0384 5.20902 64.3746 4.40881 63.5643 3.77651C62.754 3.14421 61.8163 2.69482 60.8158 2.45923C59.8153 2.22364 58.7756 2.20743 57.7682 2.41173C56.7608 2.61602 55.8096 3.03596 54.98 3.6427C53.589 4.69768 51.8909 5.26874 50.145 5.26874C48.399 5.26874 46.701 4.69768 45.31 3.6427C44.4893 3.01829 43.5407 2.5829 42.5321 2.36767C41.5235 2.15244 40.4798 2.16269 39.4756 2.39768C38.4714 2.63267 37.5316 3.0866 36.7233 3.727C35.915 4.3674 35.2583 5.17845 34.8 6.10216C34.2735 7.15181 33.5111 8.06537 32.5725 8.77131C31.6339 9.47725 30.5447 9.95641 29.39 10.1713C27.8354 10.382 26.2688 10.4922 24.7 10.5012Z" fill="#269014"/>
<path d="M50.13 31.2467C54.33 31.2467 58.52 31.2467 62.71 31.2467C63.0414 31.2284 63.3721 31.2929 63.6724 31.4342C63.9727 31.5756 64.233 31.7895 64.43 32.0565C66.43 34.536 68.43 36.9955 70.43 39.4449C70.6747 39.6829 70.8177 40.0065 70.8289 40.3476C70.84 40.6888 70.7186 41.021 70.49 41.2745C64.0233 50.2259 57.57 59.1907 51.13 68.1687C50.48 69.0785 49.8 69.0085 49.08 68.0187L33.13 45.9535C32.02 44.4139 30.93 42.8542 29.79 41.3445C29.6614 41.2096 29.5611 41.0504 29.4949 40.8762C29.4286 40.702 29.3979 40.5163 29.4044 40.33C29.4109 40.1438 29.4546 39.9607 29.5328 39.7916C29.6111 39.6224 29.7223 39.4706 29.86 39.345C31.86 36.9255 33.86 34.486 35.86 32.0266C36.057 31.7595 36.3173 31.5456 36.6176 31.4042C36.9179 31.2629 37.2486 31.1984 37.58 31.2167C41.74 31.2567 45.93 31.2467 50.13 31.2467ZM50.01 63.0198H50.24L55.41 41.4845H44.83L50.01 63.0198ZM67.91 41.4145C64.42 41.4145 61.19 41.4145 57.97 41.4145C57.75 41.4145 57.42 41.8744 57.35 42.1643C56.25 46.6134 55.18 51.0624 54.11 55.5114L52.4 62.5899L52.56 62.6599L67.91 41.4145ZM47.78 62.8099C47.7921 62.6601 47.7921 62.5097 47.78 62.36C46.16 55.6614 44.53 48.9629 42.94 42.2543C42.78 41.5745 42.52 41.3745 41.86 41.3845C38.98 41.3845 36.09 41.3845 33.21 41.3845C32.9348 41.4007 32.661 41.4341 32.39 41.4845L47.78 62.8099ZM36.94 33.8861L32.55 39.305H41.35L36.94 33.8861ZM50.12 33.8861L45.74 39.295H54.53L50.12 33.8861ZM67.74 39.345L63.31 33.8961L58.87 39.345H67.74ZM52.33 33.3463L56.72 38.7451L61.13 33.3863L52.33 33.3463ZM39.13 33.3463L43.54 38.7651L47.93 33.3463H39.13Z" fill="#269014"/>
</svg>
