<svg width="101" height="101" viewBox="0 0 101 101" fill="none" xmlns="http://www.w3.org/2000/svg">
<path d="M73.19 91.6636C71.9603 91.6531 70.7512 91.9793 69.6935 92.6066C68.6359 93.234 67.7702 94.1387 67.19 95.2228C66.4242 96.7191 65.2461 97.9651 63.7949 98.8137C62.3437 99.6623 60.6799 100.078 59 100.012C57.3999 99.9967 55.843 99.4907 54.54 98.5621C53.3066 97.5931 51.7836 97.0664 50.215 97.0664C48.6464 97.0664 47.1233 97.5931 45.89 98.5621C44.9038 99.2454 43.7855 99.7149 42.607 99.9403C41.4285 100.166 40.2158 100.142 39.047 99.8708C37.8782 99.5996 36.7791 99.0869 35.8203 98.3656C34.8615 97.6443 34.0644 96.7304 33.48 95.6827C32.7674 94.263 31.6017 93.1215 30.1672 92.4388C28.7327 91.7561 27.1114 91.5713 25.56 91.9135C20.82 92.6534 16.07 88.6342 15.72 83.7053C15.7159 82.1889 15.2194 80.7148 14.305 79.5049C13.3906 78.2951 12.1079 77.4148 10.65 76.9967C5.46999 75.1971 3.09999 70.1482 4.94999 64.8794C5.50177 63.5241 5.62797 62.0331 5.31181 60.6045C4.99565 59.1758 4.2521 57.8772 3.17999 56.8811C-0.820007 52.882 -0.820007 47.4132 3.17999 43.3641C4.25147 42.3784 4.99543 41.0884 5.31185 39.6675C5.62828 38.2465 5.502 36.7628 4.94999 35.4158C3.07999 30.057 5.41999 25.058 10.67 23.2284C12.1035 22.8012 13.3624 21.9261 14.2622 20.7314C15.162 19.5368 15.6554 18.0853 15.67 16.5899C15.7476 15.3625 16.076 14.164 16.635 13.0685C17.1941 11.973 17.9718 11.0037 18.9201 10.2204C19.8685 9.43712 20.9674 8.85653 22.149 8.51449C23.3306 8.17245 24.5697 8.0762 25.79 8.2317C27.2492 8.54909 28.7723 8.37741 30.1242 7.74317C31.4761 7.10892 32.5816 6.04739 33.27 4.72246C34.0439 3.25742 35.2154 2.04029 36.6499 1.21087C38.0845 0.381452 39.7239 -0.0266334 41.38 0.0334807C43.0478 0.0691431 44.6656 0.609458 46.02 1.58314C47.2213 2.5114 48.6967 3.01498 50.215 3.01498C51.7333 3.01498 53.2087 2.5114 54.41 1.58314C55.4039 0.881071 56.535 0.396846 57.7291 0.162182C58.9232 -0.0724812 60.1535 -0.0522885 61.3393 0.221438C62.525 0.495164 63.6396 1.01625 64.6099 1.75056C65.5803 2.48488 66.3845 3.41585 66.97 4.48251C67.6842 5.88333 68.844 7.00697 70.2669 7.67663C71.6898 8.3463 73.295 8.52398 74.83 8.18171C79.61 7.42187 84.36 11.481 84.67 16.4799C84.6973 17.965 85.1965 19.4029 86.0954 20.5856C86.9942 21.7683 88.2462 22.6343 89.67 23.0585C94.91 24.8381 97.33 29.907 95.46 35.2058C94.9037 36.5611 94.7761 38.0543 95.0943 39.4843C95.4126 40.9143 96.1614 42.2125 97.24 43.2041C101.24 47.2032 101.24 52.702 97.24 56.7212C96.1702 57.708 95.4282 58.9986 95.1135 60.4194C94.7989 61.8403 94.9268 63.3234 95.48 64.6694C97.36 70.0483 94.97 75.0772 89.66 76.8868C88.2604 77.3194 87.0318 78.1802 86.1473 79.3479C85.2629 80.5155 84.7672 81.9311 84.73 83.3954C84.6578 84.6369 84.329 85.8501 83.7643 86.9582C83.1996 88.0663 82.4113 89.0454 81.4491 89.8336C80.4869 90.6218 79.3717 91.202 78.1739 91.5376C76.9761 91.8732 75.7218 91.957 74.49 91.7835C74.07 91.7135 73.64 91.7036 73.19 91.6636ZM24.76 10.5012C21.07 10.2613 18.29 12.7807 17.83 16.4999C17.7798 17.1045 17.693 17.7055 17.57 18.2995C17.2167 19.9217 16.4305 21.4178 15.2948 22.629C14.1591 23.8402 12.7164 24.721 11.12 25.178C10.2234 25.4639 9.39526 25.9312 8.68705 26.5508C7.97885 27.1705 7.40573 27.9291 7.00334 28.7797C6.60096 29.6302 6.37792 30.5544 6.3481 31.4948C6.31828 32.4352 6.48231 33.3717 6.82999 34.246C7.62405 36.0633 7.82144 38.0855 7.39381 40.022C6.96618 41.9585 5.93555 43.7096 4.44999 45.0237C3.77672 45.671 3.24127 46.4477 2.87583 47.3071C2.51038 48.1665 2.32248 49.0909 2.32342 50.0247C2.32435 50.9586 2.5141 51.8826 2.88126 52.7413C3.24843 53.6 3.78542 54.3756 4.45999 55.0215C5.93109 56.3326 6.95179 58.0736 7.37721 59.9975C7.80263 61.9213 7.61117 63.9303 6.82999 65.7392C6.48902 66.6042 6.32806 67.5296 6.35694 68.459C6.38583 69.3883 6.60396 70.3019 6.99799 71.1441C7.39203 71.9863 7.9537 72.7393 8.64867 73.3571C9.34365 73.9749 10.1573 74.4445 11.04 74.7372C12.9134 75.2815 14.5722 76.3928 15.7881 77.9182C17.004 79.4436 17.7174 81.3081 17.83 83.2554C18.35 87.6744 21.42 90.1439 25.75 89.634C30.08 89.1241 33.03 90.7538 35.21 94.413C35.656 95.224 36.2672 95.9325 37.0041 96.4927C37.7409 97.053 38.5872 97.4524 39.4881 97.6654C40.389 97.8783 41.3246 97.8999 42.2344 97.7289C43.1441 97.5579 44.008 97.198 44.77 96.6725C46.3297 95.4996 48.2284 94.8653 50.18 94.8653C52.1316 94.8653 54.0303 95.4996 55.59 96.6725C56.4965 97.2543 57.5214 97.6266 58.59 97.7622C61.59 98.1022 63.82 96.7025 65.41 94.073C66.2481 92.4784 67.5719 91.1917 69.1898 90.3991C70.8078 89.6065 72.636 89.349 74.41 89.664C78.74 90.2439 82.05 87.7544 82.56 83.3354C83.07 78.9163 85.24 76.1869 89.32 74.8072C90.1957 74.5027 91.0022 74.0272 91.6926 73.4085C92.3829 72.7897 92.9435 72.04 93.3417 71.2029C93.7399 70.3657 93.9678 69.4578 94.0121 68.5319C94.0565 67.606 93.9164 66.6805 93.6 65.8092C93.2232 64.7731 92.9714 63.6957 92.85 62.5999C92.7534 61.2093 92.9731 59.815 93.4927 58.5215C94.0123 57.228 94.8182 56.069 95.85 55.1315C96.5343 54.4951 97.0826 53.7268 97.4618 52.8727C97.841 52.0187 98.0432 51.0968 98.0563 50.1625C98.0694 49.2282 97.8931 48.3009 97.5379 47.4367C97.1828 46.5724 96.6562 45.789 95.99 45.1337C94.4783 43.7919 93.4315 42.0052 93.0002 40.0307C92.5689 38.0561 92.7754 35.9957 93.59 34.1461C93.9163 33.2896 94.066 32.3759 94.0301 31.4601C93.9942 30.5442 93.7735 29.6451 93.3812 28.8167C92.9888 27.9884 92.4331 27.2479 91.7472 26.6397C91.0613 26.0316 90.2595 25.5684 89.39 25.278C87.4961 24.7408 85.8176 23.625 84.5894 22.0869C83.3611 20.5488 82.6446 18.6653 82.54 16.6999C82.05 12.2808 78.74 9.80136 74.39 10.3812C72.6572 10.7146 70.863 10.4803 69.2741 9.71297C67.6851 8.94567 66.3861 7.68638 65.57 6.12216C65.0984 5.20902 64.4346 4.40881 63.6243 3.77651C62.814 3.14421 61.8764 2.69482 60.8758 2.45923C59.8753 2.22364 58.8356 2.20743 57.8282 2.41173C56.8208 2.61602 55.8696 3.03596 55.04 3.6427C53.649 4.69768 51.951 5.26874 50.205 5.26874C48.459 5.26874 46.761 4.69768 45.37 3.6427C44.5493 3.01829 43.6007 2.5829 42.5921 2.36767C41.5835 2.15244 40.5398 2.16269 39.5356 2.39768C38.5314 2.63267 37.5916 3.0866 36.7833 3.727C35.975 4.3674 35.3183 5.17845 34.86 6.10216C34.3335 7.15181 33.5711 8.06537 32.6325 8.77131C31.6939 9.47725 30.6047 9.95641 29.45 10.1713C27.8954 10.382 26.3288 10.4922 24.76 10.5012Z" fill="#269014"/>
<path d="M28.19 30.7868C28.3042 30.5303 28.4984 30.3176 28.7435 30.1806C28.9887 30.0437 29.2716 29.9898 29.55 30.027C31.9983 30.0334 34.4436 30.2004 36.87 30.5269C39.3988 30.8441 41.8413 31.6524 44.06 32.9063C45.2081 33.576 46.1777 34.5129 46.8862 35.6373C47.5948 36.7617 48.0214 38.0404 48.13 39.3649C48.4187 41.4426 48.1424 43.5596 47.33 45.4936C47.06 46.1035 46.65 46.6534 46.33 47.2432C46.2875 47.3129 46.2594 47.3904 46.2474 47.4711C46.2353 47.5518 46.2396 47.6341 46.26 47.7131C47.7582 50.9405 48.7918 54.3638 49.33 57.8809C49.3253 57.9675 49.3253 58.0543 49.33 58.1409C49.3454 58.2023 49.3654 58.2625 49.39 58.3208C49.72 57.321 50.03 56.3912 50.39 55.4514C51.0705 53.6024 51.9738 51.8432 53.08 50.2126C53.1355 50.1335 53.1653 50.0392 53.1653 49.9426C53.1653 49.846 53.1355 49.7518 53.08 49.6727C51.8449 46.8847 51.7445 43.7254 52.8 40.8646C53.4451 39.1713 54.6619 37.7566 56.24 36.8655C58.3067 35.6622 60.5901 34.8774 62.96 34.556C65.5987 34.1713 68.2636 33.9941 70.93 34.0261C71.8 34.0261 72.19 34.406 72.19 35.2658C72.2433 38.5597 71.9076 41.8484 71.19 45.0637C70.772 46.9941 69.9952 48.8288 68.9 50.4725C67.7489 52.1746 65.9746 53.356 63.96 53.7618C61.2601 54.4056 58.4184 54.0504 55.96 52.762C55.4418 52.457 54.941 52.1232 54.46 51.7622C54.11 52.3821 53.73 52.992 53.4 53.6418C51.9169 56.5753 50.9752 59.7521 50.62 63.0198C50.39 64.9394 50.32 66.889 50.19 68.8285C50.2067 69.05 50.1578 69.2715 50.0493 69.4653C49.9408 69.6592 49.7776 69.8167 49.58 69.9183C49.4167 69.9872 49.2381 70.0114 49.0624 69.9886C48.8867 69.9657 48.7202 69.8966 48.58 69.7883C48.4379 69.6553 48.3279 69.4916 48.2586 69.3097C48.1893 69.1278 48.1624 68.9324 48.18 68.7386C48.13 67.0989 48.1 65.4493 48.01 63.8096C47.8579 60.4264 47.3177 57.0718 46.4 53.8118C45.95 52.2721 45.34 50.8125 44.8 49.2628C44.7335 49.1111 44.6567 48.9641 44.57 48.8229C43.83 49.1028 43.13 49.4228 42.39 49.6227C39.6509 50.4547 36.6966 50.2005 34.14 48.9129C32.6071 48.0481 31.3859 46.7222 30.65 45.1237C29.5797 42.9998 28.9021 40.7 28.65 38.3352C28.48 36.9555 28.41 35.5658 28.29 34.1861C28.29 34.0461 28.29 33.9161 28.21 33.7762L28.19 30.7868ZM70.19 36.0257H69.89C67.7033 36.0423 65.5208 36.2194 63.36 36.5555C61.5465 36.8103 59.7848 37.3502 58.14 38.1552C57.0295 38.6629 56.0711 39.4522 55.36 40.4447C54.4917 41.8554 54.0829 43.5008 54.19 45.1537C54.1839 46.1747 54.353 47.1892 54.69 48.153L54.87 47.9831C56.244 46.3877 57.8483 45.0062 59.63 43.884C60.55 43.3041 61.51 42.7842 62.47 42.2943C62.6097 42.1899 62.7743 42.1239 62.9474 42.1027C63.1206 42.0816 63.2962 42.1061 63.4569 42.1738C63.6177 42.2415 63.7579 42.3501 63.8637 42.4888C63.9695 42.6274 64.0371 42.7913 64.06 42.9642C64.17 43.4341 63.96 43.804 63.4 44.0739C61.6434 44.8824 60.0105 45.936 58.55 47.2032C57.56 48.0231 56.65 49.0228 55.69 50.0226C56.199 50.6212 56.8533 51.079 57.59 51.3523C59.4135 52.0617 61.4025 52.2318 63.32 51.8422C64.1569 51.708 64.9559 51.3981 65.6643 50.9328C66.3727 50.4675 66.9745 49.8575 67.43 49.1428C68.1267 48.0453 68.6622 46.8533 69.02 45.6036C69.5651 43.6451 69.9003 41.6342 70.02 39.6049C70.12 38.3952 70.13 37.2354 70.19 36.0257ZM30.11 32.1665C30.3 34.306 30.45 36.4756 30.72 38.6251C30.9236 40.5331 31.469 42.389 32.33 44.1039C32.9299 45.4876 33.9897 46.6213 35.33 47.3132C37.1701 48.095 39.2091 48.2803 41.16 47.8431C41.9967 47.7174 42.8034 47.4395 43.54 47.0233C42.2364 44.6803 40.4256 42.6581 38.24 41.1046C37.69 40.7046 37.12 40.3047 36.59 39.8848C36.477 39.8082 36.3809 39.7093 36.3076 39.5942C36.2343 39.479 36.1854 39.3501 36.1638 39.2153C36.1422 39.0806 36.1485 38.9428 36.1822 38.8106C36.2158 38.6783 36.2763 38.5543 36.3597 38.4463C36.4431 38.3383 36.5478 38.2485 36.6673 38.1824C36.7867 38.1164 36.9185 38.0755 37.0543 38.0623C37.1902 38.049 37.3273 38.0638 37.4573 38.1055C37.5873 38.1473 37.7073 38.2153 37.81 38.3052C38.05 38.4751 38.29 38.6651 38.54 38.8351C41.0831 40.4837 43.2392 42.6631 44.86 45.2237C44.92 45.3236 45 45.4136 45.09 45.5336C45.17 45.3836 45.23 45.2937 45.28 45.1837C46.1668 43.2593 46.4257 41.1047 46.02 39.025C45.8863 38.0645 45.5217 37.1507 44.9575 36.3619C44.3932 35.5731 43.646 34.9328 42.78 34.496C41.7698 33.9694 40.7158 33.5312 39.63 33.1863C37.4554 32.5841 35.2156 32.2484 32.96 32.1865C32.06 32.1165 31.19 32.1665 30.11 32.1665Z" fill="#269014"/>
</svg>
