<svg width="100" height="100" viewBox="0 0 100 100" fill="none" xmlns="http://www.w3.org/2000/svg">
<g clip-path="url(#clip0_22_18403)">
<path d="M73.0002 91.65C71.7705 91.6396 70.5614 91.9658 69.5038 92.5933C68.4462 93.2208 67.5804 94.1257 67.0002 95.21C66.2344 96.7067 65.0563 97.9529 63.6051 98.8017C62.1539 99.6505 60.4901 100.066 58.8102 100C57.2101 99.985 55.6532 99.4789 54.3502 98.55C53.1169 97.5809 51.5938 97.0541 50.0252 97.0541C48.4567 97.0541 46.9336 97.5809 45.7002 98.55C44.7141 99.2335 43.5958 99.7031 42.4172 99.9285C41.2387 100.154 40.0261 100.13 38.8573 99.8591C37.6884 99.5878 36.5893 99.075 35.6306 98.3535C34.6718 97.6321 33.8746 96.718 33.2902 95.67C32.5777 94.2501 31.4119 93.1083 29.9774 92.4255C28.5429 91.7426 26.9216 91.5577 25.3702 91.9C20.6302 92.64 15.8802 88.62 15.5302 83.69C15.5262 82.1733 15.0296 80.6989 14.1152 79.4888C13.2009 78.2786 11.9182 77.3982 10.4602 76.98C5.28023 75.18 2.91023 70.13 4.76023 64.86C5.31202 63.5045 5.43821 62.0132 5.12205 60.5842C4.80589 59.1552 4.06234 57.8563 2.99023 56.86C-1.00977 52.86 -1.00977 47.39 2.99023 43.34C4.06171 42.3542 4.80567 41.0639 5.12209 39.6426C5.43852 38.2214 5.31224 36.7374 4.76023 35.39C2.89023 30.03 5.23023 25.03 10.4802 23.2C11.9137 22.7727 13.1727 21.8975 14.0725 20.7025C14.9723 19.5076 15.4656 18.0558 15.4802 16.56C15.5578 15.3324 15.8863 14.1337 16.4453 13.0379C17.0043 11.9421 17.782 10.9726 18.7304 10.1892C19.6787 9.40572 20.7777 8.82501 21.9592 8.48289C23.1408 8.14078 24.38 8.04451 25.6002 8.20004C27.0594 8.5175 28.5826 8.34578 29.9345 7.7114C31.2864 7.07702 32.3919 6.01526 33.0802 4.69004C33.8541 3.22468 35.0256 2.00729 36.4602 1.17769C37.8947 0.348088 39.5342 -0.0600865 41.1902 4.07584e-05C42.858 0.0357109 44.4758 0.576143 45.8302 1.55004C47.0316 2.4785 48.5069 2.98219 50.0252 2.98219C51.5435 2.98219 53.0189 2.4785 54.2202 1.55004C55.2142 0.847816 56.3452 0.363485 57.5394 0.12877C58.7335 -0.105944 59.9637 -0.0857471 61.1495 0.188039C62.3353 0.461825 63.4498 0.983023 64.4202 1.7175C65.3905 2.45197 66.1948 3.38315 66.7802 4.45004C67.4945 5.85116 68.6543 6.97505 70.0772 7.64486C71.5001 8.31467 73.1053 8.49238 74.6402 8.15004C79.4202 7.39004 84.1702 11.45 84.4802 16.45C84.5075 17.9355 85.0067 19.3737 85.9056 20.5566C86.8045 21.7396 88.0564 22.6058 89.4802 23.03C94.7202 24.81 97.1402 29.88 95.2702 35.18C94.7139 36.5356 94.5863 38.0291 94.9045 39.4594C95.2228 40.8898 95.9716 42.1882 97.0502 43.18C101.05 47.18 101.05 52.68 97.0502 56.7C95.9805 57.6871 95.2384 58.9779 94.9238 60.3991C94.6092 61.8203 94.737 63.3037 95.2902 64.65C97.1702 70.03 94.7802 75.06 89.4702 76.87C88.0706 77.3028 86.842 78.1638 85.9576 79.3317C85.0731 80.4996 84.5774 81.9155 84.5402 83.38C84.4681 84.6219 84.1393 85.8353 83.5746 86.9436C83.0099 88.052 82.2215 89.0313 81.2593 89.8197C80.2971 90.608 79.1819 91.1884 77.9842 91.5241C76.7864 91.8598 75.532 91.9435 74.3002 91.77C73.8802 91.7 73.4502 91.69 73.0002 91.65ZM24.5702 10.47C20.8802 10.23 18.1002 12.75 17.6402 16.47C17.5901 17.0747 17.5032 17.6759 17.3802 18.27C17.027 19.8926 16.2407 21.3891 15.105 22.6005C13.9693 23.8119 12.5266 24.693 10.9302 25.15C10.0337 25.436 9.2055 25.9034 8.4973 26.5232C7.78909 27.1429 7.21597 27.9017 6.81358 28.7525C6.4112 29.6032 6.18816 30.5276 6.15834 31.4682C6.12852 32.4088 6.29255 33.3455 6.64023 34.22C7.43429 36.0377 7.63169 38.0603 7.20406 39.9972C6.77643 41.9342 5.74579 43.6856 4.26023 45C3.58696 45.6475 3.05151 46.4243 2.68607 47.2839C2.32063 48.1435 2.13273 49.0681 2.13366 50.0022C2.13459 50.9362 2.32434 51.8605 2.69151 52.7193C3.05867 53.5782 3.59567 54.354 4.27023 55C5.74133 56.3114 6.76203 58.0528 7.18745 59.9771C7.61287 61.9014 7.42141 63.9107 6.64023 65.72C6.29926 66.5852 6.1383 67.5109 6.16718 68.4404C6.19607 69.3699 6.4142 70.2838 6.80823 71.1261C7.20227 71.9685 7.76394 72.7216 8.45891 73.3396C9.15389 73.9575 9.96757 74.4272 10.8502 74.72C12.7237 75.2645 14.3824 76.376 15.5984 77.9017C16.8143 79.4274 17.5276 81.2923 17.6402 83.24C18.1602 87.66 21.2302 90.13 25.5602 89.62C29.8902 89.11 32.8402 90.74 35.0202 94.4C35.4662 95.2113 36.0774 95.9199 36.8143 96.4803C37.5512 97.0406 38.3974 97.4402 39.2983 97.6532C40.1992 97.8661 41.1348 97.8878 42.0446 97.7167C42.9544 97.5457 43.8182 97.1857 44.5802 96.66C46.1399 95.4869 48.0386 94.8525 49.9902 94.8525C51.9418 94.8525 53.8406 95.4869 55.4002 96.66C56.3067 97.242 57.3316 97.6144 58.4002 97.75C61.4002 98.09 63.6302 96.69 65.2202 94.06C66.0583 92.4651 67.3821 91.1781 69.0001 90.3853C70.618 89.5925 72.4462 89.335 74.2202 89.65C78.5502 90.23 81.8602 87.74 82.3702 83.32C82.8802 78.9 85.0502 76.17 89.1302 74.79C90.0059 74.4854 90.8124 74.0098 91.5028 73.391C92.1932 72.7721 92.7538 72.0222 93.152 71.1849C93.5501 70.3476 93.778 69.4395 93.8224 68.5134C93.8667 67.5873 93.7266 66.6616 93.4102 65.79C93.0334 64.7537 92.7817 63.6761 92.6602 62.58C92.5636 61.1892 92.7834 59.7945 93.303 58.5008C93.8226 57.207 94.6285 56.0477 95.6602 55.11C96.3446 54.4735 96.8929 53.705 97.272 52.8508C97.6512 51.9966 97.8535 51.0744 97.8666 50.1399C97.8797 49.2055 97.7033 48.278 97.3482 47.4135C96.993 46.549 96.4665 45.7655 95.8002 45.11C94.2885 43.768 93.2417 41.9808 92.8104 40.0059C92.3791 38.031 92.5856 35.9701 93.4002 34.12C93.7265 33.2633 93.8763 32.3495 93.8404 31.4335C93.8045 30.5174 93.5837 29.6181 93.1914 28.7896C92.7991 27.961 92.2433 27.2203 91.5574 26.6121C90.8715 26.0038 90.0697 25.5405 89.2002 25.25C87.3064 24.7127 85.6279 23.5967 84.3996 22.0583C83.1714 20.5198 82.4548 18.6359 82.3502 16.67C81.8602 12.25 78.5502 9.77004 74.2002 10.35C72.4674 10.6835 70.6733 10.4491 69.0843 9.68163C67.4953 8.91417 66.1963 7.6546 65.3802 6.09004C64.9086 5.17671 64.2449 4.37632 63.4345 3.74388C62.6242 3.11145 61.6866 2.66196 60.6861 2.42632C59.6855 2.19068 58.6458 2.17447 57.6385 2.3788C56.6311 2.58314 55.6799 3.00317 54.8502 3.61004C53.4592 4.66526 51.7612 5.23644 50.0152 5.23644C48.2693 5.23644 46.5712 4.66526 45.1802 3.61004C44.3595 2.9855 43.411 2.55001 42.4024 2.33474C41.3937 2.11946 40.35 2.12971 39.3459 2.36475C38.3417 2.59979 37.4018 3.05382 36.5936 3.69436C35.7853 4.3349 35.1285 5.14613 34.6702 6.07004C34.1437 7.11992 33.3813 8.03368 32.4427 8.73977C31.5042 9.44587 30.4149 9.92513 29.2602 10.14C27.7056 10.3508 26.139 10.4611 24.5702 10.47Z" fill="#269014"/>
<path d="M49.07 23.3C51.3977 22.3147 53.8698 21.7136 56.39 21.52C56.53 21.52 56.67 21.45 56.81 21.42H58.94C59.29 21.74 59.29 21.74 59.54 23.57H61.12C62 23.57 62.28 23.87 62.28 24.75C62.28 26.67 62.28 28.58 62.28 30.5C62.28 31.3 62.01 31.57 61.22 31.58H61.1C58.83 31.58 58.83 31.58 57.28 33.28C57.2217 33.3524 57.1785 33.4356 57.1527 33.5249C57.127 33.6142 57.1192 33.7077 57.13 33.8C57.3223 34.9207 57.7623 35.9844 58.418 36.9134C59.0737 37.8424 59.9285 38.6133 60.92 39.17C61.09 39.28 61.28 39.36 61.45 39.47C61.5564 39.5196 61.6513 39.5906 61.7288 39.6787C61.8064 39.7668 61.8648 39.87 61.9005 39.9818C61.9362 40.0936 61.9484 40.2115 61.9363 40.3283C61.9241 40.445 61.8879 40.5579 61.83 40.66C61.7728 40.7619 61.6949 40.8508 61.6014 40.9209C61.5079 40.9911 61.4007 41.0409 61.2869 41.0673C61.173 41.0936 61.0548 41.0959 60.94 41.074C60.8252 41.0521 60.7162 41.0064 60.62 40.94C59.013 40.1767 57.6643 38.9601 56.74 37.44C56.29 36.68 55.95 35.86 55.6 35.14C55.0777 35.5489 54.5025 35.8852 53.89 36.14C53.193 36.231 52.4871 36.231 51.79 36.14V38.48C51.84 38.48 51.87 38.54 51.9 38.54C53.33 38.54 53.38 38.94 53.37 40.08C53.37 42.6133 53.37 45.1433 53.37 47.67C53.3706 48.0187 53.4564 48.362 53.62 48.67C54.62 50.53 55.62 52.37 56.62 54.23C56.73 54.43 58.23 57.23 58.3 57.39C59.19 59.59 57.94 60.27 56.3 57.39L55.05 55C54.1 53.25 53.19 51.49 52.21 49.76C51.8044 49.1125 51.6186 48.3515 51.68 47.59C51.68 47.3 51.68 47 51.68 46.67H43.22C43.2011 46.8194 43.2011 46.9706 43.22 47.12C43.2974 48.1975 43.0237 49.271 42.44 50.18C39.16 56.18 35.93 62.24 32.68 68.27C32.0831 69.2239 31.7885 70.3359 31.8349 71.4602C31.8813 72.5845 32.2665 73.6685 32.94 74.57C33.4589 75.325 34.1597 75.937 34.9777 76.3495C35.7957 76.762 36.7044 76.9617 37.62 76.93C44.17 76.93 50.72 76.93 57.27 76.93C58.2795 76.9507 59.2763 76.7016 60.1572 76.2082C61.0382 75.7148 61.7714 74.9951 62.2811 74.1235C62.7908 73.2519 63.0586 72.2599 63.0566 71.2502C63.0546 70.2405 62.7831 69.2496 62.27 68.38C60.56 65.18 58.84 62 57.12 58.81C57.0162 58.6372 56.9259 58.4567 56.85 58.27C56.8025 58.1736 56.7747 58.0688 56.7682 57.9615C56.7616 57.8543 56.7764 57.7469 56.8118 57.6454C56.8472 57.544 56.9023 57.4506 56.9741 57.3707C57.0459 57.2908 57.1329 57.226 57.23 57.18C57.3186 57.1278 57.4166 57.0937 57.5184 57.0796C57.6202 57.0654 57.7238 57.0715 57.8232 57.0975C57.9227 57.1236 58.016 57.169 58.0978 57.2312C58.1796 57.2934 58.2483 57.3711 58.3 57.46C58.386 57.5808 58.4628 57.7078 58.53 57.84C60.27 61.08 62.03 64.31 63.76 67.55C64.6477 69.0814 64.9505 70.8826 64.6122 72.62C64.2739 74.3575 63.3174 75.9135 61.92 77C60.7479 78.0004 59.261 78.5562 57.72 78.57C50.86 78.57 43.99 78.57 37.13 78.57C35.2446 78.4875 33.4639 77.68 32.1596 76.3161C30.8553 74.9522 30.1282 73.1372 30.13 71.25C30.1471 69.8875 30.512 68.5519 31.19 67.37C34.5233 61.1833 37.8567 54.9866 41.19 48.78C41.3568 48.4548 41.4458 48.0954 41.45 47.73C41.45 45.19 41.45 42.64 41.45 40.09C41.45 38.8 41.58 38.67 42.86 38.6C42.9232 38.6056 42.9868 38.6056 43.05 38.6V36.18H37.3C36.3 36.18 35.97 35.56 36.44 34.7C38.5616 30.7212 41.7197 27.3903 45.58 25.06M46.58 26.42C45.5827 26.9971 44.6419 27.6667 43.77 28.42C41.788 30.0145 40.0965 31.9395 38.77 34.11C38.71 34.2 38.67 34.3 38.59 34.45H39.11C43.79 34.45 48.48 34.45 53.17 34.45C53.47 34.4368 53.7562 34.3202 53.98 34.12C55.16 32.98 56.31 31.82 57.46 30.65C57.6189 30.5028 57.7215 30.3047 57.75 30.09C57.75 27.83 57.75 25.56 57.75 23.29C57.7576 23.2403 57.7576 23.1897 57.75 23.14C56.0318 23.1743 54.3248 23.4263 52.67 23.89C51.67 24.19 50.67 24.57 49.62 24.89M50 44.83H51.62V40.32H43.23V44.85H44.79M46.52 44.85H48.34H46.52ZM50 38.57V36.22H44.9V38.57H50ZM59.53 29.87H60.59V25.34H59.5L59.53 29.87Z" fill="#269014"/>
<path d="M69.64 23.09C69.5152 23.3128 69.3489 23.5097 69.15 23.67C68.07 24.33 66.98 24.96 65.87 25.57C65.7776 25.6316 65.6739 25.6744 65.5649 25.6957C65.4559 25.717 65.3437 25.7165 65.2349 25.6942C65.1261 25.6718 65.0228 25.6282 64.931 25.5656C64.8392 25.5031 64.7607 25.423 64.7 25.33C64.6333 25.2332 64.5881 25.1233 64.5676 25.0075C64.547 24.8918 64.5516 24.773 64.581 24.6592C64.6104 24.5454 64.6639 24.4392 64.7379 24.3479C64.812 24.2566 64.9048 24.1823 65.01 24.13C66.11 23.47 67.22 22.82 68.35 22.21C69 21.87 69.63 22.27 69.64 23.09Z" fill="#269014"/>
<path d="M68.87 33.17C68.7088 33.1269 68.5515 33.07 68.4 33C67.26 32.35 66.11 31.71 65 31C64.8779 30.9109 64.7776 30.7954 64.7066 30.662C64.6356 30.5287 64.5957 30.381 64.59 30.23C64.6676 29.9388 64.8537 29.6884 65.11 29.53C65.2166 29.4807 65.3326 29.4552 65.45 29.4552C65.5674 29.4552 65.6834 29.4807 65.79 29.53C66.94 30.16 68.08 30.81 69.21 31.53C69.3027 31.5679 69.3861 31.6252 69.4547 31.6981C69.5233 31.771 69.5755 31.8578 69.6077 31.9526C69.64 32.0473 69.6515 32.1479 69.6415 32.2475C69.6316 32.3471 69.6004 32.4435 69.55 32.53C69.3591 32.7784 69.1295 32.9945 68.87 33.17Z" fill="#269014"/>
<path d="M67.25 26.75C67.82 26.75 68.4 26.75 68.97 26.75C69.54 26.75 69.88 27.08 69.88 27.58C69.88 28.08 69.54 28.43 68.94 28.44H65.54C65.4183 28.4553 65.2948 28.4453 65.1772 28.4106C65.0596 28.3759 64.9504 28.3173 64.8565 28.2384C64.7626 28.1595 64.6861 28.0621 64.6316 27.9523C64.5771 27.8424 64.5459 27.7225 64.54 27.6C64.54 27.11 64.91 26.77 65.54 26.75C66.17 26.73 66.67 26.75 67.25 26.75Z" fill="#269014"/>
</g>
<defs>
<clipPath id="clip0_22_18403">
<rect width="100" height="100" fill="white"/>
</clipPath>
</defs>
</svg>
