<svg width="101" height="101" viewBox="0 0 101 101" fill="none" xmlns="http://www.w3.org/2000/svg">
<path d="M73.01 91.6636C71.7803 91.6531 70.5712 91.9793 69.5135 92.6066C68.4559 93.234 67.5902 94.1387 67.01 95.2228C66.2442 96.7191 65.0661 97.9651 63.6149 98.8137C62.1637 99.6623 60.4999 100.078 58.82 100.012C57.2199 99.9967 55.663 99.4907 54.36 98.5621C53.1267 97.5931 51.6036 97.0664 50.035 97.0664C48.4664 97.0664 46.9433 97.5931 45.71 98.5621C44.7238 99.2454 43.6055 99.7149 42.427 99.9403C41.2485 100.166 40.0359 100.142 38.867 99.8708C37.6982 99.5996 36.5991 99.0869 35.6403 98.3656C34.6816 97.6443 33.8844 96.7304 33.3 95.6827C32.5875 94.263 31.4217 93.1215 29.9872 92.4388C28.5527 91.7561 26.9314 91.5713 25.38 91.9135C20.64 92.6534 15.89 88.6342 15.54 83.7053C15.536 82.1889 15.0394 80.7148 14.125 79.5049C13.2106 78.2951 11.928 77.4148 10.47 76.9967C5.29 75.1971 2.92 70.1482 4.77 64.8794C5.32178 63.5241 5.44798 62.0331 5.13181 60.6045C4.81565 59.1758 4.07211 57.8772 3 56.8811C-1 52.882 -1 47.4132 3 43.3641C4.07148 42.3784 4.81543 41.0884 5.13186 39.6675C5.44828 38.2465 5.32201 36.7628 4.77 35.4158C2.9 30.057 5.24 25.058 10.49 23.2284C11.9235 22.8012 13.1824 21.9261 14.0822 20.7314C14.982 19.5368 15.4754 18.0853 15.49 16.5899C15.5676 15.3625 15.896 14.164 16.4551 13.0685C17.0141 11.973 17.7918 11.0037 18.7401 10.2204C19.6885 9.43712 20.7874 8.85653 21.969 8.51449C23.1506 8.17245 24.3898 8.0762 25.61 8.2317C27.0692 8.54909 28.5923 8.37741 29.9442 7.74317C31.2961 7.10892 32.4016 6.04739 33.09 4.72246C33.8639 3.25742 35.0354 2.04029 36.4699 1.21087C37.9045 0.381452 39.5439 -0.0266334 41.2 0.0334807C42.8678 0.0691431 44.4856 0.609458 45.84 1.58314C47.0413 2.5114 48.5167 3.01498 50.035 3.01498C51.5533 3.01498 53.0287 2.5114 54.23 1.58314C55.2239 0.881071 56.355 0.396846 57.5491 0.162182C58.7433 -0.0724812 59.9735 -0.0522885 61.1593 0.221438C62.345 0.495164 63.4596 1.01625 64.43 1.75056C65.4003 2.48488 66.2045 3.41585 66.79 4.48251C67.5042 5.88333 68.664 7.00697 70.0869 7.67663C71.5098 8.3463 73.1151 8.52398 74.65 8.18171C79.43 7.42187 84.18 11.481 84.49 16.4799C84.5173 17.965 85.0165 19.4029 85.9154 20.5856C86.8142 21.7683 88.0662 22.6343 89.49 23.0585C94.73 24.8381 97.15 29.907 95.28 35.2058C94.7237 36.5611 94.5961 38.0543 94.9143 39.4843C95.2326 40.9143 95.9814 42.2125 97.06 43.2041C101.06 47.2032 101.06 52.702 97.06 56.7212C95.9902 57.708 95.2482 58.9986 94.9335 60.4194C94.6189 61.8403 94.7468 63.3234 95.3 64.6694C97.18 70.0483 94.79 75.0772 89.48 76.8868C88.0804 77.3194 86.8518 78.1802 85.9674 79.3479C85.0829 80.5155 84.5872 81.9311 84.55 83.3954C84.4779 84.6369 84.149 85.8501 83.5843 86.9582C83.0196 88.0663 82.2313 89.0454 81.2691 89.8336C80.3069 90.6218 79.1917 91.202 77.9939 91.5376C76.7961 91.8732 75.5418 91.957 74.31 91.7835C73.89 91.7135 73.46 91.7036 73.01 91.6636ZM24.58 10.5012C20.89 10.2613 18.11 12.7807 17.65 16.4999C17.5998 17.1045 17.513 17.7055 17.39 18.2995C17.0368 19.9217 16.2505 21.4178 15.1148 22.629C13.9791 23.8402 12.5364 24.721 10.94 25.178C10.0434 25.4639 9.21527 25.9312 8.50706 26.5508C7.79885 27.1705 7.22573 27.9291 6.82335 28.7797C6.42097 29.6302 6.19793 30.5544 6.16811 31.4948C6.13828 32.4352 6.30232 33.3717 6.65 34.246C7.44406 36.0633 7.64145 38.0855 7.21382 40.022C6.78619 41.9585 5.75555 43.7096 4.27 45.0237C3.59673 45.671 3.06128 46.4477 2.69584 47.3071C2.33039 48.1665 2.14249 49.0909 2.14343 50.0247C2.14436 50.9586 2.33411 51.8826 2.70127 52.7413C3.06843 53.6 3.60543 54.3756 4.28 55.0215C5.7511 56.3326 6.77179 58.0736 7.19722 59.9975C7.62264 61.9213 7.43117 63.9303 6.65 65.7392C6.30903 66.6042 6.14807 67.5296 6.17695 68.459C6.20584 69.3883 6.42396 70.3019 6.818 71.1441C7.21204 71.9863 7.7737 72.7393 8.46868 73.3571C9.16365 73.9749 9.97734 74.4445 10.86 74.7372C12.7335 75.2815 14.3922 76.3928 15.6081 77.9182C16.824 79.4436 17.5374 81.3081 17.65 83.2554C18.17 87.6744 21.24 90.1439 25.57 89.634C29.9 89.1241 32.85 90.7538 35.03 94.413C35.476 95.224 36.0872 95.9325 36.8241 96.4927C37.561 97.053 38.4072 97.4524 39.3081 97.6654C40.209 97.8783 41.1446 97.8999 42.0544 97.7289C42.9642 97.5579 43.828 97.198 44.59 96.6725C46.1497 95.4996 48.0484 94.8653 50 94.8653C51.9516 94.8653 53.8503 95.4996 55.41 96.6725C56.3165 97.2543 57.3414 97.6266 58.41 97.7622C61.41 98.1022 63.64 96.7025 65.23 94.073C66.0681 92.4784 67.3919 91.1917 69.0098 90.3991C70.6278 89.6065 72.456 89.349 74.23 89.664C78.56 90.2439 81.87 87.7544 82.38 83.3354C82.89 78.9163 85.06 76.1869 89.14 74.8072C90.0157 74.5027 90.8222 74.0272 91.5126 73.4085C92.203 72.7897 92.7635 72.04 93.1617 71.2029C93.5599 70.3657 93.7878 69.4578 93.8321 68.5319C93.8765 67.606 93.7364 66.6805 93.42 65.8092C93.0432 64.7731 92.7914 63.6957 92.67 62.5999C92.5734 61.2093 92.7932 59.815 93.3127 58.5215C93.8323 57.228 94.6383 56.069 95.67 55.1315C96.3543 54.4951 96.9026 53.7268 97.2818 52.8727C97.661 52.0187 97.8633 51.0968 97.8763 50.1625C97.8894 49.2282 97.7131 48.3009 97.3579 47.4367C97.0028 46.5724 96.4762 45.789 95.81 45.1337C94.2983 43.7919 93.2515 42.0052 92.8202 40.0307C92.3889 38.0561 92.5954 35.9957 93.41 34.1461C93.7363 33.2896 93.886 32.3759 93.8501 31.4601C93.8142 30.5442 93.5935 29.6451 93.2012 28.8167C92.8089 27.9884 92.2531 27.2479 91.5672 26.6397C90.8813 26.0316 90.0795 25.5684 89.21 25.278C87.3161 24.7408 85.6376 23.625 84.4094 22.0869C83.1812 20.5488 82.4646 18.6653 82.36 16.6999C81.87 12.2808 78.56 9.80136 74.21 10.3812C72.4772 10.7146 70.683 10.4803 69.0941 9.71297C67.5051 8.94567 66.2061 7.68638 65.39 6.12216C64.9184 5.20902 64.2546 4.40881 63.4443 3.77651C62.634 3.14421 61.6964 2.69482 60.6958 2.45923C59.6953 2.22364 58.6556 2.20743 57.6482 2.41173C56.6408 2.61602 55.6896 3.03596 54.86 3.6427C53.469 4.69768 51.771 5.26874 50.025 5.26874C48.279 5.26874 46.581 4.69768 45.19 3.6427C44.3693 3.01829 43.4207 2.5829 42.4121 2.36767C41.4035 2.15244 40.3598 2.16269 39.3556 2.39768C38.3514 2.63267 37.4116 3.0866 36.6033 3.727C35.795 4.3674 35.1383 5.17845 34.68 6.10216C34.1535 7.15181 33.3911 8.06537 32.4525 8.77131C31.5139 9.47725 30.4247 9.95641 29.27 10.1713C27.7154 10.382 26.1488 10.4922 24.58 10.5012Z" fill="#269014"/>
<path d="M50.01 31.0293C52.0391 30.9892 54.0418 31.4932 55.81 32.489C57.4796 33.4372 58.8616 34.8189 59.81 36.4881C60.7745 38.267 61.2797 40.2584 61.2797 42.2819C61.2797 44.3053 60.7745 46.2967 59.81 48.0756C58.8653 49.7475 57.4823 51.1302 55.81 52.0747C54.0308 53.039 52.0389 53.5441 50.015 53.5441C47.9911 53.5441 45.9993 53.039 44.22 52.0747C42.5496 51.1278 41.1672 49.7457 40.22 48.0756C39.2555 46.2967 38.7504 44.3053 38.7504 42.2819C38.7504 40.2584 39.2555 38.267 40.22 36.4881C41.1708 34.8208 42.5523 33.4395 44.22 32.489C45.9836 31.4908 47.9839 30.9865 50.01 31.0293ZM50.01 34.4786C48.6307 34.452 47.2697 34.7973 46.07 35.4783C44.9175 36.1452 43.9645 37.1083 43.31 38.2677C42.6532 39.511 42.3099 40.8958 42.3099 42.3019C42.3099 43.7079 42.6532 45.0927 43.31 46.336C43.9538 47.4887 44.8837 48.4562 46.01 49.1454C47.208 49.8306 48.5702 50.1762 49.95 50.1452C51.3128 50.1732 52.6577 49.831 53.8411 49.1548C55.0246 48.4787 56.0023 47.4941 56.67 46.306C57.3268 45.0627 57.6701 43.6779 57.6701 42.2719C57.6701 40.8658 57.3268 39.481 56.67 38.2377C56.0149 37.0814 55.0618 36.1217 53.91 35.4583C52.7175 34.7979 51.3732 34.4601 50.01 34.4786ZM59.85 48.0156L48.01 67.5014C47.839 67.7978 47.5947 68.0454 47.3005 68.2205C47.0064 68.3955 46.6722 68.4922 46.33 68.5012C45.8679 68.5207 45.4152 68.3674 45.06 68.0713C44.7243 67.7926 44.5006 67.402 44.43 66.9715C44.3574 66.5038 44.4531 66.0256 44.7 65.6218L52.58 52.7646L59.85 48.0156Z" fill="#269014"/>
</svg>
