<svg width="100" height="100" viewBox="0 0 100 100" fill="none" xmlns="http://www.w3.org/2000/svg">
<g clip-path="url(#clip0_22_18397)">
<path d="M73 91.65C71.7703 91.6395 70.5611 91.9657 69.5035 92.5933C68.4459 93.2208 67.5802 94.1257 67 95.21C66.2342 96.7066 65.0561 97.9529 63.6049 98.8017C62.1537 99.6504 60.4899 100.066 58.81 100C57.2099 99.985 55.653 99.4788 54.35 98.55C53.1166 97.5808 51.5935 97.054 50.025 97.054C48.4564 97.054 46.9333 97.5808 45.7 98.55C44.7138 99.2335 43.5955 99.703 42.417 99.9285C41.2385 100.154 40.0258 100.13 38.857 99.859C37.6882 99.5878 36.5891 99.0749 35.6303 98.3535C34.6715 97.632 33.8744 96.7179 33.29 95.67C32.5774 94.25 31.4117 93.1082 29.9772 92.4254C28.5427 91.7426 26.9214 91.5577 25.37 91.9C20.63 92.64 15.88 88.62 15.53 83.69C15.5259 82.1732 15.0294 80.6989 14.115 79.4887C13.2006 78.2786 11.9179 77.3982 10.46 76.98C5.27999 75.18 2.90999 70.13 4.75999 64.86C5.31177 63.5044 5.43797 62.0131 5.12181 60.5841C4.80564 59.1551 4.0621 57.8562 2.98999 56.86C-1.01001 52.86 -1.01001 47.39 2.98999 43.34C4.06147 42.3541 4.80543 41.0638 5.12185 39.6426C5.43827 38.2214 5.312 36.7373 4.75999 35.39C2.88999 30.03 5.22999 25.03 10.48 23.2C11.9135 22.7727 13.1724 21.8974 14.0722 20.7024C14.972 19.5075 15.4654 18.0557 15.48 16.56C15.5576 15.3323 15.886 14.1336 16.445 13.0378C17.0041 11.9421 17.7818 10.9725 18.7301 10.1891C19.6785 9.40566 20.7774 8.82495 21.959 8.48283C23.1406 8.14071 24.3797 8.04445 25.6 8.19998C27.0592 8.51744 28.5823 8.34572 29.9342 7.71134C31.2861 7.07696 32.3916 6.0152 33.08 4.68998C33.8539 3.22461 35.0254 2.00723 36.4599 1.17763C37.8945 0.348027 39.5339 -0.0601475 41.19 -2.02768e-05C42.8578 0.0356499 44.4756 0.576082 45.83 1.54998C47.0313 2.47844 48.5067 2.98213 50.025 2.98213C51.5433 2.98213 53.0187 2.47844 54.22 1.54998C55.2139 0.847755 56.345 0.363424 57.5391 0.128709C58.7332 -0.106005 59.9635 -0.0858082 61.1493 0.187978C62.335 0.461764 63.4496 0.982962 64.4199 1.71743C65.3903 2.45191 66.1945 3.38309 66.78 4.44998C67.4942 5.8511 68.654 6.97498 70.0769 7.64479C71.4998 8.31461 73.105 8.49232 74.64 8.14998C79.42 7.38998 84.17 11.45 84.48 16.45C84.5073 17.9354 85.0065 19.3737 85.9053 20.5566C86.8042 21.7395 88.0562 22.6057 89.48 23.03C94.72 24.81 97.14 29.88 95.27 35.18C94.7137 36.5356 94.5861 38.0291 94.9043 39.4594C95.2225 40.8897 95.9714 42.1882 97.05 43.18C101.05 47.18 101.05 52.68 97.05 56.7C95.9802 57.687 95.2382 58.9779 94.9235 60.399C94.6089 61.8202 94.7368 63.3036 95.29 64.65C97.17 70.03 94.78 75.06 89.47 76.87C88.0704 77.3027 86.8418 78.1637 85.9573 79.3316C85.0729 80.4995 84.5772 81.9154 84.54 83.38C84.4678 84.6218 84.139 85.8352 83.5743 86.9436C83.0096 88.052 82.2213 89.0312 81.2591 89.8196C80.2969 90.608 79.1817 91.1883 77.9839 91.524C76.7861 91.8597 75.5318 91.9435 74.3 91.77C73.88 91.7 73.45 91.69 73 91.65ZM24.57 10.47C20.88 10.23 18.1 12.75 17.64 16.47C17.5898 17.0747 17.503 17.6758 17.38 18.27C17.0267 19.8925 16.2405 21.389 15.1048 22.6004C13.9691 23.8118 12.5264 24.6929 10.93 25.15C10.0334 25.436 9.20526 25.9034 8.49705 26.5231C7.78884 27.1429 7.21572 27.9017 6.81334 28.7524C6.41096 29.6031 6.18792 30.5276 6.1581 31.4682C6.12827 32.4088 6.29231 33.3455 6.63999 34.22C7.43405 36.0377 7.63144 38.0603 7.20381 39.9972C6.77618 41.9341 5.74554 43.6856 4.25999 45C3.58672 45.6474 3.05127 46.4243 2.68583 47.2839C2.32038 48.1435 2.13248 49.0681 2.13342 50.0021C2.13435 50.9362 2.3241 51.8604 2.69126 52.7193C3.05842 53.5781 3.59542 54.3539 4.26999 55C5.74109 56.3113 6.76178 58.0527 7.18721 59.977C7.61263 61.9013 7.42116 63.9107 6.63999 65.72C6.29902 66.5852 6.13806 67.5108 6.16694 68.4403C6.19583 69.3698 6.41395 70.2837 6.80799 71.1261C7.20203 71.9684 7.76369 72.7216 8.45867 73.3395C9.15364 73.9575 9.96733 74.4272 10.85 74.72C12.7234 75.2644 14.3822 76.3759 15.5981 77.9016C16.814 79.4273 17.5274 81.2923 17.64 83.24C18.16 87.66 21.23 90.13 25.56 89.62C29.89 89.11 32.84 90.74 35.02 94.4C35.466 95.2112 36.0772 95.9199 36.8141 96.4802C37.5509 97.0406 38.3972 97.4401 39.2981 97.6531C40.199 97.8661 41.1346 97.8877 42.0443 97.7167C42.9541 97.5456 43.818 97.1856 44.58 96.66C46.1396 95.4868 48.0384 94.8525 49.99 94.8525C51.9416 94.8525 53.8403 95.4868 55.4 96.66C56.3064 97.242 57.3314 97.6143 58.4 97.75C61.4 98.09 63.63 96.69 65.22 94.06C66.0581 92.465 67.3819 91.1781 68.9998 90.3853C70.6178 89.5925 72.446 89.335 74.22 89.65C78.55 90.23 81.86 87.74 82.37 83.32C82.88 78.9 85.05 76.17 89.13 74.79C90.0057 74.4854 90.8122 74.0098 91.5026 73.3909C92.1929 72.772 92.7535 72.0222 93.1517 71.1848C93.5499 70.3475 93.7778 69.4394 93.8221 68.5133C93.8665 67.5872 93.7264 66.6615 93.41 65.79C93.0332 64.7536 92.7814 63.676 92.66 62.58C92.5634 61.1891 92.7831 59.7945 93.3027 58.5007C93.8223 57.2069 94.6282 56.0477 95.66 55.11C96.3443 54.4735 96.8926 53.7049 97.2718 52.8507C97.651 51.9965 97.8532 51.0744 97.8663 50.1399C97.8794 49.2054 97.7031 48.2779 97.3479 47.4135C96.9928 46.549 96.4662 45.7654 95.8 45.11C94.2883 43.7679 93.2415 41.9808 92.8102 40.0058C92.3789 38.0309 92.5854 35.9701 93.4 34.12C93.7263 33.2633 93.876 32.3494 93.8401 31.4334C93.8042 30.5174 93.5835 29.618 93.1912 28.7895C92.7988 27.9609 92.243 27.2203 91.5572 26.612C90.8713 26.0038 90.0695 25.5405 89.2 25.25C87.3061 24.7126 85.6276 23.5967 84.3994 22.0582C83.1711 20.5198 82.4546 18.6358 82.35 16.67C81.86 12.25 78.55 9.76998 74.2 10.35C72.4672 10.6834 70.673 10.449 69.0841 9.68157C67.4951 8.91411 66.1961 7.65454 65.38 6.08998C64.9084 5.17665 64.2446 4.37626 63.4343 3.74382C62.624 3.11139 61.6863 2.6619 60.6858 2.42626C59.6853 2.19062 58.6456 2.17441 57.6382 2.37874C56.6308 2.58308 55.6796 3.00311 54.85 3.60998C53.459 4.6652 51.761 5.23638 50.015 5.23638C48.269 5.23638 46.571 4.6652 45.18 3.60998C44.3593 2.98543 43.4107 2.54995 42.4021 2.33468C41.3935 2.1194 40.3498 2.12965 39.3456 2.36469C38.3414 2.59973 37.4016 3.05376 36.5933 3.6943C35.785 4.33484 35.1283 5.14607 34.67 6.06998C34.1435 7.11986 33.3811 8.03362 32.4425 8.73971C31.5039 9.4458 30.4147 9.92507 29.26 10.14C27.7054 10.3508 26.1388 10.461 24.57 10.47Z" fill="#269014"/>
<path d="M72.06 73.16L63 64.1L60.36 61.45C58.847 62.8097 57.0805 63.8573 55.1617 64.5326C53.2429 65.2079 51.2097 65.4977 49.1787 65.3852C47.1476 65.2728 45.1588 64.7604 43.3262 63.8775C41.4937 62.9945 39.8536 61.7584 38.5 60.24C35.9788 57.4073 34.5859 53.7472 34.5859 49.955C34.5859 46.1628 35.9788 42.5027 38.5 39.67C38.41 39.57 38.32 39.46 38.21 39.35L28.07 29.18L26.84 27.94V27.39C27.34 26.7 27.76 26.66 28.38 27.28L39.28 38.18C39.4 38.3 39.5 38.43 39.63 38.57C41.2265 37.1152 43.1138 36.016 45.167 35.3454C47.2202 34.6748 49.3925 34.448 51.54 34.68C55.4063 35.0191 58.9907 36.8435 61.54 39.77C64.0642 42.6308 65.4454 46.3216 65.4196 50.1368C65.3938 53.9519 63.9627 57.6237 61.4 60.45C61.5701 60.5367 61.731 60.6406 61.88 60.76C65.5133 64.3734 69.1366 67.9934 72.75 71.62C73.37 72.24 73.33 72.62 72.64 73.16H72.06ZM59.14 60.41L39.59 40.87C37.2718 43.5144 36.0464 46.9415 36.1622 50.4562C36.2781 53.9709 37.7265 57.3099 40.2138 59.7959C42.701 62.2818 46.0408 63.7286 49.5555 63.8427C53.0703 63.9567 56.4968 62.7295 59.14 60.41ZM60.36 59.18C62.7047 56.5443 63.9537 53.1122 63.8512 49.586C63.7488 46.0598 62.3027 42.706 59.8089 40.2108C57.315 37.7157 53.962 36.2679 50.4358 36.1637C46.9096 36.0594 43.4769 37.3066 40.84 39.65L60.36 59.18Z" fill="#269014"/>
<path d="M26.84 49.73C26.9527 49.5522 27.1121 49.4087 27.3008 49.3153C27.4895 49.2218 27.7002 49.1819 27.91 49.2C29.28 49.2 30.65 49.2 32.02 49.2C32.1515 49.1899 32.2837 49.2059 32.4089 49.2471C32.5342 49.2883 32.6501 49.3539 32.75 49.44C32.8415 49.5495 32.9063 49.6788 32.9393 49.8176C32.9723 49.9565 32.9725 50.1011 32.94 50.24C32.8639 50.368 32.7626 50.4792 32.6423 50.5668C32.5219 50.6545 32.3851 50.7168 32.24 50.75C31.8513 50.7953 31.4587 50.7953 31.07 50.75C30.02 50.75 28.96 50.75 27.91 50.75C27.6999 50.7704 27.4884 50.7316 27.2992 50.6379C27.1101 50.5442 26.951 50.3995 26.84 50.22V49.73Z" fill="#269014"/>
<path d="M49.72 73.16C49.5421 73.0473 49.3987 72.8879 49.3052 72.6992C49.2118 72.5105 49.1719 72.2998 49.19 72.09C49.19 70.74 49.19 69.38 49.19 68.03C49.1747 67.8938 49.1747 67.7563 49.19 67.62C49.2197 67.4325 49.3203 67.2636 49.4711 67.1482C49.6218 67.0328 49.8112 66.9797 50 67C50.1842 66.9833 50.3675 67.0402 50.5099 67.1582C50.6523 67.2763 50.7422 67.4459 50.76 67.63C50.7901 67.9159 50.7901 68.2041 50.76 68.49C50.76 69.69 50.76 70.9 50.76 72.1C50.778 72.3098 50.7382 72.5205 50.6447 72.7092C50.5513 72.8979 50.4078 73.0573 50.23 73.17L49.72 73.16Z" fill="#269014"/>
<path d="M49.2 29.92C49.2 29.21 49.2 28.51 49.2 27.8C49.2 27.09 49.51 26.85 50 26.85C50.49 26.85 50.79 27.2 50.79 27.8V32.05C50.79 32.67 50.5 33.05 50.01 33.05C49.52 33.05 49.21 32.71 49.2 32.05V29.92Z" fill="#269014"/>
<path d="M70.05 50.8C69.34 50.8 68.64 50.8 67.93 50.8C67.22 50.8 66.93 50.5 66.93 50.01C66.93 49.52 67.27 49.21 67.87 49.21H72.17C72.76 49.21 73.11 49.53 73.1 50.03C73.09 50.53 72.74 50.79 72.17 50.8C71.6 50.81 70.78 50.8 70.05 50.8Z" fill="#269014"/>
<path d="M66.74 34.1C66.6224 34.3398 66.4817 34.5675 66.32 34.78C65.32 35.78 64.24 36.88 63.19 37.91C63.1228 38.0016 63.0366 38.0776 62.9374 38.1329C62.8382 38.1882 62.7282 38.2214 62.6149 38.2303C62.5017 38.2393 62.3879 38.2236 62.2812 38.1846C62.1745 38.1455 62.0776 38.0839 61.9969 38.0039C61.9162 37.924 61.8537 37.8275 61.8137 37.7212C61.7736 37.6149 61.757 37.5013 61.7649 37.3879C61.7727 37.2746 61.805 37.1643 61.8594 37.0646C61.9137 36.9649 61.989 36.878 62.08 36.81C63.08 35.76 64.17 34.72 65.21 33.68C65.48 33.42 65.8 33.24 66.14 33.46C66.3693 33.6438 66.5713 33.8593 66.74 34.1Z" fill="#269014"/>
<path d="M43.21 34.37C43.0512 34.3804 42.8936 34.338 42.7615 34.2494C42.6294 34.1607 42.5304 34.0309 42.48 33.88C42.08 32.88 41.68 31.98 41.3 31.02C41.2164 30.833 41.2106 30.6205 41.2837 30.4293C41.3569 30.238 41.503 30.0836 41.69 30C41.8769 29.9165 42.0894 29.9106 42.2807 29.9838C42.472 30.0569 42.6264 30.203 42.71 30.39C43.14 31.39 43.56 32.39 43.93 33.39C43.9713 33.5031 43.9841 33.6246 43.9671 33.7438C43.9501 33.8629 43.904 33.976 43.8327 34.0731C43.7614 34.1701 43.6673 34.2479 43.5586 34.2997C43.45 34.3516 43.3302 34.3757 43.21 34.37Z" fill="#269014"/>
<path d="M70.06 42.17C69.96 42.3 69.82 42.61 69.59 42.72C68.59 43.16 67.66 43.55 66.69 43.93C66.5929 43.9773 66.487 44.004 66.3791 44.0082C66.2712 44.0125 66.1635 43.9943 66.063 43.9548C65.9625 43.9153 65.8713 43.8554 65.7951 43.7788C65.719 43.7022 65.6595 43.6106 65.6206 43.5099C65.5817 43.4091 65.5642 43.3014 65.5691 43.1935C65.574 43.0856 65.6012 42.9799 65.6491 42.8831C65.697 42.7863 65.7644 42.7004 65.8472 42.6311C65.93 42.5617 66.0263 42.5103 66.13 42.48C67.07 42.08 68.01 41.69 68.96 41.32C69.0903 41.2689 69.2317 41.2525 69.3704 41.2723C69.509 41.2921 69.6401 41.3476 69.7509 41.4332C69.8617 41.5188 69.9485 41.6317 70.0026 41.7608C70.0568 41.89 70.0765 42.031 70.06 42.17Z" fill="#269014"/>
<path d="M56.88 34.47C56.27 34.38 55.88 33.91 56.06 33.4C56.44 32.4 56.86 31.4 57.3 30.4C57.3392 30.3084 57.3972 30.2261 57.4703 30.1584C57.5433 30.0907 57.6299 30.0392 57.7242 30.0071C57.8185 29.975 57.9185 29.9632 58.0177 29.9723C58.1169 29.9814 58.2131 30.0113 58.3 30.06C58.3947 30.096 58.481 30.1511 58.5536 30.2218C58.6262 30.2925 58.6835 30.3773 58.7219 30.4711C58.7603 30.5648 58.7791 30.6655 58.7771 30.7668C58.775 30.8681 58.7522 30.9679 58.71 31.06C58.32 32.06 57.94 33.06 57.5 33.96C57.38 34.13 57.09 34.28 56.88 34.47Z" fill="#269014"/>
<path d="M66.4 56C66.4877 56.0153 66.5745 56.0353 66.66 56.06C67.66 56.46 68.6 56.85 69.56 57.26C69.7066 57.323 69.8301 57.43 69.9133 57.5663C69.9964 57.7025 70.0352 57.8612 70.0242 58.0205C70.0132 58.1797 69.953 58.3316 69.852 58.4552C69.7509 58.5787 69.6139 58.6678 69.46 58.71C69.3465 58.7489 69.2234 58.7489 69.11 58.71C68.11 58.28 67 57.86 65.96 57.39C65.8799 57.3522 65.8085 57.2981 65.7504 57.2312C65.6922 57.1643 65.6486 57.0861 65.6223 57.0015C65.596 56.9169 65.5875 56.8278 65.5975 56.7397C65.6074 56.6517 65.6355 56.5666 65.68 56.49C65.8 56.25 66.1 56.09 66.32 55.89L66.4 56Z" fill="#269014"/>
<path d="M38.35 62.49C38.2268 62.732 38.083 62.9629 37.92 63.18C36.8866 64.2334 35.8466 65.2767 34.8 66.31C34.7307 66.3972 34.6438 66.4687 34.545 66.5199C34.4461 66.5711 34.3376 66.6009 34.2265 66.6072C34.1153 66.6135 34.0041 66.5963 33.9001 66.5566C33.7961 66.517 33.7016 66.4558 33.6229 66.3771C33.5442 66.2984 33.483 66.2039 33.4434 66.0999C33.4037 65.9959 33.3865 65.8847 33.3928 65.7735C33.3991 65.6624 33.4289 65.5539 33.4801 65.455C33.5313 65.3562 33.6028 65.2693 33.69 65.2L36.82 62.07C36.9213 61.926 37.0718 61.824 37.2432 61.7835C37.4146 61.7429 37.5949 61.7666 37.75 61.85C37.9746 62.0389 38.176 62.2537 38.35 62.49Z" fill="#269014"/>
<path d="M30.81 41.24L31.13 41.35C32.01 41.7 32.88 42.06 33.75 42.43C34.3 42.66 34.5 43.08 34.31 43.53C34.2621 43.6328 34.1929 43.7242 34.107 43.7983C34.021 43.8723 33.9204 43.9272 33.8116 43.9593C33.7029 43.9915 33.5885 44.0001 33.4762 43.9848C33.3638 43.9694 33.2561 43.9302 33.16 43.87C32.26 43.51 31.36 43.14 30.46 42.76C30.2815 42.6963 30.1324 42.5699 30.0404 42.4042C29.9484 42.2386 29.9198 42.0452 29.96 41.86C30.0082 41.6744 30.1192 41.5112 30.2742 41.3981C30.4291 41.2851 30.6185 41.2292 30.81 41.24Z" fill="#269014"/>
<path d="M34.37 57C34.27 57.11 34.12 57.42 33.87 57.53C32.94 57.96 31.97 58.34 31.01 58.72C30.8243 58.7855 30.6205 58.7774 30.4406 58.6973C30.2607 58.6171 30.1184 58.4711 30.0428 58.2893C29.9672 58.1074 29.9642 57.9036 30.0344 57.7196C30.1045 57.5356 30.2425 57.3854 30.42 57.3C31.42 56.88 32.34 56.47 33.32 56.1C33.86 55.87 34.36 56.24 34.37 57Z" fill="#269014"/>
<path d="M43.12 65.54C43.71 65.64 44.12 66.09 43.94 66.54C43.56 67.54 43.13 68.61 42.68 69.62C42.5772 69.7669 42.4265 69.8734 42.2537 69.9211C42.0809 69.9687 41.8969 69.9546 41.7334 69.8812C41.5699 69.8077 41.4371 69.6795 41.358 69.5186C41.2789 69.3578 41.2584 69.1744 41.3 69C41.68 68 42.07 67 42.5 66.1C42.61 65.86 42.91 65.72 43.12 65.54Z" fill="#269014"/>
<path d="M58.76 69.28C58.7508 69.4528 58.6852 69.6178 58.5732 69.7497C58.4612 69.8816 58.309 69.973 58.14 70.01C57.9636 70.0615 57.7742 70.0435 57.6106 69.9599C57.4469 69.8762 57.3215 69.7332 57.26 69.56C56.96 68.89 56.69 68.21 56.41 67.56C56.29 67.25 56.15 66.95 56.05 66.64C55.9887 66.4596 56.0005 66.2623 56.0827 66.0905C56.1649 65.9186 56.3111 65.7856 56.49 65.72C56.6545 65.6358 56.8457 65.62 57.0218 65.6762C57.1979 65.7324 57.3446 65.856 57.43 66.02C57.9 67.02 58.31 68.11 58.74 69.17C58.7506 69.2059 58.7573 69.2427 58.76 69.28Z" fill="#269014"/>
</g>
<defs>
<clipPath id="clip0_22_18397">
<rect width="100" height="100" fill="white"/>
</clipPath>
</defs>
</svg>
