<svg width="101" height="101" viewBox="0 0 101 101" fill="none" xmlns="http://www.w3.org/2000/svg">
<path d="M73.0701 91.6636C71.8403 91.6531 70.6312 91.9793 69.5736 92.6066C68.516 93.234 67.6502 94.1387 67.0701 95.2228C66.3042 96.7191 65.1262 97.9651 63.6749 98.8137C62.2237 99.6623 60.56 100.078 58.8801 100.012C57.28 99.9967 55.7231 99.4907 54.4201 98.5621C53.1867 97.5931 51.6636 97.0664 50.0951 97.0664C48.5265 97.0664 47.0034 97.5931 45.7701 98.5621C44.7839 99.2454 43.6656 99.7149 42.4871 99.9403C41.3086 100.166 40.0959 100.142 38.9271 99.8708C37.7583 99.5996 36.6591 99.0869 35.7004 98.3656C34.7416 97.6443 33.9444 96.7304 33.3601 95.6827C32.6475 94.263 31.4817 93.1215 30.0472 92.4388C28.6127 91.7561 26.9915 91.5713 25.4401 91.9135C20.7001 92.6534 15.9501 88.6342 15.6001 83.7053C15.596 82.1889 15.0994 80.7148 14.1851 79.5049C13.2707 78.2951 11.988 77.4148 10.5301 76.9967C5.35006 75.1971 2.98006 70.1482 4.83006 64.8794C5.38184 63.5241 5.50803 62.0331 5.19187 60.6045C4.87571 59.1758 4.13217 57.8772 3.06006 56.8811C-0.939941 52.882 -0.939941 47.4132 3.06006 43.3641C4.13154 42.3784 4.87549 41.0884 5.19192 39.6675C5.50834 38.2465 5.38207 36.7628 4.83006 35.4158C2.96006 30.057 5.30006 25.058 10.5501 23.2284C11.9836 22.8012 13.2425 21.9261 14.1423 20.7314C15.0421 19.5368 15.5355 18.0853 15.5501 16.5899C15.6277 15.3625 15.9561 14.164 16.5151 13.0685C17.0741 11.973 17.8518 11.0037 18.8002 10.2204C19.7486 9.43712 20.8475 8.85653 22.0291 8.51449C23.2106 8.17245 24.4498 8.0762 25.6701 8.2317C27.1293 8.54909 28.6524 8.37741 30.0043 7.74317C31.3562 7.10892 32.4617 6.04739 33.1501 4.72246C33.9239 3.25742 35.0954 2.04029 36.53 1.21087C37.9645 0.381452 39.604 -0.0266334 41.2601 0.0334807C42.9279 0.0691431 44.5457 0.609458 45.9001 1.58314C47.1014 2.5114 48.5768 3.01498 50.0951 3.01498C51.6133 3.01498 53.0887 2.5114 54.2901 1.58314C55.284 0.881071 56.4151 0.396846 57.6092 0.162182C58.8033 -0.0724812 60.0336 -0.0522885 61.2193 0.221438C62.4051 0.495164 63.5197 1.01625 64.49 1.75056C65.4604 2.48488 66.2646 3.41585 66.8501 4.48251C67.5643 5.88333 68.7241 7.00697 70.147 7.67663C71.5699 8.3463 73.1751 8.52398 74.7101 8.18171C79.4901 7.42187 84.2401 11.481 84.5501 16.4799C84.5773 17.965 85.0765 19.4029 85.9754 20.5856C86.8743 21.7683 88.1262 22.6343 89.5501 23.0585C94.7901 24.8381 97.2101 29.907 95.3401 35.2058C94.7837 36.5611 94.6561 38.0543 94.9744 39.4843C95.2926 40.9143 96.0415 42.2125 97.1201 43.2041C101.12 47.2032 101.12 52.702 97.1201 56.7212C96.0503 57.708 95.3082 58.9986 94.9936 60.4194C94.679 61.8403 94.8069 63.3234 95.3601 64.6694C97.2401 70.0483 94.8501 75.0772 89.5401 76.8868C88.1404 77.3194 86.9119 78.1802 86.0274 79.3479C85.143 80.5155 84.6472 81.9311 84.6101 83.3954C84.5379 84.6369 84.2091 85.8501 83.6444 86.9582C83.0797 88.0663 82.2914 89.0454 81.3292 89.8336C80.367 90.6218 79.2518 91.202 78.054 91.5376C76.8562 91.8732 75.6018 91.957 74.3701 91.7835C73.9501 91.7135 73.5201 91.7036 73.0701 91.6636ZM24.6401 10.5012C20.9501 10.2613 18.1701 12.7807 17.7101 16.4999C17.6599 17.1045 17.5731 17.7055 17.4501 18.2995C17.0968 19.9217 16.3106 21.4178 15.1749 22.629C14.0392 23.8402 12.5964 24.721 11.0001 25.178C10.1035 25.4639 9.27533 25.9312 8.56712 26.5508C7.85891 27.1705 7.28579 27.9291 6.88341 28.7797C6.48103 29.6302 6.25799 30.5544 6.22817 31.4948C6.19834 32.4352 6.36237 33.3717 6.71006 34.246C7.50411 36.0633 7.70151 38.0855 7.27388 40.022C6.84625 41.9585 5.81561 43.7096 4.33006 45.0237C3.65678 45.671 3.12134 46.4477 2.75589 47.3071C2.39045 48.1665 2.20255 49.0909 2.20348 50.0247C2.20442 50.9586 2.39417 51.8826 2.76133 52.7413C3.12849 53.6 3.66549 54.3756 4.34006 55.0215C5.81116 56.3326 6.83185 58.0736 7.25727 59.9975C7.6827 61.9213 7.49123 63.9303 6.71006 65.7392C6.36909 66.6042 6.20812 67.5296 6.23701 68.459C6.26589 69.3883 6.48402 70.3019 6.87806 71.1441C7.27209 71.9863 7.83376 72.7393 8.52874 73.3571C9.22371 73.9749 10.0374 74.4445 10.9201 74.7372C12.7935 75.2815 14.4523 76.3928 15.6682 77.9182C16.8841 79.4436 17.5974 81.3081 17.7101 83.2554C18.2301 87.6744 21.3001 90.1439 25.6301 89.634C29.9601 89.1241 32.9101 90.7538 35.0901 94.413C35.5361 95.224 36.1472 95.9325 36.8841 96.4927C37.621 97.053 38.4672 97.4524 39.3681 97.6654C40.2691 97.8783 41.2046 97.8999 42.1144 97.7289C43.0242 97.5579 43.888 97.198 44.6501 96.6725C46.2097 95.4996 48.1084 94.8653 50.0601 94.8653C52.0117 94.8653 53.9104 95.4996 55.4701 96.6725C56.3765 97.2543 57.4014 97.6266 58.4701 97.7622C61.4701 98.1022 63.7001 96.7025 65.2901 94.073C66.1282 92.4784 67.452 91.1917 69.0699 90.3991C70.6879 89.6065 72.5161 89.349 74.2901 89.664C78.6201 90.2439 81.9301 87.7544 82.4401 83.3354C82.9501 78.9163 85.1201 76.1869 89.2001 74.8072C90.0758 74.5027 90.8822 74.0272 91.5726 73.4085C92.263 72.7897 92.8236 72.04 93.2218 71.2029C93.62 70.3657 93.8478 69.4578 93.8922 68.5319C93.9365 67.606 93.7964 66.6805 93.4801 65.8092C93.1033 64.7731 92.8515 63.6957 92.7301 62.5999C92.6335 61.2093 92.8532 59.815 93.3728 58.5215C93.8924 57.228 94.6983 56.069 95.7301 55.1315C96.4144 54.4951 96.9627 53.7268 97.3419 52.8727C97.7211 52.0187 97.9233 51.0968 97.9364 50.1625C97.9495 49.2282 97.7731 48.3009 97.418 47.4367C97.0629 46.5724 96.5363 45.789 95.8701 45.1337C94.3584 43.7919 93.3115 42.0052 92.8802 40.0307C92.449 38.0561 92.6555 35.9957 93.4701 34.1461C93.7964 33.2896 93.9461 32.3759 93.9102 31.4601C93.8743 30.5442 93.6536 29.6451 93.2612 28.8167C92.8689 27.9884 92.3131 27.2479 91.6272 26.6397C90.9414 26.0316 90.1396 25.5684 89.2701 25.278C87.3762 24.7408 85.6977 23.625 84.4695 22.0869C83.2412 20.5488 82.5247 18.6653 82.4201 16.6999C81.9301 12.2808 78.6201 9.80136 74.2701 10.3812C72.5372 10.7146 70.7431 10.4803 69.1541 9.71297C67.5651 8.94567 66.2661 7.68638 65.4501 6.12216C64.9785 5.20902 64.3147 4.40881 63.5044 3.77651C62.6941 3.14421 61.7564 2.69482 60.7559 2.45923C59.7554 2.22364 58.7157 2.20743 57.7083 2.41173C56.7009 2.61602 55.7497 3.03596 54.9201 3.6427C53.529 4.69768 51.831 5.26874 50.0851 5.26874C48.3391 5.26874 46.6411 4.69768 45.2501 3.6427C44.4293 3.01829 43.4808 2.5829 42.4722 2.36767C41.4636 2.15244 40.4199 2.16269 39.4157 2.39768C38.4115 2.63267 37.4717 3.0866 36.6634 3.727C35.8551 4.3674 35.1983 5.17845 34.7401 6.10216C34.2135 7.15181 33.4511 8.06537 32.5126 8.77131C31.574 9.47725 30.4847 9.95641 29.3301 10.1713C27.7755 10.382 26.2089 10.4922 24.6401 10.5012Z" fill="#269014"/>
<path d="M44.32 74.1474C43.7811 73.9454 43.2649 73.6874 42.78 73.3776C42.2808 72.9659 41.9067 72.4228 41.7 71.8098C41.4932 71.1968 41.4621 70.5381 41.61 69.9083C41.94 67.4688 42.23 65.0294 42.54 62.5899C42.87 59.9605 43.22 57.3311 43.54 54.7016C43.6633 53.7865 43.7368 52.8653 43.76 51.9422C43.76 49.2528 43.76 46.5734 43.76 43.884C43.7814 43.7402 43.7481 43.5937 43.6666 43.4733C43.5852 43.353 43.4614 43.2676 43.32 43.2341C39.9406 42.0355 37.1025 39.6662 35.32 36.5556C34.84 35.7157 34.32 34.8659 33.9 34.0161C33.6566 33.6866 33.486 33.3091 33.3996 32.9087C33.3132 32.5082 33.313 32.094 33.3989 31.6935C33.4849 31.2929 33.655 30.9153 33.8981 30.5855C34.1411 30.2557 34.4516 29.9814 34.8088 29.7807C35.1659 29.58 35.5617 29.4575 35.9699 29.4214C36.378 29.3853 36.7892 29.4363 37.1761 29.5712C37.563 29.7061 37.9167 29.9216 38.214 30.2036C38.5112 30.4856 38.745 30.8275 38.9 31.2067C39.6432 32.6857 40.619 34.0359 41.79 35.2059C42.8933 36.2341 44.1785 37.0478 45.58 37.6053C45.7132 37.6563 45.8503 37.6964 45.99 37.7253C45.5662 36.4573 45.4597 35.1048 45.68 33.7862C45.8378 32.7511 46.3613 31.8067 47.1557 31.1244C47.9501 30.4421 48.9627 30.0669 50.01 30.0669C51.0573 30.0669 52.0699 30.4421 52.8643 31.1244C53.6586 31.8067 54.1822 32.7511 54.34 33.7862C54.566 35.1258 54.4525 36.5008 54.01 37.7853L54.57 37.5853C57.123 36.5409 59.2407 34.653 60.57 32.2365C60.8 31.8266 61.02 31.4067 61.27 31.0068C61.6638 30.3953 62.2738 29.9548 62.9781 29.7732C63.6825 29.5916 64.4295 29.6822 65.07 30.027C65.7115 30.3463 66.2043 30.9017 66.4448 31.5766C66.6854 32.2514 66.655 32.9933 66.36 33.6462C65.09 36.1856 63.74 38.6451 61.47 40.5447C60.0745 41.7137 58.4879 42.6337 56.78 43.2641C56.6381 43.2932 56.513 43.3761 56.431 43.4954C56.349 43.6147 56.3163 43.7611 56.34 43.904C56.34 46.8233 56.34 49.7427 56.34 52.6621C56.34 53.8818 56.6 55.0915 56.75 56.3113C57.01 58.4375 57.2766 60.567 57.55 62.6999C57.82 64.8494 58.1 66.989 58.35 69.1385C58.4875 69.907 58.5211 70.6905 58.45 71.468C58.351 72.0732 58.078 72.6365 57.6642 73.0892C57.2505 73.5419 56.7139 73.8644 56.12 74.0174L55.82 74.1274H54.59C54.5423 74.0938 54.4921 74.0637 54.44 74.0374C53.8012 73.8901 53.221 73.5555 52.7738 73.0763C52.3266 72.5971 52.0328 71.9953 51.93 71.348C51.85 70.9481 51.8 70.5382 51.74 70.1383L50.45 61.6201L50.12 59.5706C50.01 59.6205 49.99 59.6705 49.98 59.7205C49.4133 63.5264 48.84 67.3322 48.26 71.1381C48.1982 71.7096 47.9912 72.2559 47.6587 72.7249C47.3261 73.1939 46.879 73.57 46.36 73.8175C46.1 73.9474 45.82 74.0374 45.55 74.1474H44.32ZM43.47 70.5982C43.4478 70.7945 43.4646 70.9934 43.5195 71.1832C43.5744 71.3731 43.6663 71.5502 43.7899 71.7044C43.9135 71.8587 44.0663 71.987 44.2397 72.0819C44.413 72.1769 44.6034 72.2367 44.8 72.2578C45.1548 72.2784 45.5049 72.169 45.7847 71.9499C46.0645 71.7309 46.2549 71.4174 46.32 71.0681C46.42 70.6082 46.48 70.1383 46.55 69.6784L47.81 61.3602C48.24 58.4908 48.68 55.6314 49.12 52.762C49.1366 52.5192 49.2413 52.2908 49.4143 52.1196C49.5874 51.9485 49.817 51.8463 50.06 51.8322C50.3103 51.8312 50.5519 51.9241 50.7371 52.0926C50.9222 52.261 51.0375 52.4928 51.06 52.742C51.36 54.6816 51.66 56.6112 51.95 58.5508L53.07 66.3091C53.32 67.9187 53.55 69.5284 53.83 71.1381C53.9023 71.4796 54.0988 71.7822 54.3814 71.9872C54.6641 72.1922 55.0128 72.2851 55.36 72.2478C55.7146 72.2155 56.0443 72.052 56.2847 71.7894C56.5252 71.5269 56.659 71.1841 56.66 70.8281C56.6347 70.3559 56.5847 69.8854 56.51 69.4184C56.25 67.2889 55.98 65.1593 55.72 63.0298C55.46 60.9003 55.17 58.7707 54.91 56.6412C54.75 55.3515 54.52 54.0518 54.49 52.762C54.43 49.4928 54.49 46.2335 54.49 42.9642C54.49 42.1643 54.66 41.9644 55.43 41.7244C57.9996 40.9765 60.2719 39.4457 61.93 37.3454C62.8801 35.9847 63.7548 34.5729 64.55 33.1163C64.6323 33.0032 64.6899 32.874 64.7192 32.7372C64.7484 32.6004 64.7486 32.459 64.7197 32.3221C64.6909 32.1852 64.6336 32.0559 64.5517 31.9426C64.4697 31.8292 64.3648 31.7343 64.2439 31.664C64.1229 31.5936 63.9885 31.5495 63.8494 31.5344C63.7103 31.5192 63.5696 31.5334 63.4363 31.5761C63.3031 31.6188 63.1802 31.6889 63.0758 31.782C62.9714 31.8751 62.8876 31.9891 62.83 32.1165C62.56 32.5764 62.31 33.0463 62.04 33.5062C61.002 35.2401 59.6008 36.7288 57.9327 37.8699C56.2647 39.011 54.3692 39.7774 52.3767 40.1166C50.3842 40.4557 48.3419 40.3595 46.3901 39.8345C44.4383 39.3096 42.6234 38.3683 41.07 37.0755C39.519 35.7159 38.2457 34.0694 37.32 32.2265C37.2696 32.0896 37.1899 31.9654 37.0865 31.8626C36.983 31.7597 36.8583 31.6808 36.7211 31.6313C36.5839 31.5817 36.4375 31.5628 36.2922 31.5758C36.1469 31.5888 36.0062 31.6335 35.88 31.7066C35.757 31.7789 35.6508 31.8766 35.5687 31.9932C35.4866 32.1099 35.4303 32.2427 35.4038 32.3829C35.3773 32.523 35.3811 32.6672 35.4149 32.8058C35.4488 32.9444 35.5119 33.0741 35.6 33.1863C35.98 33.8562 36.37 34.516 36.73 35.1859C37.5586 36.7419 38.6866 38.1188 40.0492 39.2374C41.4119 40.3561 42.9822 41.1945 44.67 41.7044C45.48 41.9644 45.67 42.1543 45.67 43.0242C45.67 46.2435 45.67 49.4628 45.67 52.6821C45.6699 52.9963 45.6499 53.3102 45.61 53.6219C45.35 55.7714 45.08 57.9109 44.81 60.0605L44 66.4491C43.81 67.8788 43.63 69.2885 43.47 70.5982ZM52.53 35.1759C52.53 34.8559 52.53 34.546 52.53 34.2361C52.53 33.5838 52.2708 32.9582 51.8095 32.497C51.3481 32.0357 50.7224 31.7766 50.07 31.7766C49.4175 31.7766 48.7918 32.0357 48.3305 32.497C47.8692 32.9582 47.61 33.5838 47.61 34.2361C47.61 34.8559 47.61 35.4858 47.61 36.1157C47.6654 36.7297 47.9486 37.3008 48.4038 37.7166C48.859 38.1325 49.4533 38.3631 50.07 38.3631C50.6866 38.3631 51.281 38.1325 51.7362 37.7166C52.1914 37.3008 52.4745 36.7297 52.53 36.1157C52.55 35.8057 52.53 35.4858 52.53 35.1759Z" fill="#269014"/>
<path d="M67.23 39.9448C67.23 39.4249 67.23 38.945 67.23 38.5151C67.217 38.3858 67.232 38.2551 67.2738 38.132C67.3156 38.0088 67.3833 37.8961 67.4724 37.8014C67.5615 37.7066 67.6699 37.6321 67.7902 37.5827C67.9105 37.5334 68.04 37.5104 68.17 37.5154C68.2995 37.512 68.4283 37.5361 68.5479 37.586C68.6674 37.6359 68.7751 37.7105 68.8638 37.8049C68.9526 37.8993 69.0204 38.0113 69.0628 38.1337C69.1052 38.2561 69.1213 38.3861 69.11 38.5151C69.11 38.965 69.11 39.4249 69.11 39.9348H70.44C70.5787 39.9223 70.7185 39.9389 70.8504 39.9835C70.9823 40.0281 71.1034 40.0997 71.206 40.1938C71.3086 40.288 71.3905 40.4025 71.4462 40.53C71.502 40.6576 71.5306 40.7954 71.53 40.9346C71.5212 41.0678 71.4858 41.198 71.4259 41.3173C71.366 41.4366 71.2828 41.5428 71.1812 41.6294C71.0796 41.7161 70.9617 41.7816 70.8344 41.8219C70.7071 41.8623 70.573 41.8767 70.44 41.8644C70.02 41.8644 69.6 41.8644 69.11 41.8644V43.2441C69.1108 43.496 69.0165 43.7389 68.8459 43.9242C68.6754 44.1096 68.4411 44.2237 68.19 44.2439C68.0564 44.2527 67.9224 44.2329 67.7971 44.1858C67.6718 44.1387 67.5579 44.0653 67.4633 43.9707C67.3686 43.876 67.2952 43.7622 67.2481 43.6369C67.201 43.5116 67.1812 43.3777 67.19 43.2441C67.19 42.8042 67.19 42.3743 67.19 41.8744C66.72 41.8744 66.29 41.8744 65.85 41.8744C65.717 41.8853 65.5832 41.8695 65.4564 41.8279C65.3297 41.7862 65.2125 41.7197 65.1119 41.6321C65.0112 41.5445 64.9291 41.4377 64.8704 41.3179C64.8117 41.1981 64.7775 41.0678 64.77 40.9346C64.7691 40.7935 64.7982 40.6539 64.8551 40.5248C64.9121 40.3957 64.9958 40.2802 65.1006 40.1857C65.2055 40.0913 65.3291 40.0201 65.4635 39.9769C65.5978 39.9336 65.7397 39.9193 65.88 39.9348L67.23 39.9448Z" fill="#269014"/>
<path d="M31.07 42.6642H29.67C29.5337 42.6724 29.3972 42.6526 29.2689 42.6061C29.1405 42.5595 29.0231 42.4872 28.9238 42.3935C28.8245 42.2998 28.7454 42.1868 28.6914 42.0614C28.6375 41.9361 28.6097 41.801 28.61 41.6645C28.6253 41.4098 28.7374 41.1707 28.9233 40.996C29.1092 40.8213 29.3548 40.7242 29.61 40.7247C30.04 40.7247 30.48 40.7247 31 40.7247V39.4049C30.9918 39.2687 31.0116 39.1322 31.0582 39.0039C31.1047 38.8756 31.1771 38.7582 31.2708 38.6589C31.3645 38.5596 31.4775 38.4805 31.6029 38.4266C31.7283 38.3726 31.8635 38.3449 32 38.3452C32.2511 38.3653 32.4854 38.4795 32.6559 38.6648C32.8265 38.8502 32.9208 39.0931 32.92 39.345C32.92 39.7449 32.92 40.1548 32.92 40.5647C32.9135 40.6178 32.9135 40.6715 32.92 40.7247H34.2C34.87 40.7247 35.31 41.1346 35.29 41.7244C35.2812 41.8568 35.2461 41.986 35.1868 42.1046C35.1275 42.2233 35.0452 42.3289 34.9447 42.4154C34.8442 42.502 34.7275 42.5677 34.6014 42.6086C34.4752 42.6496 34.3422 42.6651 34.21 42.6542H32.91C32.91 43.1341 32.91 43.584 32.91 44.0339C32.9379 44.1709 32.9349 44.3124 32.9013 44.448C32.8676 44.5837 32.8041 44.7101 32.7154 44.8181C32.6267 44.9261 32.5149 45.013 32.3884 45.0724C32.2618 45.1318 32.1236 45.1622 31.9838 45.1615C31.844 45.1607 31.7062 45.1288 31.5803 45.068C31.4544 45.0073 31.3436 44.9192 31.2561 44.8102C31.1685 44.7012 31.1064 44.5741 31.0742 44.4381C31.042 44.3021 31.0406 44.1606 31.07 44.0239V42.6642Z" fill="#269014"/>
<path d="M40.49 47.1933C41.71 47.2832 42.11 47.5232 42.14 48.193C42.17 48.8629 41.77 49.0828 40.46 49.1928C40.46 49.9227 40.46 50.8225 39.46 50.8125C38.46 50.8025 38.51 49.9327 38.46 49.1728C37.7 49.1728 36.87 49.2328 36.8 48.173C36.7786 47.9894 36.8232 47.8042 36.9258 47.6503C37.0283 47.4965 37.1822 47.3841 37.36 47.3332C37.7214 47.2469 38.0893 47.1901 38.46 47.1633C38.46 46.4534 38.39 45.6036 39.46 45.5436C40.07 45.5036 40.3 45.8735 40.49 47.1933Z" fill="#269014"/>
<path d="M55.8 27.5575C55.87 26.2878 56.07 25.9279 56.71 25.8979C56.8992 25.8704 57.0922 25.9092 57.2562 26.0075C57.4202 26.1059 57.5451 26.2579 57.61 26.4378C57.6927 26.8127 57.7428 27.194 57.76 27.5775C58.47 27.5775 59.41 27.4475 59.38 28.5773C59.35 29.7071 58.46 29.4671 57.73 29.4871C57.73 30.2369 57.87 31.1367 56.73 31.1667C56.1 31.1667 55.94 30.8868 55.78 29.4871C55.06 29.4871 54.18 29.6171 54.13 28.4873C54.1146 28.3043 54.1643 28.1216 54.2704 27.9717C54.3765 27.8217 54.5322 27.714 54.71 27.6675C55.0694 27.5991 55.4341 27.5623 55.8 27.5575Z" fill="#269014"/>
</svg>
