<svg width="100" height="100" viewBox="0 0 100 100" fill="none" xmlns="http://www.w3.org/2000/svg">
<g clip-path="url(#clip0_22_18400)">
<path d="M73 91.65C71.7703 91.6395 70.5611 91.9657 69.5035 92.5933C68.4459 93.2208 67.5802 94.1257 67 95.21C66.2342 96.7066 65.0561 97.9529 63.6049 98.8017C62.1537 99.6504 60.4899 100.066 58.81 100C57.2099 99.985 55.653 99.4788 54.35 98.55C53.1166 97.5808 51.5935 97.054 50.025 97.054C48.4564 97.054 46.9333 97.5808 45.7 98.55C44.7138 99.2335 43.5955 99.703 42.417 99.9285C41.2385 100.154 40.0258 100.13 38.857 99.859C37.6882 99.5878 36.5891 99.0749 35.6303 98.3535C34.6715 97.632 33.8744 96.7179 33.29 95.67C32.5774 94.25 31.4117 93.1082 29.9772 92.4254C28.5427 91.7426 26.9214 91.5577 25.37 91.9C20.63 92.64 15.88 88.62 15.53 83.69C15.5259 82.1732 15.0294 80.6989 14.115 79.4887C13.2006 78.2786 11.9179 77.3982 10.46 76.98C5.27999 75.18 2.90999 70.13 4.75999 64.86C5.31177 63.5044 5.43797 62.0131 5.12181 60.5841C4.80564 59.1551 4.0621 57.8562 2.98999 56.86C-1.01001 52.86 -1.01001 47.39 2.98999 43.34C4.06147 42.3541 4.80543 41.0638 5.12185 39.6426C5.43827 38.2214 5.312 36.7373 4.75999 35.39C2.88999 30.03 5.22999 25.03 10.48 23.2C11.9135 22.7727 13.1724 21.8974 14.0722 20.7024C14.972 19.5075 15.4654 18.0557 15.48 16.56C15.5576 15.3323 15.886 14.1336 16.445 13.0378C17.0041 11.9421 17.7818 10.9725 18.7301 10.1891C19.6785 9.40566 20.7774 8.82495 21.959 8.48283C23.1406 8.14071 24.3797 8.04445 25.6 8.19998C27.0592 8.51744 28.5823 8.34572 29.9342 7.71134C31.2861 7.07696 32.3916 6.0152 33.08 4.68998C33.8539 3.22461 35.0254 2.00723 36.4599 1.17763C37.8945 0.348027 39.5339 -0.0601475 41.19 -2.02768e-05C42.8578 0.0356499 44.4756 0.576082 45.83 1.54998C47.0313 2.47844 48.5067 2.98213 50.025 2.98213C51.5433 2.98213 53.0187 2.47844 54.22 1.54998C55.2139 0.847755 56.345 0.363424 57.5391 0.128709C58.7332 -0.106005 59.9635 -0.0858082 61.1493 0.187978C62.335 0.461764 63.4496 0.982962 64.4199 1.71743C65.3903 2.45191 66.1945 3.38309 66.78 4.44998C67.4942 5.8511 68.654 6.97498 70.0769 7.64479C71.4998 8.31461 73.105 8.49232 74.64 8.14998C79.42 7.38998 84.17 11.45 84.48 16.45C84.5073 17.9354 85.0065 19.3737 85.9053 20.5566C86.8042 21.7395 88.0562 22.6057 89.48 23.03C94.72 24.81 97.14 29.88 95.27 35.18C94.7137 36.5356 94.5861 38.0291 94.9043 39.4594C95.2225 40.8897 95.9714 42.1882 97.05 43.18C101.05 47.18 101.05 52.68 97.05 56.7C95.9802 57.687 95.2382 58.9779 94.9235 60.399C94.6089 61.8202 94.7368 63.3036 95.29 64.65C97.17 70.03 94.78 75.06 89.47 76.87C88.0704 77.3027 86.8418 78.1637 85.9573 79.3316C85.0729 80.4995 84.5772 81.9154 84.54 83.38C84.4678 84.6218 84.139 85.8352 83.5743 86.9436C83.0096 88.052 82.2213 89.0312 81.2591 89.8196C80.2969 90.608 79.1817 91.1883 77.9839 91.524C76.7861 91.8597 75.5318 91.9435 74.3 91.77C73.88 91.7 73.45 91.69 73 91.65ZM24.57 10.47C20.88 10.23 18.1 12.75 17.64 16.47C17.5898 17.0747 17.503 17.6758 17.38 18.27C17.0267 19.8925 16.2405 21.389 15.1048 22.6004C13.9691 23.8118 12.5264 24.6929 10.93 25.15C10.0334 25.436 9.20526 25.9034 8.49705 26.5231C7.78884 27.1429 7.21572 27.9017 6.81334 28.7524C6.41096 29.6031 6.18792 30.5276 6.1581 31.4682C6.12827 32.4088 6.29231 33.3455 6.63999 34.22C7.43405 36.0377 7.63144 38.0603 7.20381 39.9972C6.77618 41.9341 5.74554 43.6856 4.25999 45C3.58672 45.6474 3.05127 46.4243 2.68583 47.2839C2.32038 48.1435 2.13248 49.0681 2.13342 50.0021C2.13435 50.9362 2.3241 51.8604 2.69126 52.7193C3.05842 53.5781 3.59542 54.3539 4.26999 55C5.74109 56.3113 6.76178 58.0527 7.18721 59.977C7.61263 61.9013 7.42116 63.9107 6.63999 65.72C6.29902 66.5852 6.13806 67.5108 6.16694 68.4403C6.19583 69.3698 6.41395 70.2837 6.80799 71.1261C7.20203 71.9684 7.76369 72.7216 8.45867 73.3395C9.15364 73.9575 9.96733 74.4272 10.85 74.72C12.7234 75.2644 14.3822 76.3759 15.5981 77.9016C16.814 79.4273 17.5274 81.2923 17.64 83.24C18.16 87.66 21.23 90.13 25.56 89.62C29.89 89.11 32.84 90.74 35.02 94.4C35.466 95.2112 36.0772 95.9199 36.8141 96.4802C37.5509 97.0406 38.3972 97.4401 39.2981 97.6531C40.199 97.8661 41.1346 97.8877 42.0443 97.7167C42.9541 97.5456 43.818 97.1856 44.58 96.66C46.1396 95.4868 48.0384 94.8525 49.99 94.8525C51.9416 94.8525 53.8403 95.4868 55.4 96.66C56.3064 97.242 57.3314 97.6143 58.4 97.75C61.4 98.09 63.63 96.69 65.22 94.06C66.0581 92.465 67.3819 91.1781 68.9998 90.3853C70.6178 89.5925 72.446 89.335 74.22 89.65C78.55 90.23 81.86 87.74 82.37 83.32C82.88 78.9 85.05 76.17 89.13 74.79C90.0057 74.4854 90.8122 74.0098 91.5026 73.3909C92.1929 72.772 92.7535 72.0222 93.1517 71.1848C93.5499 70.3475 93.7778 69.4394 93.8221 68.5133C93.8665 67.5872 93.7264 66.6615 93.41 65.79C93.0332 64.7536 92.7814 63.676 92.66 62.58C92.5634 61.1891 92.7831 59.7945 93.3027 58.5007C93.8223 57.2069 94.6282 56.0477 95.66 55.11C96.3443 54.4735 96.8926 53.7049 97.2718 52.8507C97.651 51.9965 97.8532 51.0744 97.8663 50.1399C97.8794 49.2054 97.7031 48.2779 97.3479 47.4135C96.9928 46.549 96.4662 45.7654 95.8 45.11C94.2883 43.7679 93.2415 41.9808 92.8102 40.0058C92.3789 38.0309 92.5854 35.9701 93.4 34.12C93.7263 33.2633 93.876 32.3494 93.8401 31.4334C93.8042 30.5174 93.5835 29.618 93.1912 28.7895C92.7988 27.9609 92.243 27.2203 91.5572 26.612C90.8713 26.0038 90.0695 25.5405 89.2 25.25C87.3061 24.7126 85.6276 23.5967 84.3994 22.0582C83.1711 20.5198 82.4546 18.6358 82.35 16.67C81.86 12.25 78.55 9.76998 74.2 10.35C72.4672 10.6834 70.673 10.449 69.0841 9.68157C67.4951 8.91411 66.1961 7.65454 65.38 6.08998C64.9084 5.17665 64.2446 4.37626 63.4343 3.74382C62.624 3.11139 61.6863 2.6619 60.6858 2.42626C59.6853 2.19062 58.6456 2.17441 57.6382 2.37874C56.6308 2.58308 55.6796 3.00311 54.85 3.60998C53.459 4.6652 51.761 5.23638 50.015 5.23638C48.269 5.23638 46.571 4.6652 45.18 3.60998C44.3593 2.98543 43.4107 2.54995 42.4021 2.33468C41.3935 2.1194 40.3498 2.12965 39.3456 2.36469C38.3414 2.59973 37.4016 3.05376 36.5933 3.6943C35.785 4.33484 35.1283 5.14607 34.67 6.06998C34.1435 7.11986 33.3811 8.03362 32.4425 8.73971C31.5039 9.4458 30.4147 9.92507 29.26 10.14C27.7054 10.3508 26.1388 10.461 24.57 10.47Z" fill="#269014"/>
<path d="M55.28 68.18H67.46C67.2322 67.1426 66.754 66.1766 66.0671 65.3664C65.3802 64.5562 64.5055 63.9264 63.5193 63.5319C62.533 63.1374 61.4653 62.9902 60.4091 63.1032C59.353 63.2162 58.3405 63.5859 57.46 64.18C57.3247 64.3121 57.1603 64.4107 56.98 64.4677C56.7997 64.5248 56.6086 64.5388 56.4219 64.5087C56.2352 64.4786 56.0582 64.4051 55.9051 64.2942C55.7519 64.1833 55.6269 64.038 55.54 63.87C54.8867 63.0139 54.0447 62.32 53.0795 61.8424C52.1143 61.3648 51.0519 61.1163 49.975 61.1163C48.8981 61.1163 47.8357 61.3648 46.8705 61.8424C45.9053 62.32 45.0633 63.0139 44.41 63.87C44.3247 64.0396 44.2004 64.1866 44.0473 64.2988C43.8942 64.411 43.7166 64.4853 43.5292 64.5155C43.3418 64.5458 43.1499 64.5312 42.9692 64.4728C42.7886 64.4145 42.6243 64.3142 42.49 64.18C41.7591 63.703 40.941 63.3753 40.0829 63.2157C39.2248 63.0561 38.3436 63.0678 37.49 63.25C36.2481 63.4785 35.1048 64.079 34.2119 64.9719C33.319 65.8649 32.7185 67.0081 32.49 68.25H33.1M45.36 70.3H30.87C30.09 69.81 30.14 69.07 30.24 68.3C30.4866 66.4572 31.3298 64.7459 32.6409 63.4276C33.9519 62.1093 35.6586 61.2567 37.5 61C39.4193 60.689 41.3875 61.0194 43.1 61.94C44.6082 60.284 46.6577 59.2202 48.88 58.94V56.5H47.64C46.2054 56.567 44.7929 56.1281 43.6488 55.26C42.5047 54.3919 41.7018 53.1497 41.38 51.75C41.1829 50.4734 41.1259 49.179 41.21 47.89C41.2073 47.7706 41.2287 47.6519 41.2728 47.5409C41.317 47.43 41.383 47.329 41.467 47.2441C41.551 47.1592 41.6512 47.0921 41.7616 47.0467C41.8721 47.0013 41.9906 46.9787 42.11 46.98C43.488 46.9331 44.8677 46.9765 46.24 47.11C47.64 47.28 48.62 48.01 50.02 49.49C50.21 49.28 50.4 49.07 50.59 48.88C51.1905 48.2672 51.9103 47.7842 52.705 47.4608C53.4997 47.1375 54.3523 46.9806 55.21 47C56.06 47 56.91 47 57.76 47C58.0158 46.9829 58.2685 47.0646 58.4657 47.2284C58.663 47.3921 58.7898 47.6254 58.82 47.88C58.8766 49.2576 58.7996 50.6373 58.59 52C58.2409 53.2952 57.4726 54.4382 56.4052 55.2505C55.3378 56.0628 54.0313 56.4987 52.69 56.49H51.16V59C53.3686 59.2876 55.403 60.3509 56.9 62C57.9691 61.4599 59.1283 61.1209 60.32 61C62.3659 60.789 64.4202 61.313 66.115 62.4783C67.8099 63.6437 69.0346 65.3741 69.57 67.36C69.6781 67.9018 69.7549 68.4494 69.8 69C69.8444 69.2766 69.788 69.5599 69.6412 69.7985C69.4944 70.037 69.2669 70.215 69 70.3H54.65M51.17 54.3C55.25 54.84 57.12 52.11 56.54 49.11C52.68 48.7 50.75 51 51.17 54.29V54.3ZM48.85 54.3C49.42 50.56 46.72 48.61 43.47 49.16C43 53.11 45.7 54.74 48.85 54.29V54.3Z" fill="#269014"/>
<path d="M54 33.58C53.9907 34.5383 53.6233 35.4585 52.9702 36.1597C52.317 36.861 51.4252 37.2927 50.47 37.37C49.4745 37.4997 48.4672 37.2436 47.6546 36.6541C46.8419 36.0647 46.2857 35.1866 46.1 34.2C46.0093 33.6896 46.0294 33.1656 46.1588 32.6635C46.2882 32.1615 46.5239 31.6931 46.85 31.29L49.37 28.06C49.437 27.9504 49.531 27.8598 49.6431 27.7969C49.7552 27.7341 49.8815 27.701 50.01 27.701C50.1385 27.701 50.2648 27.7341 50.3769 27.7969C50.489 27.8598 50.583 27.9504 50.65 28.06C51.5 29.15 52.35 30.23 53.19 31.32C53.7099 31.9589 53.9957 32.7563 54 33.58ZM50 29.58C49.23 30.58 48.42 31.58 47.77 32.58C47.4946 33.0799 47.4158 33.6645 47.549 34.2195C47.6822 34.7744 48.0178 35.2596 48.49 35.58C48.9627 35.9214 49.5368 36.0934 50.1193 36.0679C50.7019 36.0425 51.2588 35.8213 51.7 35.44C52.1419 35.0724 52.4315 34.5538 52.5128 33.9847C52.5941 33.4157 52.4613 32.8367 52.14 32.36C51.48 31.38 50.76 30.5 50 29.53V29.58Z" fill="#269014"/>
<path d="M35.58 39.64C35.5805 38.8529 35.8524 38.09 36.35 37.48L38.64 34.54C38.7058 34.4258 38.8005 34.3309 38.9146 34.2649C39.0287 34.1989 39.1582 34.1642 39.29 34.1642C39.4218 34.1642 39.5513 34.1989 39.6654 34.2649C39.7795 34.3309 39.8742 34.4258 39.94 34.54C40.72 35.54 41.51 36.54 42.27 37.54C42.7038 38.0681 42.9652 38.7166 43.0188 39.3979C43.0724 40.0792 42.9158 40.7605 42.57 41.35C42.2534 41.953 41.7704 42.4526 41.1784 42.7894C40.5864 43.1261 39.9102 43.286 39.23 43.25C38.7526 43.2553 38.2788 43.1658 37.8362 42.9868C37.3936 42.8077 36.9909 42.5427 36.6515 42.2069C36.312 41.8712 36.0425 41.4714 35.8586 41.0308C35.6747 40.5902 35.58 40.1175 35.58 39.64ZM39.3 36C38.63 36.86 37.97 37.64 37.4 38.48C37.1608 38.8329 37.0225 39.2443 37 39.67C37.0073 40.1189 37.1563 40.5541 37.4257 40.9132C37.6951 41.2724 38.0711 41.5373 38.5 41.67C38.9462 41.8292 39.4299 41.8504 39.8882 41.7309C40.3466 41.6114 40.7583 41.3567 41.07 41C41.3703 40.6534 41.547 40.2169 41.5723 39.7589C41.5977 39.301 41.4702 38.8477 41.21 38.47C40.62 37.67 40 36.87 39.3 36Z" fill="#269014"/>
<path d="M57 39.63C57 38.8553 57.2646 38.1038 57.75 37.5C58.51 36.5 59.28 35.5 60.06 34.5C60.1258 34.3858 60.2205 34.2909 60.3346 34.2249C60.4487 34.1589 60.5782 34.1242 60.71 34.1242C60.8418 34.1242 60.9713 34.1589 61.0854 34.2249C61.1995 34.2909 61.2942 34.3858 61.36 34.5C62.14 35.5 62.93 36.5 63.69 37.5C64.1238 38.0281 64.3852 38.6766 64.4388 39.3579C64.4924 40.0392 64.3358 40.7205 63.99 41.31C63.5908 42.022 62.9696 42.5839 62.2212 42.9098C61.4728 43.2358 60.6384 43.308 59.8452 43.1153C59.0519 42.9227 58.3435 42.4758 57.828 41.8429C57.3125 41.21 57.0182 40.4258 56.99 39.61L57 39.63ZM60.73 36C60.04 36.91 59.33 37.74 58.73 38.64C58.465 39.081 58.3755 39.6054 58.4793 40.1093C58.583 40.6132 58.8724 41.0596 59.29 41.36C59.7043 41.6787 60.2123 41.8515 60.735 41.8515C61.2577 41.8515 61.7657 41.6787 62.18 41.36C62.5918 41.052 62.8735 40.6011 62.9697 40.0959C63.0659 39.5908 62.9697 39.0679 62.7 38.63C62.12 37.72 61.42 36.9 60.73 36Z" fill="#269014"/>
</g>
<defs>
<clipPath id="clip0_22_18400">
<rect width="100" height="100" fill="white"/>
</clipPath>
</defs>
</svg>
